  0
SECTION
  2
HEADER
  9
$ACADVER
  1
AC1024
  9
$ACADMAINTVER
 70
6
  9
$DWGCODEPAGE
  3
ANSI_1252
  9
$LASTSAVEDBY
  1
ezdxf
  9
$INSBASE
 10
0.0
 20
0.0
 30
0.0
  9
$EXTMIN
 10
1e+20
 20
1e+20
 30
1e+20
  9
$EXTMAX
 10
-1e+20
 20
-1e+20
 30
-1e+20
  9
$LIMMIN
 10
0.0
 20
0.0
  9
$LIMMAX
 10
420.0
 20
297.0
  9
$ORTHOMODE
 70
0
  9
$REGENMODE
 70
1
  9
$FILLMODE
 70
1
  9
$QTEXTMODE
 70
0
  9
$MIRRTEXT
 70
1
  9
$LTSCALE
 40
1.0
  9
$ATTMODE
 70
1
  9
$TEXTSIZE
 40
2.5
  9
$TRACEWID
 40
1.0
  9
$TEXTSTYLE
  7
Standard
  9
$CLAYER
  8
0
  9
$CELTYPE
  6
ByLayer
  9
$CECOLOR
 62
256
  9
$CELTSCALE
 40
1.0
  9
$DISPSILH
 70
0
  9
$DIMSCALE
 40
1.0
  9
$DIMASZ
 40
2.5
  9
$DIMEXO
 40
0.625
  9
$DIMDLI
 40
3.75
  9
$DIMRND
 40
0.0
  9
$DIMDLE
 40
0.0
  9
$DIMEXE
 40
1.25
  9
$DIMTP
 40
0.0
  9
$DIMTM
 40
0.0
  9
$DIMTXT
 40
2.5
  9
$DIMCEN
 40
2.5
  9
$DIMTSZ
 40
0.0
  9
$DIMTOL
 70
0
  9
$DIMLIM
 70
0
  9
$DIMTIH
 70
0
  9
$DIMTOH
 70
0
  9
$DIMSE1
 70
0
  9
$DIMSE2
 70
0
  9
$DIMTAD
 70
1
  9
$DIMZIN
 70
8
  9
$DIMBLK
  1

  9
$DIMASO
 70
1
  9
$DIMSHO
 70
1
  9
$DIMPOST
  1

  9
$DIMAPOST
  1

  9
$DIMALT
 70
0
  9
$DIMALTD
 70
3
  9
$DIMALTF
 40
0.03937007874
  9
$DIMLFAC
 40
1.0
  9
$DIMTOFL
 70
1
  9
$DIMTVP
 40
0.0
  9
$DIMTIX
 70
0
  9
$DIMSOXD
 70
0
  9
$DIMSAH
 70
0
  9
$DIMBLK1
  1

  9
$DIMBLK2
  1

  9
$DIMSTYLE
  2
ISO-25
  9
$DIMCLRD
 70
0
  9
$DIMCLRE
 70
0
  9
$DIMCLRT
 70
0
  9
$DIMTFAC
 40
1.0
  9
$DIMGAP
 40
0.625
  9
$DIMJUST
 70
0
  9
$DIMSD1
 70
0
  9
$DIMSD2
 70
0
  9
$DIMTOLJ
 70
0
  9
$DIMTZIN
 70
8
  9
$DIMALTZ
 70
0
  9
$DIMALTTZ
 70
0
  9
$DIMUPT
 70
0
  9
$DIMDEC
 70
2
  9
$DIMTDEC
 70
2
  9
$DIMALTU
 70
2
  9
$DIMALTTD
 70
3
  9
$DIMTXSTY
  7
Standard
  9
$DIMAUNIT
 70
0
  9
$DIMADEC
 70
0
  9
$DIMALTRND
 40
0.0
  9
$DIMAZIN
 70
0
  9
$DIMDSEP
 70
44
  9
$DIMATFIT
 70
3
  9
$DIMFRAC
 70
0
  9
$DIMLDRBLK
  1

  9
$DIMLUNIT
 70
2
  9
$DIMLWD
 70
-2
  9
$DIMLWE
 70
-2
  9
$DIMTMOVE
 70
0
  9
$DIMFXL
 40
1.0
  9
$DIMFXLON
 70
0
  9
$DIMJOGANG
 40
0.785398163397
  9
$DIMTFILL
 70
0
  9
$DIMTFILLCLR
 70
0
  9
$DIMARCSYM
 70
0
  9
$DIMLTYPE
  6

  9
$DIMLTEX1
  6

  9
$DIMLTEX2
  6

  9
$DIMTXTDIRECTION
 70
0
  9
$LUNITS
 70
2
  9
$LUPREC
 70
4
  9
$SKETCHINC
 40
1.0
  9
$FILLETRAD
 40
10.0
  9
$AUNITS
 70
0
  9
$AUPREC
 70
2
  9
$MENU
  1
.
  9
$ELEVATION
 40
0.0
  9
$PELEVATION
 40
0.0
  9
$THICKNESS
 40
0.0
  9
$LIMCHECK
 70
0
  9
$CHAMFERA
 40
0.0
  9
$CHAMFERB
 40
0.0
  9
$CHAMFERC
 40
0.0
  9
$CHAMFERD
 40
0.0
  9
$SKPOLY
 70
0
  9
$TDCREATE
 40
2461082.886979167
  9
$TDUCREATE
 40
2458532.153996898
  9
$TDUPDATE
 40
2461082.886979167
  9
$TDUUPDATE
 40
2458532.1544311
  9
$TDINDWG
 40
0.0
  9
$TDUSRTIMER
 40
0.0
  9
$USRTIMER
 70
1
  9
$ANGBASE
 50
0.0
  9
$ANGDIR
 70
0
  9
$PDMODE
 70
0
  9
$PDSIZE
 40
0.0
  9
$PLINEWID
 40
0.0
  9
$SPLFRAME
 70
0
  9
$SPLINETYPE
 70
6
  9
$SPLINESEGS
 70
8
  9
$HANDSEED
  5
274
  9
$SURFTAB1
 70
6
  9
$SURFTAB2
 70
6
  9
$SURFTYPE
 70
6
  9
$SURFU
 70
6
  9
$SURFV
 70
6
  9
$UCSBASE
  2

  9
$UCSNAME
  2

  9
$UCSORG
 10
0.0
 20
0.0
 30
0.0
  9
$UCSXDIR
 10
1.0
 20
0.0
 30
0.0
  9
$UCSYDIR
 10
0.0
 20
1.0
 30
0.0
  9
$UCSORTHOREF
  2

  9
$UCSORTHOVIEW
 70
0
  9
$UCSORGTOP
 10
0.0
 20
0.0
 30
0.0
  9
$UCSORGBOTTOM
 10
0.0
 20
0.0
 30
0.0
  9
$UCSORGLEFT
 10
0.0
 20
0.0
 30
0.0
  9
$UCSORGRIGHT
 10
0.0
 20
0.0
 30
0.0
  9
$UCSORGFRONT
 10
0.0
 20
0.0
 30
0.0
  9
$UCSORGBACK
 10
0.0
 20
0.0
 30
0.0
  9
$PUCSBASE
  2

  9
$PUCSNAME
  2

  9
$PUCSORG
 10
0.0
 20
0.0
 30
0.0
  9
$PUCSXDIR
 10
1.0
 20
0.0
 30
0.0
  9
$PUCSYDIR
 10
0.0
 20
1.0
 30
0.0
  9
$PUCSORTHOREF
  2

  9
$PUCSORTHOVIEW
 70
0
  9
$PUCSORGTOP
 10
0.0
 20
0.0
 30
0.0
  9
$PUCSORGBOTTOM
 10
0.0
 20
0.0
 30
0.0
  9
$PUCSORGLEFT
 10
0.0
 20
0.0
 30
0.0
  9
$PUCSORGRIGHT
 10
0.0
 20
0.0
 30
0.0
  9
$PUCSORGFRONT
 10
0.0
 20
0.0
 30
0.0
  9
$PUCSORGBACK
 10
0.0
 20
0.0
 30
0.0
  9
$USERI1
 70
0
  9
$USERI2
 70
0
  9
$USERI3
 70
0
  9
$USERI4
 70
0
  9
$USERI5
 70
0
  9
$USERR1
 40
0.0
  9
$USERR2
 40
0.0
  9
$USERR3
 40
0.0
  9
$USERR4
 40
0.0
  9
$USERR5
 40
0.0
  9
$WORLDVIEW
 70
1
  9
$SHADEDGE
 70
3
  9
$SHADEDIF
 70
70
  9
$TILEMODE
 70
1
  9
$MAXACTVP
 70
64
  9
$PINSBASE
 10
0.0
 20
0.0
 30
0.0
  9
$PLIMCHECK
 70
0
  9
$PEXTMIN
 10
1e+20
 20
1e+20
 30
1e+20
  9
$PEXTMAX
 10
-1e+20
 20
-1e+20
 30
-1e+20
  9
$PLIMMIN
 10
0.0
 20
0.0
  9
$PLIMMAX
 10
420.0
 20
297.0
  9
$UNITMODE
 70
0
  9
$VISRETAIN
 70
1
  9
$PLINEGEN
 70
0
  9
$PSLTSCALE
 70
1
  9
$TREEDEPTH
 70
3020
  9
$CMLSTYLE
  2
Standard
  9
$CMLJUST
 70
0
  9
$CMLSCALE
 40
20.0
  9
$PROXYGRAPHICS
 70
1
  9
$MEASUREMENT
 70
1
  9
$CELWEIGHT
370
-1
  9
$ENDCAPS
280
0
  9
$JOINSTYLE
280
0
  9
$LWDISPLAY
290
0
  9
$INSUNITS
 70
6
  9
$HYPERLINKBASE
  1

  9
$STYLESHEET
  1

  9
$XEDIT
290
1
  9
$CEPSNTYPE
380
0
  9
$PSTYLEMODE
290
1
  9
$FINGERPRINTGUID
  2
{FE80AA7A-365A-4184-BA61-5D5A4C73AFD2}
  9
$VERSIONGUID
  2
{949E616A-463A-4666-861D-4A6C49FB7DD9}
  9
$EXTNAMES
290
1
  9
$PSVPSCALE
 40
0.0
  9
$OLESTARTUP
290
0
  9
$SORTENTS
280
127
  9
$INDEXCTL
280
0
  9
$HIDETEXT
280
1
  9
$XCLIPFRAME
280
1
  9
$HALOGAP
280
0
  9
$OBSCOLOR
 70
257
  9
$OBSLTYPE
280
0
  9
$INTERSECTIONDISPLAY
280
0
  9
$INTERSECTIONCOLOR
 70
257
  9
$DIMASSOC
280
2
  9
$PROJECTNAME
  1

  9
$CAMERADISPLAY
290
0
  9
$LENSLENGTH
 40
50.0
  9
$CAMERAHEIGHT
 40
0.0
  9
$STEPSPERSEC
 40
24.0
  9
$STEPSIZE
 40
100.0
  9
$3DDWFPREC
 40
2.0
  9
$PSOLWIDTH
 40
0.005
  9
$PSOLHEIGHT
 40
0.08
  9
$LOFTANG1
 40
1.570796326795
  9
$LOFTANG2
 40
1.570796326795
  9
$LOFTMAG1
 40
0.0
  9
$LOFTMAG2
 40
0.0
  9
$LOFTPARAM
 70
7
  9
$LOFTNORMALS
280
1
  9
$LATITUDE
 40
37.795
  9
$LONGITUDE
 40
-122.394
  9
$NORTHDIRECTION
 40
0.0
  9
$TIMEZONE
 70
-8000
  9
$LIGHTGLYPHDISPLAY
280
1
  9
$TILEMODELIGHTSYNCH
280
1
  9
$CMATERIAL
347
20
  9
$SOLIDHIST
280
0
  9
$SHOWHIST
280
1
  9
$DWFFRAME
280
2
  9
$DGNFRAME
280
2
  9
$REALWORLDSCALE
290
1
  9
$INTERFERECOLOR
 62
256
  9
$CSHADOW
280
0
  9
$SHADOWPLANELOCATION
 40
0.0
  0
ENDSEC
  0
SECTION
  2
CLASSES
  0
CLASS
  1
ACDBDICTIONARYWDFLT
  2
AcDbDictionaryWithDefault
  3
ObjectDBX Classes
 90
0
 91
0
280
0
281
0
  0
CLASS
  1
SUN
  2
AcDbSun
  3
SCENEOE
 90
1153
 91
0
280
0
281
0
  0
CLASS
  1
VISUALSTYLE
  2
AcDbVisualStyle
  3
ObjectDBX Classes
 90
4095
 91
0
280
0
281
0
  0
CLASS
  1
MATERIAL
  2
AcDbMaterial
  3
ObjectDBX Classes
 90
1153
 91
0
280
0
281
0
  0
CLASS
  1
SCALE
  2
AcDbScale
  3
ObjectDBX Classes
 90
1153
 91
0
280
0
281
0
  0
CLASS
  1
TABLESTYLE
  2
AcDbTableStyle
  3
ObjectDBX Classes
 90
4095
 91
0
280
0
281
0
  0
CLASS
  1
MLEADERSTYLE
  2
AcDbMLeaderStyle
  3
ACDB_MLEADERSTYLE_CLASS
 90
4095
 91
0
280
0
281
0
  0
CLASS
  1
DICTIONARYVAR
  2
AcDbDictionaryVar
  3
ObjectDBX Classes
 90
0
 91
0
280
0
281
0
  0
CLASS
  1
CELLSTYLEMAP
  2
AcDbCellStyleMap
  3
ObjectDBX Classes
 90
1152
 91
0
280
0
281
0
  0
CLASS
  1
MENTALRAYRENDERSETTINGS
  2
AcDbMentalRayRenderSettings
  3
SCENEOE
 90
1024
 91
0
280
0
281
0
  0
CLASS
  1
ACDBDETAILVIEWSTYLE
  2
AcDbDetailViewStyle
  3
ObjectDBX Classes
 90
1025
 91
0
280
0
281
0
  0
CLASS
  1
ACDBSECTIONVIEWSTYLE
  2
AcDbSectionViewStyle
  3
ObjectDBX Classes
 90
1025
 91
0
280
0
281
0
  0
CLASS
  1
RASTERVARIABLES
  2
AcDbRasterVariables
  3
ISM
 90
0
 91
0
280
0
281
0
  0
CLASS
  1
LAYOUT
  2
AcDbLayout
  3
ObjectDBX Classes
 90
0
 91
0
280
0
281
0
  0
CLASS
  1
ACDBPLACEHOLDER
  2
AcDbPlaceHolder
  3
ObjectDBX Classes
 90
0
 91
0
280
0
281
0
  0
ENDSEC
  0
SECTION
  2
TABLES
  0
TABLE
  2
VPORT
  5
8
330
0
100
AcDbSymbolTable
 70
1
  0
VPORT
  5
23
330
8
100
AcDbSymbolTableRecord
100
AcDbViewportTableRecord
  2
*Active
 70
0
 10
0.0
 20
0.0
 11
1.0
 21
1.0
 12
0.0
 22
0.0
 13
0.0
 23
0.0
 14
0.5
 24
0.5
 15
0.5
 25
0.5
 16
0.0
 26
0.0
 36
1.0
 17
0.0
 27
0.0
 37
0.0
 40
1000.0
 41
1.34
 42
50.0
 43
0.0
 44
0.0
 50
0.0
 51
0.0
 71
0
 72
1000
 73
1
 74
3
 75
0
 76
0
 77
0
 78
0
281
0
 65
0
146
0.0
  0
ENDTAB
  0
TABLE
  2
LTYPE
  5
2
330
0
100
AcDbSymbolTable
 70
4
  0
LTYPE
  5
24
330
2
100
AcDbSymbolTableRecord
100
AcDbLinetypeTableRecord
  2
ByBlock
 70
0
  3

 72
65
 73
0
 40
0.0
  0
LTYPE
  5
25
330
2
100
AcDbSymbolTableRecord
100
AcDbLinetypeTableRecord
  2
ByLayer
 70
0
  3

 72
65
 73
0
 40
0.0
  0
LTYPE
  5
26
330
2
100
AcDbSymbolTableRecord
100
AcDbLinetypeTableRecord
  2
Continuous
 70
0
  3

 72
65
 73
0
 40
0.0
  0
LTYPE
  5
42
330
2
100
AcDbSymbolTableRecord
100
AcDbLinetypeTableRecord
  2
DASHED
 70
0
  3
_ _ _
 72
65
 73
2
 40
0.6
 49
0.3
 74
0
 49
-0.3
 74
0
  0
ENDTAB
  0
TABLE
  2
LAYER
  5
1
330
0
100
AcDbSymbolTable
 70
21
  0
LAYER
  5
27
330
1
100
AcDbSymbolTableRecord
100
AcDbLayerTableRecord
  2
0
 70
0
 62
7
  6
Continuous
370
-3
390
13
347
21
  0
LAYER
  5
28
330
1
100
AcDbSymbolTableRecord
100
AcDbLayerTableRecord
  2
Defpoints
 70
0
 62
7
  6
Continuous
290
0
370
-3
390
13
347
21
  0
LAYER
  5
2F
330
1
100
AcDbSymbolTableRecord
100
AcDbLayerTableRecord
  2
BOUNDARY
 70
0
 62
7
  6
DASHED
370
-3
390
13
347
21
  0
LAYER
  5
30
330
1
100
AcDbSymbolTableRecord
100
AcDbLayerTableRecord
  2
BUILDINGS_FAB
 70
0
 62
2
  6
Continuous
370
-3
390
13
347
21
  0
LAYER
  5
31
330
1
100
AcDbSymbolTableRecord
100
AcDbLayerTableRecord
  2
BUILDINGS_PT
 70
0
 62
30
  6
Continuous
370
-3
390
13
347
21
  0
LAYER
  5
32
330
1
100
AcDbSymbolTableRecord
100
AcDbLayerTableRecord
  2
BUILDINGS_WT
 70
0
 62
6
  6
Continuous
370
-3
390
13
347
21
  0
LAYER
  5
33
330
1
100
AcDbSymbolTableRecord
100
AcDbLayerTableRecord
  2
BUILDINGS_AUX
 70
0
 62
8
  6
Continuous
370
-3
390
13
347
21
  0
LAYER
  5
34
330
1
100
AcDbSymbolTableRecord
100
AcDbLayerTableRecord
  2
BUILDINGS_OUTER
 70
0
 62
9
  6
Continuous
370
-3
390
13
347
21
  0
LAYER
  5
35
330
1
100
AcDbSymbolTableRecord
100
AcDbLayerTableRecord
  2
APARTMENTS
 70
0
 62
5
  6
Continuous
370
-3
390
13
347
21
  0
LAYER
  5
36
330
1
100
AcDbSymbolTableRecord
100
AcDbLayerTableRecord
  2
TANKS
 70
0
 62
8
  6
Continuous
370
-3
390
13
347
21
  0
LAYER
  5
37
330
1
100
AcDbSymbolTableRecord
100
AcDbLayerTableRecord
  2
ROADS
 70
0
 62
253
  6
Continuous
370
-3
390
13
347
21
  0
LAYER
  5
38
330
1
100
AcDbSymbolTableRecord
100
AcDbLayerTableRecord
  2
OHT
 70
0
 62
4
  6
Continuous
370
-3
390
13
347
21
  0
LAYER
  5
39
330
1
100
AcDbSymbolTableRecord
100
AcDbLayerTableRecord
  2
HIGHWAY
 70
0
 62
8
  6
Continuous
370
-3
390
13
347
21
  0
LAYER
  5
3A
330
1
100
AcDbSymbolTableRecord
100
AcDbLayerTableRecord
  2
GATE
 70
0
 62
1
  6
Continuous
370
-3
390
13
347
21
  0
LAYER
  5
3B
330
1
100
AcDbSymbolTableRecord
100
AcDbLayerTableRecord
  2
TEXT_MAIN
 70
0
 62
7
  6
Continuous
370
-3
390
13
347
21
  0
LAYER
  5
3C
330
1
100
AcDbSymbolTableRecord
100
AcDbLayerTableRecord
  2
TEXT_SUB
 70
0
 62
8
  6
Continuous
370
-3
390
13
347
21
  0
LAYER
  5
3D
330
1
100
AcDbSymbolTableRecord
100
AcDbLayerTableRecord
  2
DIMENSIONS
 70
0
 62
1
  6
Continuous
370
-3
390
13
347
21
  0
LAYER
  5
3E
330
1
100
AcDbSymbolTableRecord
100
AcDbLayerTableRecord
  2
GRID
 70
0
 62
253
  6
Continuous
370
-3
390
13
347
21
  0
LAYER
  5
3F
330
1
100
AcDbSymbolTableRecord
100
AcDbLayerTableRecord
  2
TITLEBLOCK
 70
0
 62
7
  6
Continuous
370
-3
390
13
347
21
  0
LAYER
  5
40
330
1
100
AcDbSymbolTableRecord
100
AcDbLayerTableRecord
  2
TREES
 70
0
 62
3
  6
Continuous
370
-3
390
13
347
21
  0
LAYER
  5
41
330
1
100
AcDbSymbolTableRecord
100
AcDbLayerTableRecord
  2
NORTH_ARROW
 70
0
 62
7
  6
Continuous
370
-3
390
13
347
21
  0
ENDTAB
  0
TABLE
  2
STYLE
  5
5
330
0
100
AcDbSymbolTable
 70
1
  0
STYLE
  5
29
330
5
100
AcDbSymbolTableRecord
100
AcDbTextStyleTableRecord
  2
Standard
 70
0
 40
0.0
 41
1.0
 50
0.0
 71
0
 42
2.5
  3
txt
  4

  0
ENDTAB
  0
TABLE
  2
VIEW
  5
7
330
0
100
AcDbSymbolTable
 70
0
  0
ENDTAB
  0
TABLE
  2
UCS
  5
6
330
0
100
AcDbSymbolTable
 70
0
  0
ENDTAB
  0
TABLE
  2
APPID
  5
3
330
0
100
AcDbSymbolTable
 70
3
  0
APPID
  5
2A
330
3
100
AcDbSymbolTableRecord
100
AcDbRegAppTableRecord
  2
ACAD
 70
0
  0
APPID
  5
271
330
3
100
AcDbSymbolTableRecord
100
AcDbRegAppTableRecord
  2
HATCHBACKGROUNDCOLOR
 70
0
  0
APPID
  5
272
330
3
100
AcDbSymbolTableRecord
100
AcDbRegAppTableRecord
  2
EZDXF
 70
0
  0
ENDTAB
  0
TABLE
  2
DIMSTYLE
  5
4
330
0
100
AcDbSymbolTable
 70
1
100
AcDbDimStyleTable
  0
DIMSTYLE
105
2B
330
4
100
AcDbSymbolTableRecord
100
AcDbDimStyleTableRecord
  2
Standard
 70
0
 40
1.0
 41
2.5
 42
0.625
 43
3.75
 44
1.25
 45
0.0
 46
0.0
 47
0.0
 48
0.0
 49
2.5
140
2.5
141
2.5
142
0.0
143
0.03937007874
144
1.0
145
0.0
146
1.0
147
0.625
148
0.0
 69
0
 70
0
 71
0
 72
0
 73
0
 74
0
 75
0
 76
0
 77
1
 78
8
 79
3
170
0
171
3
172
1
173
0
174
0
175
0
176
0
177
0
178
0
179
2
271
2
272
2
273
2
274
3
275
0
276
0
277
2
278
44
279
0
280
0
281
0
282
0
283
0
284
8
285
0
286
0
288
0
289
3
290
0
371
-2
372
-2
  0
ENDTAB
  0
TABLE
  2
BLOCK_RECORD
  5
9
330
0
100
AcDbSymbolTable
 70
21
  0
BLOCK_RECORD
  5
17
330
9
100
AcDbSymbolTableRecord
100
AcDbBlockTableRecord
  2
*Model_Space
340
1A
 70
0
280
1
281
0
  0
BLOCK_RECORD
  5
1B
330
9
100
AcDbSymbolTableRecord
100
AcDbBlockTableRecord
  2
*Paper_Space
340
1E
 70
0
280
1
281
0
  0
BLOCK_RECORD
  5
A0
330
9
100
AcDbSymbolTableRecord
100
AcDbBlockTableRecord
  2
*D1
340
0
 70
0
280
1
281
0
  0
BLOCK_RECORD
  5
A5
330
9
100
AcDbSymbolTableRecord
100
AcDbBlockTableRecord
  2
_CLOSEDFILLED
340
0
 70
0
280
1
281
0
  0
BLOCK_RECORD
  5
B4
330
9
100
AcDbSymbolTableRecord
100
AcDbBlockTableRecord
  2
*D2
340
0
 70
0
280
1
281
0
  0
BLOCK_RECORD
  5
C8
330
9
100
AcDbSymbolTableRecord
100
AcDbBlockTableRecord
  2
*D3
340
0
 70
0
280
1
281
0
  0
BLOCK_RECORD
  5
D8
330
9
100
AcDbSymbolTableRecord
100
AcDbBlockTableRecord
  2
*D4
340
0
 70
0
280
1
281
0
  0
BLOCK_RECORD
  5
EC
330
9
100
AcDbSymbolTableRecord
100
AcDbBlockTableRecord
  2
*D5
340
0
 70
0
280
1
281
0
  0
BLOCK_RECORD
  5
FC
330
9
100
AcDbSymbolTableRecord
100
AcDbBlockTableRecord
  2
*D6
340
0
 70
0
280
1
281
0
  0
BLOCK_RECORD
  5
110
330
9
100
AcDbSymbolTableRecord
100
AcDbBlockTableRecord
  2
*D7
340
0
 70
0
280
1
281
0
  0
BLOCK_RECORD
  5
120
330
9
100
AcDbSymbolTableRecord
100
AcDbBlockTableRecord
  2
*D8
340
0
 70
0
280
1
281
0
  0
BLOCK_RECORD
  5
134
330
9
100
AcDbSymbolTableRecord
100
AcDbBlockTableRecord
  2
*D9
340
0
 70
0
280
1
281
0
  0
BLOCK_RECORD
  5
144
330
9
100
AcDbSymbolTableRecord
100
AcDbBlockTableRecord
  2
*D10
340
0
 70
0
280
1
281
0
  0
BLOCK_RECORD
  5
158
330
9
100
AcDbSymbolTableRecord
100
AcDbBlockTableRecord
  2
*D11
340
0
 70
0
280
1
281
0
  0
BLOCK_RECORD
  5
168
330
9
100
AcDbSymbolTableRecord
100
AcDbBlockTableRecord
  2
*D12
340
0
 70
0
280
1
281
0
  0
BLOCK_RECORD
  5
17C
330
9
100
AcDbSymbolTableRecord
100
AcDbBlockTableRecord
  2
*D13
340
0
 70
0
280
1
281
0
  0
BLOCK_RECORD
  5
18C
330
9
100
AcDbSymbolTableRecord
100
AcDbBlockTableRecord
  2
*D14
340
0
 70
0
280
1
281
0
  0
BLOCK_RECORD
  5
1A0
330
9
100
AcDbSymbolTableRecord
100
AcDbBlockTableRecord
  2
*D15
340
0
 70
0
280
1
281
0
  0
BLOCK_RECORD
  5
1B0
330
9
100
AcDbSymbolTableRecord
100
AcDbBlockTableRecord
  2
*D16
340
0
 70
0
280
1
281
0
  0
BLOCK_RECORD
  5
1C4
330
9
100
AcDbSymbolTableRecord
100
AcDbBlockTableRecord
  2
*D17
340
0
 70
0
280
1
281
0
  0
BLOCK_RECORD
  5
1D4
330
9
100
AcDbSymbolTableRecord
100
AcDbBlockTableRecord
  2
*D18
340
0
 70
0
280
1
281
0
  0
ENDTAB
  0
ENDSEC
  0
SECTION
  2
BLOCKS
  0
BLOCK
  5
18
330
17
100
AcDbEntity
  8
0
100
AcDbBlockBegin
  2
*Model_Space
 70
0
 10
0.0
 20
0.0
 30
0.0
  3
*Model_Space
  1

  0
ENDBLK
  5
19
330
17
100
AcDbEntity
  8
0
100
AcDbBlockEnd
  0
BLOCK
  5
1C
330
1B
100
AcDbEntity
  8
0
100
AcDbBlockBegin
  2
*Paper_Space
 70
0
 10
0.0
 20
0.0
 30
0.0
  3
*Paper_Space
  1

  0
ENDBLK
  5
1D
330
1B
100
AcDbEntity
  8
0
100
AcDbBlockEnd
  0
BLOCK
  5
A1
330
A0
100
AcDbEntity
  8
0
100
AcDbBlockBegin
  2
*D1
 70
1
 10
0.0
 20
0.0
 30
0.0
  3
*D1
  1

  0
LINE
  5
A3
330
A0
100
AcDbEntity
  8
0
100
AcDbLine
 10
-165.0
 20
190.0
 30
0.0
 11
-165.0
 21
182.0
 31
0.0
  0
LINE
  5
A4
330
A0
100
AcDbEntity
  8
0
100
AcDbLine
 10
-60.0
 20
190.0
 30
0.0
 11
-60.0
 21
182.0
 31
0.0
  0
INSERT
  5
A9
330
A0
100
AcDbEntity
  8
DIMENSIONS
100
AcDbBlockReference
  2
_CLOSEDFILLED
 10
-165.0
 20
182.0
 30
0.0
 41
0.25
 42
0.25
 50
180.0
  0
INSERT
  5
AB
330
A0
100
AcDbEntity
  8
DIMENSIONS
100
AcDbBlockReference
  2
_CLOSEDFILLED
 10
-60.0
 20
182.0
 30
0.0
 41
0.25
 42
0.25
  0
LINE
  5
AD
330
A0
100
AcDbEntity
  8
0
100
AcDbLine
 10
-164.75
 20
182.0
 30
0.0
 11
-114.0
 21
182.0
 31
0.0
  0
LINE
  5
AE
330
A0
100
AcDbEntity
  8
0
100
AcDbLine
 10
-111.0
 20
182.0
 30
0.0
 11
-60.25
 21
182.0
 31
0.0
  0
MTEXT
  5
AF
330
A0
100
AcDbEntity
  8
DIMENSIONS
100
AcDbMText
 10
-112.5
 20
182.0
 30
0.0
 40
1.0
 71
5
  1
105
  0
POINT
  5
B0
330
A0
100
AcDbEntity
  8
Defpoints
100
AcDbPoint
 10
-165.0
 20
182.0
 30
0.0
  0
POINT
  5
B1
330
A0
100
AcDbEntity
  8
Defpoints
100
AcDbPoint
 10
-165.0
 20
190.0
 30
0.0
  0
POINT
  5
B2
330
A0
100
AcDbEntity
  8
Defpoints
100
AcDbPoint
 10
-60.0
 20
190.0
 30
0.0
  0
ENDBLK
  5
A2
330
A0
100
AcDbEntity
  8
0
100
AcDbBlockEnd
  0
BLOCK
  5
A6
330
A5
100
AcDbEntity
  8
0
100
AcDbBlockBegin
  2
_CLOSEDFILLED
 70
0
 10
0.0
 20
0.0
 30
0.0
  3
_CLOSEDFILLED
  1

  0
SOLID
  5
A8
330
A5
100
AcDbEntity
  8
0
  6
BYBLOCK
 62
0
100
AcDbTrace
 10
-1.0
 20
0.16439898372402537
 30
0.0
 11
0.0
 21
0.0
 31
0.0
 12
-1.0
 22
-0.16439898372402537
 32
0.0
 13
-1.0
 23
-0.16439898372402537
 33
0.0
  0
ENDBLK
  5
A7
330
A5
100
AcDbEntity
  8
0
100
AcDbBlockEnd
  0
BLOCK
  5
B5
330
B4
100
AcDbEntity
  8
0
100
AcDbBlockBegin
  2
*D2
 70
1
 10
0.0
 20
0.0
 30
0.0
  3
*D2
  1

  0
LINE
  5
B7
330
B4
100
AcDbEntity
  8
0
100
AcDbLine
 10
-60.0
 20
190.0
 30
0.0
 11
-52.0
 21
190.0
 31
0.0
  0
LINE
  5
B8
330
B4
100
AcDbEntity
  8
0
100
AcDbLine
 10
-60.0
 20
270.0
 30
0.0
 11
-52.0
 21
270.0
 31
0.0
  0
INSERT
  5
B9
330
B4
100
AcDbEntity
  8
DIMENSIONS
100
AcDbBlockReference
  2
_CLOSEDFILLED
 10
-52.0
 20
190.0
 30
0.0
 41
0.25
 42
0.25
 50
270.0
  0
INSERT
  5
BB
330
B4
100
AcDbEntity
  8
DIMENSIONS
100
AcDbBlockReference
  2
_CLOSEDFILLED
 10
-52.0
 20
270.0
 30
0.0
 41
0.25
 42
0.25
 50
90.0
  0
LINE
  5
BD
330
B4
100
AcDbEntity
  8
0
100
AcDbLine
 10
-52.0
 20
190.25
 30
0.0
 11
-52.0
 21
229.0
 31
0.0
  0
LINE
  5
BE
330
B4
100
AcDbEntity
  8
0
100
AcDbLine
 10
-52.0
 20
231.0
 30
0.0
 11
-52.0
 21
269.75
 31
0.0
  0
MTEXT
  5
BF
330
B4
100
AcDbEntity
  8
DIMENSIONS
100
AcDbMText
 10
-52.0
 20
230.0
 30
0.0
 40
1.0
 71
5
  1
80
 50
90.0
  0
POINT
  5
C0
330
B4
100
AcDbEntity
  8
Defpoints
100
AcDbPoint
 10
-52.0
 20
190.0
 30
0.0
  0
POINT
  5
C1
330
B4
100
AcDbEntity
  8
Defpoints
100
AcDbPoint
 10
-60.0
 20
190.0
 30
0.0
  0
POINT
  5
C2
330
B4
100
AcDbEntity
  8
Defpoints
100
AcDbPoint
 10
-60.0
 20
270.0
 30
0.0
  0
ENDBLK
  5
B6
330
B4
100
AcDbEntity
  8
0
100
AcDbBlockEnd
  0
BLOCK
  5
C9
330
C8
100
AcDbEntity
  8
0
100
AcDbBlockBegin
  2
*D3
 70
1
 10
0.0
 20
0.0
 30
0.0
  3
*D3
  1

  0
LINE
  5
CB
330
C8
100
AcDbEntity
  8
0
100
AcDbLine
 10
-160.0
 20
90.0
 30
0.0
 11
-160.0
 21
82.0
 31
0.0
  0
LINE
  5
CC
330
C8
100
AcDbEntity
  8
0
100
AcDbLine
 10
-60.0
 20
90.0
 30
0.0
 11
-60.0
 21
82.0
 31
0.0
  0
INSERT
  5
CD
330
C8
100
AcDbEntity
  8
DIMENSIONS
100
AcDbBlockReference
  2
_CLOSEDFILLED
 10
-160.0
 20
82.0
 30
0.0
 41
0.25
 42
0.25
 50
180.0
  0
INSERT
  5
CF
330
C8
100
AcDbEntity
  8
DIMENSIONS
100
AcDbBlockReference
  2
_CLOSEDFILLED
 10
-60.0
 20
82.0
 30
0.0
 41
0.25
 42
0.25
  0
LINE
  5
D1
330
C8
100
AcDbEntity
  8
0
100
AcDbLine
 10
-159.75
 20
82.0
 30
0.0
 11
-111.5
 21
82.0
 31
0.0
  0
LINE
  5
D2
330
C8
100
AcDbEntity
  8
0
100
AcDbLine
 10
-108.5
 20
82.0
 30
0.0
 11
-60.25
 21
82.0
 31
0.0
  0
MTEXT
  5
D3
330
C8
100
AcDbEntity
  8
DIMENSIONS
100
AcDbMText
 10
-110.0
 20
82.0
 30
0.0
 40
1.0
 71
5
  1
100
  0
POINT
  5
D4
330
C8
100
AcDbEntity
  8
Defpoints
100
AcDbPoint
 10
-160.0
 20
82.0
 30
0.0
  0
POINT
  5
D5
330
C8
100
AcDbEntity
  8
Defpoints
100
AcDbPoint
 10
-160.0
 20
90.0
 30
0.0
  0
POINT
  5
D6
330
C8
100
AcDbEntity
  8
Defpoints
100
AcDbPoint
 10
-60.0
 20
90.0
 30
0.0
  0
ENDBLK
  5
CA
330
C8
100
AcDbEntity
  8
0
100
AcDbBlockEnd
  0
BLOCK
  5
D9
330
D8
100
AcDbEntity
  8
0
100
AcDbBlockBegin
  2
*D4
 70
1
 10
0.0
 20
0.0
 30
0.0
  3
*D4
  1

  0
LINE
  5
DB
330
D8
100
AcDbEntity
  8
0
100
AcDbLine
 10
-60.0
 20
90.0
 30
0.0
 11
-52.0
 21
90.0
 31
0.0
  0
LINE
  5
DC
330
D8
100
AcDbEntity
  8
0
100
AcDbLine
 10
-60.0
 20
150.0
 30
0.0
 11
-52.0
 21
150.0
 31
0.0
  0
INSERT
  5
DD
330
D8
100
AcDbEntity
  8
DIMENSIONS
100
AcDbBlockReference
  2
_CLOSEDFILLED
 10
-52.0
 20
90.0
 30
0.0
 41
0.25
 42
0.25
 50
270.0
  0
INSERT
  5
DF
330
D8
100
AcDbEntity
  8
DIMENSIONS
100
AcDbBlockReference
  2
_CLOSEDFILLED
 10
-52.0
 20
150.0
 30
0.0
 41
0.25
 42
0.25
 50
90.0
  0
LINE
  5
E1
330
D8
100
AcDbEntity
  8
0
100
AcDbLine
 10
-52.0
 20
90.25
 30
0.0
 11
-52.0
 21
119.0
 31
0.0
  0
LINE
  5
E2
330
D8
100
AcDbEntity
  8
0
100
AcDbLine
 10
-52.0
 20
121.0
 30
0.0
 11
-52.0
 21
149.75
 31
0.0
  0
MTEXT
  5
E3
330
D8
100
AcDbEntity
  8
DIMENSIONS
100
AcDbMText
 10
-52.0
 20
120.0
 30
0.0
 40
1.0
 71
5
  1
60
 50
90.0
  0
POINT
  5
E4
330
D8
100
AcDbEntity
  8
Defpoints
100
AcDbPoint
 10
-52.0
 20
90.0
 30
0.0
  0
POINT
  5
E5
330
D8
100
AcDbEntity
  8
Defpoints
100
AcDbPoint
 10
-60.0
 20
90.0
 30
0.0
  0
POINT
  5
E6
330
D8
100
AcDbEntity
  8
Defpoints
100
AcDbPoint
 10
-60.0
 20
150.0
 30
0.0
  0
ENDBLK
  5
DA
330
D8
100
AcDbEntity
  8
0
100
AcDbBlockEnd
  0
BLOCK
  5
ED
330
EC
100
AcDbEntity
  8
0
100
AcDbBlockBegin
  2
*D5
 70
1
 10
0.0
 20
0.0
 30
0.0
  3
*D5
  1

  0
LINE
  5
EF
330
EC
100
AcDbEntity
  8
0
100
AcDbLine
 10
10.0
 20
210.0
 30
0.0
 11
10.0
 21
202.0
 31
0.0
  0
LINE
  5
F0
330
EC
100
AcDbEntity
  8
0
100
AcDbLine
 10
80.0
 20
210.0
 30
0.0
 11
80.0
 21
202.0
 31
0.0
  0
INSERT
  5
F1
330
EC
100
AcDbEntity
  8
DIMENSIONS
100
AcDbBlockReference
  2
_CLOSEDFILLED
 10
10.0
 20
202.0
 30
0.0
 41
0.25
 42
0.25
 50
180.0
  0
INSERT
  5
F3
330
EC
100
AcDbEntity
  8
DIMENSIONS
100
AcDbBlockReference
  2
_CLOSEDFILLED
 10
80.0
 20
202.0
 30
0.0
 41
0.25
 42
0.25
  0
LINE
  5
F5
330
EC
100
AcDbEntity
  8
0
100
AcDbLine
 10
10.25
 20
202.0
 30
0.0
 11
44.0
 21
202.0
 31
0.0
  0
LINE
  5
F6
330
EC
100
AcDbEntity
  8
0
100
AcDbLine
 10
46.0
 20
202.0
 30
0.0
 11
79.75
 21
202.0
 31
0.0
  0
MTEXT
  5
F7
330
EC
100
AcDbEntity
  8
DIMENSIONS
100
AcDbMText
 10
45.0
 20
202.0
 30
0.0
 40
1.0
 71
5
  1
70
  0
POINT
  5
F8
330
EC
100
AcDbEntity
  8
Defpoints
100
AcDbPoint
 10
10.0
 20
202.0
 30
0.0
  0
POINT
  5
F9
330
EC
100
AcDbEntity
  8
Defpoints
100
AcDbPoint
 10
10.0
 20
210.0
 30
0.0
  0
POINT
  5
FA
330
EC
100
AcDbEntity
  8
Defpoints
100
AcDbPoint
 10
80.0
 20
210.0
 30
0.0
  0
ENDBLK
  5
EE
330
EC
100
AcDbEntity
  8
0
100
AcDbBlockEnd
  0
BLOCK
  5
FD
330
FC
100
AcDbEntity
  8
0
100
AcDbBlockBegin
  2
*D6
 70
1
 10
0.0
 20
0.0
 30
0.0
  3
*D6
  1

  0
LINE
  5
FF
330
FC
100
AcDbEntity
  8
0
100
AcDbLine
 10
80.0
 20
210.0
 30
0.0
 11
88.0
 21
210.0
 31
0.0
  0
LINE
  5
100
330
FC
100
AcDbEntity
  8
0
100
AcDbLine
 10
80.0
 20
260.0
 30
0.0
 11
88.0
 21
260.0
 31
0.0
  0
INSERT
  5
101
330
FC
100
AcDbEntity
  8
DIMENSIONS
100
AcDbBlockReference
  2
_CLOSEDFILLED
 10
88.0
 20
210.0
 30
0.0
 41
0.25
 42
0.25
 50
270.0
  0
INSERT
  5
103
330
FC
100
AcDbEntity
  8
DIMENSIONS
100
AcDbBlockReference
  2
_CLOSEDFILLED
 10
88.0
 20
260.0
 30
0.0
 41
0.25
 42
0.25
 50
90.0
  0
LINE
  5
105
330
FC
100
AcDbEntity
  8
0
100
AcDbLine
 10
88.0
 20
210.25
 30
0.0
 11
88.0
 21
234.0
 31
0.0
  0
LINE
  5
106
330
FC
100
AcDbEntity
  8
0
100
AcDbLine
 10
88.0
 20
236.0
 30
0.0
 11
88.0
 21
259.75
 31
0.0
  0
MTEXT
  5
107
330
FC
100
AcDbEntity
  8
DIMENSIONS
100
AcDbMText
 10
88.0
 20
235.0
 30
0.0
 40
1.0
 71
5
  1
50
 50
90.0
  0
POINT
  5
108
330
FC
100
AcDbEntity
  8
Defpoints
100
AcDbPoint
 10
88.0
 20
210.0
 30
0.0
  0
POINT
  5
109
330
FC
100
AcDbEntity
  8
Defpoints
100
AcDbPoint
 10
80.0
 20
210.0
 30
0.0
  0
POINT
  5
10A
330
FC
100
AcDbEntity
  8
Defpoints
100
AcDbPoint
 10
80.0
 20
260.0
 30
0.0
  0
ENDBLK
  5
FE
330
FC
100
AcDbEntity
  8
0
100
AcDbBlockEnd
  0
BLOCK
  5
111
330
110
100
AcDbEntity
  8
0
100
AcDbBlockBegin
  2
*D7
 70
1
 10
0.0
 20
0.0
 30
0.0
  3
*D7
  1

  0
LINE
  5
113
330
110
100
AcDbEntity
  8
0
100
AcDbLine
 10
110.0
 20
260.0
 30
0.0
 11
110.0
 21
252.0
 31
0.0
  0
LINE
  5
114
330
110
100
AcDbEntity
  8
0
100
AcDbLine
 10
190.0
 20
260.0
 30
0.0
 11
190.0
 21
252.0
 31
0.0
  0
INSERT
  5
115
330
110
100
AcDbEntity
  8
DIMENSIONS
100
AcDbBlockReference
  2
_CLOSEDFILLED
 10
110.0
 20
252.0
 30
0.0
 41
0.25
 42
0.25
 50
180.0
  0
INSERT
  5
117
330
110
100
AcDbEntity
  8
DIMENSIONS
100
AcDbBlockReference
  2
_CLOSEDFILLED
 10
190.0
 20
252.0
 30
0.0
 41
0.25
 42
0.25
  0
LINE
  5
119
330
110
100
AcDbEntity
  8
0
100
AcDbLine
 10
110.25
 20
252.0
 30
0.0
 11
149.0
 21
252.0
 31
0.0
  0
LINE
  5
11A
330
110
100
AcDbEntity
  8
0
100
AcDbLine
 10
151.0
 20
252.0
 30
0.0
 11
189.75
 21
252.0
 31
0.0
  0
MTEXT
  5
11B
330
110
100
AcDbEntity
  8
DIMENSIONS
100
AcDbMText
 10
150.0
 20
252.0
 30
0.0
 40
1.0
 71
5
  1
80
  0
POINT
  5
11C
330
110
100
AcDbEntity
  8
Defpoints
100
AcDbPoint
 10
110.0
 20
252.0
 30
0.0
  0
POINT
  5
11D
330
110
100
AcDbEntity
  8
Defpoints
100
AcDbPoint
 10
110.0
 20
260.0
 30
0.0
  0
POINT
  5
11E
330
110
100
AcDbEntity
  8
Defpoints
100
AcDbPoint
 10
190.0
 20
260.0
 30
0.0
  0
ENDBLK
  5
112
330
110
100
AcDbEntity
  8
0
100
AcDbBlockEnd
  0
BLOCK
  5
121
330
120
100
AcDbEntity
  8
0
100
AcDbBlockBegin
  2
*D8
 70
1
 10
0.0
 20
0.0
 30
0.0
  3
*D8
  1

  0
LINE
  5
123
330
120
100
AcDbEntity
  8
0
100
AcDbLine
 10
190.0
 20
260.0
 30
0.0
 11
198.0
 21
260.0
 31
0.0
  0
LINE
  5
124
330
120
100
AcDbEntity
  8
0
100
AcDbLine
 10
190.0
 20
310.0
 30
0.0
 11
198.0
 21
310.0
 31
0.0
  0
INSERT
  5
125
330
120
100
AcDbEntity
  8
DIMENSIONS
100
AcDbBlockReference
  2
_CLOSEDFILLED
 10
198.0
 20
260.0
 30
0.0
 41
0.25
 42
0.25
 50
270.0
  0
INSERT
  5
127
330
120
100
AcDbEntity
  8
DIMENSIONS
100
AcDbBlockReference
  2
_CLOSEDFILLED
 10
198.0
 20
310.0
 30
0.0
 41
0.25
 42
0.25
 50
90.0
  0
LINE
  5
129
330
120
100
AcDbEntity
  8
0
100
AcDbLine
 10
198.0
 20
260.25
 30
0.0
 11
198.0
 21
284.0
 31
0.0
  0
LINE
  5
12A
330
120
100
AcDbEntity
  8
0
100
AcDbLine
 10
198.0
 20
286.0
 30
0.0
 11
198.0
 21
309.75
 31
0.0
  0
MTEXT
  5
12B
330
120
100
AcDbEntity
  8
DIMENSIONS
100
AcDbMText
 10
198.0
 20
285.0
 30
0.0
 40
1.0
 71
5
  1
50
 50
90.0
  0
POINT
  5
12C
330
120
100
AcDbEntity
  8
Defpoints
100
AcDbPoint
 10
198.0
 20
260.0
 30
0.0
  0
POINT
  5
12D
330
120
100
AcDbEntity
  8
Defpoints
100
AcDbPoint
 10
190.0
 20
260.0
 30
0.0
  0
POINT
  5
12E
330
120
100
AcDbEntity
  8
Defpoints
100
AcDbPoint
 10
190.0
 20
310.0
 30
0.0
  0
ENDBLK
  5
122
330
120
100
AcDbEntity
  8
0
100
AcDbBlockEnd
  0
BLOCK
  5
135
330
134
100
AcDbEntity
  8
0
100
AcDbBlockBegin
  2
*D9
 70
1
 10
0.0
 20
0.0
 30
0.0
  3
*D9
  1

  0
LINE
  5
137
330
134
100
AcDbEntity
  8
0
100
AcDbLine
 10
25.0
 20
90.0
 30
0.0
 11
25.0
 21
82.0
 31
0.0
  0
LINE
  5
138
330
134
100
AcDbEntity
  8
0
100
AcDbLine
 10
140.0
 20
90.0
 30
0.0
 11
140.0
 21
82.0
 31
0.0
  0
INSERT
  5
139
330
134
100
AcDbEntity
  8
DIMENSIONS
100
AcDbBlockReference
  2
_CLOSEDFILLED
 10
25.0
 20
82.0
 30
0.0
 41
0.25
 42
0.25
 50
180.0
  0
INSERT
  5
13B
330
134
100
AcDbEntity
  8
DIMENSIONS
100
AcDbBlockReference
  2
_CLOSEDFILLED
 10
140.0
 20
82.0
 30
0.0
 41
0.25
 42
0.25
  0
LINE
  5
13D
330
134
100
AcDbEntity
  8
0
100
AcDbLine
 10
25.25
 20
82.0
 30
0.0
 11
81.0
 21
82.0
 31
0.0
  0
LINE
  5
13E
330
134
100
AcDbEntity
  8
0
100
AcDbLine
 10
84.0
 20
82.0
 30
0.0
 11
139.75
 21
82.0
 31
0.0
  0
MTEXT
  5
13F
330
134
100
AcDbEntity
  8
DIMENSIONS
100
AcDbMText
 10
82.5
 20
82.0
 30
0.0
 40
1.0
 71
5
  1
115
  0
POINT
  5
140
330
134
100
AcDbEntity
  8
Defpoints
100
AcDbPoint
 10
25.0
 20
82.0
 30
0.0
  0
POINT
  5
141
330
134
100
AcDbEntity
  8
Defpoints
100
AcDbPoint
 10
25.0
 20
90.0
 30
0.0
  0
POINT
  5
142
330
134
100
AcDbEntity
  8
Defpoints
100
AcDbPoint
 10
140.0
 20
90.0
 30
0.0
  0
ENDBLK
  5
136
330
134
100
AcDbEntity
  8
0
100
AcDbBlockEnd
  0
BLOCK
  5
145
330
144
100
AcDbEntity
  8
0
100
AcDbBlockBegin
  2
*D10
 70
1
 10
0.0
 20
0.0
 30
0.0
  3
*D10
  1

  0
LINE
  5
147
330
144
100
AcDbEntity
  8
0
100
AcDbLine
 10
140.0
 20
90.0
 30
0.0
 11
148.0
 21
90.0
 31
0.0
  0
LINE
  5
148
330
144
100
AcDbEntity
  8
0
100
AcDbLine
 10
140.0
 20
150.0
 30
0.0
 11
148.0
 21
150.0
 31
0.0
  0
INSERT
  5
149
330
144
100
AcDbEntity
  8
DIMENSIONS
100
AcDbBlockReference
  2
_CLOSEDFILLED
 10
148.0
 20
90.0
 30
0.0
 41
0.25
 42
0.25
 50
270.0
  0
INSERT
  5
14B
330
144
100
AcDbEntity
  8
DIMENSIONS
100
AcDbBlockReference
  2
_CLOSEDFILLED
 10
148.0
 20
150.0
 30
0.0
 41
0.25
 42
0.25
 50
90.0
  0
LINE
  5
14D
330
144
100
AcDbEntity
  8
0
100
AcDbLine
 10
148.0
 20
90.25
 30
0.0
 11
148.0
 21
119.0
 31
0.0
  0
LINE
  5
14E
330
144
100
AcDbEntity
  8
0
100
AcDbLine
 10
148.0
 20
121.0
 30
0.0
 11
148.0
 21
149.75
 31
0.0
  0
MTEXT
  5
14F
330
144
100
AcDbEntity
  8
DIMENSIONS
100
AcDbMText
 10
148.0
 20
120.0
 30
0.0
 40
1.0
 71
5
  1
60
 50
90.0
  0
POINT
  5
150
330
144
100
AcDbEntity
  8
Defpoints
100
AcDbPoint
 10
148.0
 20
90.0
 30
0.0
  0
POINT
  5
151
330
144
100
AcDbEntity
  8
Defpoints
100
AcDbPoint
 10
140.0
 20
90.0
 30
0.0
  0
POINT
  5
152
330
144
100
AcDbEntity
  8
Defpoints
100
AcDbPoint
 10
140.0
 20
150.0
 30
0.0
  0
ENDBLK
  5
146
330
144
100
AcDbEntity
  8
0
100
AcDbBlockEnd
  0
BLOCK
  5
159
330
158
100
AcDbEntity
  8
0
100
AcDbBlockBegin
  2
*D11
 70
1
 10
0.0
 20
0.0
 30
0.0
  3
*D11
  1

  0
LINE
  5
15B
330
158
100
AcDbEntity
  8
0
100
AcDbLine
 10
-30.0
 20
10.0
 30
0.0
 11
-30.0
 21
2.0
 31
0.0
  0
LINE
  5
15C
330
158
100
AcDbEntity
  8
0
100
AcDbLine
 10
45.0
 20
10.0
 30
0.0
 11
45.0
 21
2.0
 31
0.0
  0
INSERT
  5
15D
330
158
100
AcDbEntity
  8
DIMENSIONS
100
AcDbBlockReference
  2
_CLOSEDFILLED
 10
-30.0
 20
2.0
 30
0.0
 41
0.25
 42
0.25
 50
180.0
  0
INSERT
  5
15F
330
158
100
AcDbEntity
  8
DIMENSIONS
100
AcDbBlockReference
  2
_CLOSEDFILLED
 10
45.0
 20
2.0
 30
0.0
 41
0.25
 42
0.25
  0
LINE
  5
161
330
158
100
AcDbEntity
  8
0
100
AcDbLine
 10
-29.75
 20
2.0
 30
0.0
 11
6.5
 21
2.0
 31
0.0
  0
LINE
  5
162
330
158
100
AcDbEntity
  8
0
100
AcDbLine
 10
8.5
 20
2.0
 30
0.0
 11
44.75
 21
2.0
 31
0.0
  0
MTEXT
  5
163
330
158
100
AcDbEntity
  8
DIMENSIONS
100
AcDbMText
 10
7.5
 20
2.0
 30
0.0
 40
1.0
 71
5
  1
75
  0
POINT
  5
164
330
158
100
AcDbEntity
  8
Defpoints
100
AcDbPoint
 10
-30.0
 20
2.0
 30
0.0
  0
POINT
  5
165
330
158
100
AcDbEntity
  8
Defpoints
100
AcDbPoint
 10
-30.0
 20
10.0
 30
0.0
  0
POINT
  5
166
330
158
100
AcDbEntity
  8
Defpoints
100
AcDbPoint
 10
45.0
 20
10.0
 30
0.0
  0
ENDBLK
  5
15A
330
158
100
AcDbEntity
  8
0
100
AcDbBlockEnd
  0
BLOCK
  5
169
330
168
100
AcDbEntity
  8
0
100
AcDbBlockBegin
  2
*D12
 70
1
 10
0.0
 20
0.0
 30
0.0
  3
*D12
  1

  0
LINE
  5
16B
330
168
100
AcDbEntity
  8
0
100
AcDbLine
 10
45.0
 20
10.0
 30
0.0
 11
53.0
 21
10.0
 31
0.0
  0
LINE
  5
16C
330
168
100
AcDbEntity
  8
0
100
AcDbLine
 10
45.0
 20
45.0
 30
0.0
 11
53.0
 21
45.0
 31
0.0
  0
INSERT
  5
16D
330
168
100
AcDbEntity
  8
DIMENSIONS
100
AcDbBlockReference
  2
_CLOSEDFILLED
 10
53.0
 20
10.0
 30
0.0
 41
0.25
 42
0.25
 50
270.0
  0
INSERT
  5
16F
330
168
100
AcDbEntity
  8
DIMENSIONS
100
AcDbBlockReference
  2
_CLOSEDFILLED
 10
53.0
 20
45.0
 30
0.0
 41
0.25
 42
0.25
 50
90.0
  0
LINE
  5
171
330
168
100
AcDbEntity
  8
0
100
AcDbLine
 10
53.0
 20
10.25
 30
0.0
 11
53.0
 21
26.5
 31
0.0
  0
LINE
  5
172
330
168
100
AcDbEntity
  8
0
100
AcDbLine
 10
53.0
 20
28.5
 30
0.0
 11
53.0
 21
44.75
 31
0.0
  0
MTEXT
  5
173
330
168
100
AcDbEntity
  8
DIMENSIONS
100
AcDbMText
 10
53.0
 20
27.5
 30
0.0
 40
1.0
 71
5
  1
35
 50
90.0
  0
POINT
  5
174
330
168
100
AcDbEntity
  8
Defpoints
100
AcDbPoint
 10
53.0
 20
10.0
 30
0.0
  0
POINT
  5
175
330
168
100
AcDbEntity
  8
Defpoints
100
AcDbPoint
 10
45.0
 20
10.0
 30
0.0
  0
POINT
  5
176
330
168
100
AcDbEntity
  8
Defpoints
100
AcDbPoint
 10
45.0
 20
45.0
 30
0.0
  0
ENDBLK
  5
16A
330
168
100
AcDbEntity
  8
0
100
AcDbBlockEnd
  0
BLOCK
  5
17D
330
17C
100
AcDbEntity
  8
0
100
AcDbBlockBegin
  2
*D13
 70
1
 10
0.0
 20
0.0
 30
0.0
  3
*D13
  1

  0
LINE
  5
17F
330
17C
100
AcDbEntity
  8
0
100
AcDbLine
 10
-30.0
 20
300.0
 30
0.0
 11
-30.0
 21
292.0
 31
0.0
  0
LINE
  5
180
330
17C
100
AcDbEntity
  8
0
100
AcDbLine
 10
25.0
 20
300.0
 30
0.0
 11
25.0
 21
292.0
 31
0.0
  0
INSERT
  5
181
330
17C
100
AcDbEntity
  8
DIMENSIONS
100
AcDbBlockReference
  2
_CLOSEDFILLED
 10
-30.0
 20
292.0
 30
0.0
 41
0.25
 42
0.25
 50
180.0
  0
INSERT
  5
183
330
17C
100
AcDbEntity
  8
DIMENSIONS
100
AcDbBlockReference
  2
_CLOSEDFILLED
 10
25.0
 20
292.0
 30
0.0
 41
0.25
 42
0.25
  0
LINE
  5
185
330
17C
100
AcDbEntity
  8
0
100
AcDbLine
 10
-29.75
 20
292.0
 30
0.0
 11
-3.5
 21
292.0
 31
0.0
  0
LINE
  5
186
330
17C
100
AcDbEntity
  8
0
100
AcDbLine
 10
-1.5
 20
292.0
 30
0.0
 11
24.75
 21
292.0
 31
0.0
  0
MTEXT
  5
187
330
17C
100
AcDbEntity
  8
DIMENSIONS
100
AcDbMText
 10
-2.5
 20
292.0
 30
0.0
 40
1.0
 71
5
  1
55
  0
POINT
  5
188
330
17C
100
AcDbEntity
  8
Defpoints
100
AcDbPoint
 10
-30.0
 20
292.0
 30
0.0
  0
POINT
  5
189
330
17C
100
AcDbEntity
  8
Defpoints
100
AcDbPoint
 10
-30.0
 20
300.0
 30
0.0
  0
POINT
  5
18A
330
17C
100
AcDbEntity
  8
Defpoints
100
AcDbPoint
 10
25.0
 20
300.0
 30
0.0
  0
ENDBLK
  5
17E
330
17C
100
AcDbEntity
  8
0
100
AcDbBlockEnd
  0
BLOCK
  5
18D
330
18C
100
AcDbEntity
  8
0
100
AcDbBlockBegin
  2
*D14
 70
1
 10
0.0
 20
0.0
 30
0.0
  3
*D14
  1

  0
LINE
  5
18F
330
18C
100
AcDbEntity
  8
0
100
AcDbLine
 10
25.0
 20
300.0
 30
0.0
 11
33.0
 21
300.0
 31
0.0
  0
LINE
  5
190
330
18C
100
AcDbEntity
  8
0
100
AcDbLine
 10
25.0
 20
340.0
 30
0.0
 11
33.0
 21
340.0
 31
0.0
  0
INSERT
  5
191
330
18C
100
AcDbEntity
  8
DIMENSIONS
100
AcDbBlockReference
  2
_CLOSEDFILLED
 10
33.0
 20
300.0
 30
0.0
 41
0.25
 42
0.25
 50
270.0
  0
INSERT
  5
193
330
18C
100
AcDbEntity
  8
DIMENSIONS
100
AcDbBlockReference
  2
_CLOSEDFILLED
 10
33.0
 20
340.0
 30
0.0
 41
0.25
 42
0.25
 50
90.0
  0
LINE
  5
195
330
18C
100
AcDbEntity
  8
0
100
AcDbLine
 10
33.0
 20
300.25
 30
0.0
 11
33.0
 21
319.0
 31
0.0
  0
LINE
  5
196
330
18C
100
AcDbEntity
  8
0
100
AcDbLine
 10
33.0
 20
321.0
 30
0.0
 11
33.0
 21
339.75
 31
0.0
  0
MTEXT
  5
197
330
18C
100
AcDbEntity
  8
DIMENSIONS
100
AcDbMText
 10
33.0
 20
320.0
 30
0.0
 40
1.0
 71
5
  1
40
 50
90.0
  0
POINT
  5
198
330
18C
100
AcDbEntity
  8
Defpoints
100
AcDbPoint
 10
33.0
 20
300.0
 30
0.0
  0
POINT
  5
199
330
18C
100
AcDbEntity
  8
Defpoints
100
AcDbPoint
 10
25.0
 20
300.0
 30
0.0
  0
POINT
  5
19A
330
18C
100
AcDbEntity
  8
Defpoints
100
AcDbPoint
 10
25.0
 20
340.0
 30
0.0
  0
ENDBLK
  5
18E
330
18C
100
AcDbEntity
  8
0
100
AcDbBlockEnd
  0
BLOCK
  5
1A1
330
1A0
100
AcDbEntity
  8
0
100
AcDbBlockBegin
  2
*D15
 70
1
 10
0.0
 20
0.0
 30
0.0
  3
*D15
  1

  0
LINE
  5
1A3
330
1A0
100
AcDbEntity
  8
0
100
AcDbLine
 10
175.0
 20
190.0
 30
0.0
 11
175.0
 21
182.0
 31
0.0
  0
LINE
  5
1A4
330
1A0
100
AcDbEntity
  8
0
100
AcDbLine
 10
245.0
 20
190.0
 30
0.0
 11
245.0
 21
182.0
 31
0.0
  0
INSERT
  5
1A5
330
1A0
100
AcDbEntity
  8
DIMENSIONS
100
AcDbBlockReference
  2
_CLOSEDFILLED
 10
175.0
 20
182.0
 30
0.0
 41
0.25
 42
0.25
 50
180.0
  0
INSERT
  5
1A7
330
1A0
100
AcDbEntity
  8
DIMENSIONS
100
AcDbBlockReference
  2
_CLOSEDFILLED
 10
245.0
 20
182.0
 30
0.0
 41
0.25
 42
0.25
  0
LINE
  5
1A9
330
1A0
100
AcDbEntity
  8
0
100
AcDbLine
 10
175.25
 20
182.0
 30
0.0
 11
209.0
 21
182.0
 31
0.0
  0
LINE
  5
1AA
330
1A0
100
AcDbEntity
  8
0
100
AcDbLine
 10
211.0
 20
182.0
 30
0.0
 11
244.75
 21
182.0
 31
0.0
  0
MTEXT
  5
1AB
330
1A0
100
AcDbEntity
  8
DIMENSIONS
100
AcDbMText
 10
210.0
 20
182.0
 30
0.0
 40
1.0
 71
5
  1
70
  0
POINT
  5
1AC
330
1A0
100
AcDbEntity
  8
Defpoints
100
AcDbPoint
 10
175.0
 20
182.0
 30
0.0
  0
POINT
  5
1AD
330
1A0
100
AcDbEntity
  8
Defpoints
100
AcDbPoint
 10
175.0
 20
190.0
 30
0.0
  0
POINT
  5
1AE
330
1A0
100
AcDbEntity
  8
Defpoints
100
AcDbPoint
 10
245.0
 20
190.0
 30
0.0
  0
ENDBLK
  5
1A2
330
1A0
100
AcDbEntity
  8
0
100
AcDbBlockEnd
  0
BLOCK
  5
1B1
330
1B0
100
AcDbEntity
  8
0
100
AcDbBlockBegin
  2
*D16
 70
1
 10
0.0
 20
0.0
 30
0.0
  3
*D16
  1

  0
LINE
  5
1B3
330
1B0
100
AcDbEntity
  8
0
100
AcDbLine
 10
245.0
 20
190.0
 30
0.0
 11
253.0
 21
190.0
 31
0.0
  0
LINE
  5
1B4
330
1B0
100
AcDbEntity
  8
0
100
AcDbLine
 10
245.0
 20
250.0
 30
0.0
 11
253.0
 21
250.0
 31
0.0
  0
INSERT
  5
1B5
330
1B0
100
AcDbEntity
  8
DIMENSIONS
100
AcDbBlockReference
  2
_CLOSEDFILLED
 10
253.0
 20
190.0
 30
0.0
 41
0.25
 42
0.25
 50
270.0
  0
INSERT
  5
1B7
330
1B0
100
AcDbEntity
  8
DIMENSIONS
100
AcDbBlockReference
  2
_CLOSEDFILLED
 10
253.0
 20
250.0
 30
0.0
 41
0.25
 42
0.25
 50
90.0
  0
LINE
  5
1B9
330
1B0
100
AcDbEntity
  8
0
100
AcDbLine
 10
253.0
 20
190.25
 30
0.0
 11
253.0
 21
219.0
 31
0.0
  0
LINE
  5
1BA
330
1B0
100
AcDbEntity
  8
0
100
AcDbLine
 10
253.0
 20
221.0
 30
0.0
 11
253.0
 21
249.75
 31
0.0
  0
MTEXT
  5
1BB
330
1B0
100
AcDbEntity
  8
DIMENSIONS
100
AcDbMText
 10
253.0
 20
220.0
 30
0.0
 40
1.0
 71
5
  1
60
 50
90.0
  0
POINT
  5
1BC
330
1B0
100
AcDbEntity
  8
Defpoints
100
AcDbPoint
 10
253.0
 20
190.0
 30
0.0
  0
POINT
  5
1BD
330
1B0
100
AcDbEntity
  8
Defpoints
100
AcDbPoint
 10
245.0
 20
190.0
 30
0.0
  0
POINT
  5
1BE
330
1B0
100
AcDbEntity
  8
Defpoints
100
AcDbPoint
 10
245.0
 20
250.0
 30
0.0
  0
ENDBLK
  5
1B2
330
1B0
100
AcDbEntity
  8
0
100
AcDbBlockEnd
  0
BLOCK
  5
1C5
330
1C4
100
AcDbEntity
  8
0
100
AcDbBlockBegin
  2
*D17
 70
1
 10
0.0
 20
0.0
 30
0.0
  3
*D17
  1

  0
LINE
  5
1C7
330
1C4
100
AcDbEntity
  8
0
100
AcDbLine
 10
150.0
 20
35.0
 30
0.0
 11
150.0
 21
27.0
 31
0.0
  0
LINE
  5
1C8
330
1C4
100
AcDbEntity
  8
0
100
AcDbLine
 10
215.0
 20
35.0
 30
0.0
 11
215.0
 21
27.0
 31
0.0
  0
INSERT
  5
1C9
330
1C4
100
AcDbEntity
  8
DIMENSIONS
100
AcDbBlockReference
  2
_CLOSEDFILLED
 10
150.0
 20
27.0
 30
0.0
 41
0.25
 42
0.25
 50
180.0
  0
INSERT
  5
1CB
330
1C4
100
AcDbEntity
  8
DIMENSIONS
100
AcDbBlockReference
  2
_CLOSEDFILLED
 10
215.0
 20
27.0
 30
0.0
 41
0.25
 42
0.25
  0
LINE
  5
1CD
330
1C4
100
AcDbEntity
  8
0
100
AcDbLine
 10
150.25
 20
27.0
 30
0.0
 11
181.5
 21
27.0
 31
0.0
  0
LINE
  5
1CE
330
1C4
100
AcDbEntity
  8
0
100
AcDbLine
 10
183.5
 20
27.0
 30
0.0
 11
214.75
 21
27.0
 31
0.0
  0
MTEXT
  5
1CF
330
1C4
100
AcDbEntity
  8
DIMENSIONS
100
AcDbMText
 10
182.5
 20
27.0
 30
0.0
 40
1.0
 71
5
  1
65
  0
POINT
  5
1D0
330
1C4
100
AcDbEntity
  8
Defpoints
100
AcDbPoint
 10
150.0
 20
27.0
 30
0.0
  0
POINT
  5
1D1
330
1C4
100
AcDbEntity
  8
Defpoints
100
AcDbPoint
 10
150.0
 20
35.0
 30
0.0
  0
POINT
  5
1D2
330
1C4
100
AcDbEntity
  8
Defpoints
100
AcDbPoint
 10
215.0
 20
35.0
 30
0.0
  0
ENDBLK
  5
1C6
330
1C4
100
AcDbEntity
  8
0
100
AcDbBlockEnd
  0
BLOCK
  5
1D5
330
1D4
100
AcDbEntity
  8
0
100
AcDbBlockBegin
  2
*D18
 70
1
 10
0.0
 20
0.0
 30
0.0
  3
*D18
  1

  0
LINE
  5
1D7
330
1D4
100
AcDbEntity
  8
0
100
AcDbLine
 10
215.0
 20
35.0
 30
0.0
 11
223.0
 21
35.0
 31
0.0
  0
LINE
  5
1D8
330
1D4
100
AcDbEntity
  8
0
100
AcDbLine
 10
215.0
 20
80.0
 30
0.0
 11
223.0
 21
80.0
 31
0.0
  0
INSERT
  5
1D9
330
1D4
100
AcDbEntity
  8
DIMENSIONS
100
AcDbBlockReference
  2
_CLOSEDFILLED
 10
223.0
 20
35.0
 30
0.0
 41
0.25
 42
0.25
 50
270.0
  0
INSERT
  5
1DB
330
1D4
100
AcDbEntity
  8
DIMENSIONS
100
AcDbBlockReference
  2
_CLOSEDFILLED
 10
223.0
 20
80.0
 30
0.0
 41
0.25
 42
0.25
 50
90.0
  0
LINE
  5
1DD
330
1D4
100
AcDbEntity
  8
0
100
AcDbLine
 10
223.0
 20
35.25
 30
0.0
 11
223.0
 21
56.5
 31
0.0
  0
LINE
  5
1DE
330
1D4
100
AcDbEntity
  8
0
100
AcDbLine
 10
223.0
 20
58.5
 30
0.0
 11
223.0
 21
79.75
 31
0.0
  0
MTEXT
  5
1DF
330
1D4
100
AcDbEntity
  8
DIMENSIONS
100
AcDbMText
 10
223.0
 20
57.5
 30
0.0
 40
1.0
 71
5
  1
45
 50
90.0
  0
POINT
  5
1E0
330
1D4
100
AcDbEntity
  8
Defpoints
100
AcDbPoint
 10
223.0
 20
35.0
 30
0.0
  0
POINT
  5
1E1
330
1D4
100
AcDbEntity
  8
Defpoints
100
AcDbPoint
 10
215.0
 20
35.0
 30
0.0
  0
POINT
  5
1E2
330
1D4
100
AcDbEntity
  8
Defpoints
100
AcDbPoint
 10
215.0
 20
80.0
 30
0.0
  0
ENDBLK
  5
1D6
330
1D4
100
AcDbEntity
  8
0
100
AcDbBlockEnd
  0
ENDSEC
  0
SECTION
  2
ENTITIES
  0
LINE
  5
43
330
17
100
AcDbEntity
  8
GRID
100
AcDbLine
 10
-500.0
 20
-300.0
 30
0.0
 11
-500.0
 21
550.0
 31
0.0
  0
LINE
  5
44
330
17
100
AcDbEntity
  8
GRID
100
AcDbLine
 10
-450.0
 20
-300.0
 30
0.0
 11
-450.0
 21
550.0
 31
0.0
  0
LINE
  5
45
330
17
100
AcDbEntity
  8
GRID
100
AcDbLine
 10
-400.0
 20
-300.0
 30
0.0
 11
-400.0
 21
550.0
 31
0.0
  0
LINE
  5
46
330
17
100
AcDbEntity
  8
GRID
100
AcDbLine
 10
-350.0
 20
-300.0
 30
0.0
 11
-350.0
 21
550.0
 31
0.0
  0
LINE
  5
47
330
17
100
AcDbEntity
  8
GRID
100
AcDbLine
 10
-300.0
 20
-300.0
 30
0.0
 11
-300.0
 21
550.0
 31
0.0
  0
LINE
  5
48
330
17
100
AcDbEntity
  8
GRID
100
AcDbLine
 10
-250.0
 20
-300.0
 30
0.0
 11
-250.0
 21
550.0
 31
0.0
  0
LINE
  5
49
330
17
100
AcDbEntity
  8
GRID
100
AcDbLine
 10
-200.0
 20
-300.0
 30
0.0
 11
-200.0
 21
550.0
 31
0.0
  0
LINE
  5
4A
330
17
100
AcDbEntity
  8
GRID
100
AcDbLine
 10
-150.0
 20
-300.0
 30
0.0
 11
-150.0
 21
550.0
 31
0.0
  0
LINE
  5
4B
330
17
100
AcDbEntity
  8
GRID
100
AcDbLine
 10
-100.0
 20
-300.0
 30
0.0
 11
-100.0
 21
550.0
 31
0.0
  0
LINE
  5
4C
330
17
100
AcDbEntity
  8
GRID
100
AcDbLine
 10
-50.0
 20
-300.0
 30
0.0
 11
-50.0
 21
550.0
 31
0.0
  0
LINE
  5
4D
330
17
100
AcDbEntity
  8
GRID
100
AcDbLine
 10
0.0
 20
-300.0
 30
0.0
 11
0.0
 21
550.0
 31
0.0
  0
LINE
  5
4E
330
17
100
AcDbEntity
  8
GRID
100
AcDbLine
 10
50.0
 20
-300.0
 30
0.0
 11
50.0
 21
550.0
 31
0.0
  0
LINE
  5
4F
330
17
100
AcDbEntity
  8
GRID
100
AcDbLine
 10
100.0
 20
-300.0
 30
0.0
 11
100.0
 21
550.0
 31
0.0
  0
LINE
  5
50
330
17
100
AcDbEntity
  8
GRID
100
AcDbLine
 10
150.0
 20
-300.0
 30
0.0
 11
150.0
 21
550.0
 31
0.0
  0
LINE
  5
51
330
17
100
AcDbEntity
  8
GRID
100
AcDbLine
 10
200.0
 20
-300.0
 30
0.0
 11
200.0
 21
550.0
 31
0.0
  0
LINE
  5
52
330
17
100
AcDbEntity
  8
GRID
100
AcDbLine
 10
250.0
 20
-300.0
 30
0.0
 11
250.0
 21
550.0
 31
0.0
  0
LINE
  5
53
330
17
100
AcDbEntity
  8
GRID
100
AcDbLine
 10
300.0
 20
-300.0
 30
0.0
 11
300.0
 21
550.0
 31
0.0
  0
LINE
  5
54
330
17
100
AcDbEntity
  8
GRID
100
AcDbLine
 10
350.0
 20
-300.0
 30
0.0
 11
350.0
 21
550.0
 31
0.0
  0
LINE
  5
55
330
17
100
AcDbEntity
  8
GRID
100
AcDbLine
 10
400.0
 20
-300.0
 30
0.0
 11
400.0
 21
550.0
 31
0.0
  0
LINE
  5
56
330
17
100
AcDbEntity
  8
GRID
100
AcDbLine
 10
450.0
 20
-300.0
 30
0.0
 11
450.0
 21
550.0
 31
0.0
  0
LINE
  5
57
330
17
100
AcDbEntity
  8
GRID
100
AcDbLine
 10
500.0
 20
-300.0
 30
0.0
 11
500.0
 21
550.0
 31
0.0
  0
LINE
  5
58
330
17
100
AcDbEntity
  8
GRID
100
AcDbLine
 10
550.0
 20
-300.0
 30
0.0
 11
550.0
 21
550.0
 31
0.0
  0
LINE
  5
59
330
17
100
AcDbEntity
  8
GRID
100
AcDbLine
 10
-500.0
 20
-300.0
 30
0.0
 11
600.0
 21
-300.0
 31
0.0
  0
LINE
  5
5A
330
17
100
AcDbEntity
  8
GRID
100
AcDbLine
 10
-500.0
 20
-250.0
 30
0.0
 11
600.0
 21
-250.0
 31
0.0
  0
LINE
  5
5B
330
17
100
AcDbEntity
  8
GRID
100
AcDbLine
 10
-500.0
 20
-200.0
 30
0.0
 11
600.0
 21
-200.0
 31
0.0
  0
LINE
  5
5C
330
17
100
AcDbEntity
  8
GRID
100
AcDbLine
 10
-500.0
 20
-150.0
 30
0.0
 11
600.0
 21
-150.0
 31
0.0
  0
LINE
  5
5D
330
17
100
AcDbEntity
  8
GRID
100
AcDbLine
 10
-500.0
 20
-100.0
 30
0.0
 11
600.0
 21
-100.0
 31
0.0
  0
LINE
  5
5E
330
17
100
AcDbEntity
  8
GRID
100
AcDbLine
 10
-500.0
 20
-50.0
 30
0.0
 11
600.0
 21
-50.0
 31
0.0
  0
LINE
  5
5F
330
17
100
AcDbEntity
  8
GRID
100
AcDbLine
 10
-500.0
 20
0.0
 30
0.0
 11
600.0
 21
0.0
 31
0.0
  0
LINE
  5
60
330
17
100
AcDbEntity
  8
GRID
100
AcDbLine
 10
-500.0
 20
50.0
 30
0.0
 11
600.0
 21
50.0
 31
0.0
  0
LINE
  5
61
330
17
100
AcDbEntity
  8
GRID
100
AcDbLine
 10
-500.0
 20
100.0
 30
0.0
 11
600.0
 21
100.0
 31
0.0
  0
LINE
  5
62
330
17
100
AcDbEntity
  8
GRID
100
AcDbLine
 10
-500.0
 20
150.0
 30
0.0
 11
600.0
 21
150.0
 31
0.0
  0
LINE
  5
63
330
17
100
AcDbEntity
  8
GRID
100
AcDbLine
 10
-500.0
 20
200.0
 30
0.0
 11
600.0
 21
200.0
 31
0.0
  0
LINE
  5
64
330
17
100
AcDbEntity
  8
GRID
100
AcDbLine
 10
-500.0
 20
250.0
 30
0.0
 11
600.0
 21
250.0
 31
0.0
  0
LINE
  5
65
330
17
100
AcDbEntity
  8
GRID
100
AcDbLine
 10
-500.0
 20
300.0
 30
0.0
 11
600.0
 21
300.0
 31
0.0
  0
LINE
  5
66
330
17
100
AcDbEntity
  8
GRID
100
AcDbLine
 10
-500.0
 20
350.0
 30
0.0
 11
600.0
 21
350.0
 31
0.0
  0
LINE
  5
67
330
17
100
AcDbEntity
  8
GRID
100
AcDbLine
 10
-500.0
 20
400.0
 30
0.0
 11
600.0
 21
400.0
 31
0.0
  0
LINE
  5
68
330
17
100
AcDbEntity
  8
GRID
100
AcDbLine
 10
-500.0
 20
450.0
 30
0.0
 11
600.0
 21
450.0
 31
0.0
  0
LINE
  5
69
330
17
100
AcDbEntity
  8
GRID
100
AcDbLine
 10
-500.0
 20
500.0
 30
0.0
 11
600.0
 21
500.0
 31
0.0
  0
LINE
  5
6A
330
17
100
AcDbEntity
  8
GRID
100
AcDbLine
 10
-500.0
 20
550.0
 30
0.0
 11
600.0
 21
550.0
 31
0.0
  0
LINE
  5
6B
330
17
100
AcDbEntity
  8
BOUNDARY
370
50
100
AcDbLine
 10
-200.0
 20
340.0
 30
0.0
 11
-200.0
 21
185.0
 31
0.0
  0
LINE
  5
6C
330
17
100
AcDbEntity
  8
BOUNDARY
370
50
100
AcDbLine
 10
-200.0
 20
185.0
 30
0.0
 11
-195.0
 21
160.0
 31
0.0
  0
LINE
  5
6D
330
17
100
AcDbEntity
  8
BOUNDARY
370
50
100
AcDbLine
 10
-195.0
 20
160.0
 30
0.0
 11
-195.0
 21
100.0
 31
0.0
  0
LINE
  5
6E
330
17
100
AcDbEntity
  8
BOUNDARY
370
50
100
AcDbLine
 10
-195.0
 20
100.0
 30
0.0
 11
-190.0
 21
80.0
 31
0.0
  0
LINE
  5
6F
330
17
100
AcDbEntity
  8
BOUNDARY
370
50
100
AcDbLine
 10
-190.0
 20
80.0
 30
0.0
 11
-195.0
 21
50.0
 31
0.0
  0
LINE
  5
70
330
17
100
AcDbEntity
  8
BOUNDARY
370
50
100
AcDbLine
 10
-195.0
 20
50.0
 30
0.0
 11
-200.0
 21
10.0
 31
0.0
  0
LINE
  5
71
330
17
100
AcDbEntity
  8
BOUNDARY
370
50
100
AcDbLine
 10
-200.0
 20
10.0
 30
0.0
 11
-170.0
 21
-10.0
 31
0.0
  0
LINE
  5
72
330
17
100
AcDbEntity
  8
BOUNDARY
370
50
100
AcDbLine
 10
-170.0
 20
-10.0
 30
0.0
 11
-100.0
 21
-15.0
 31
0.0
  0
LINE
  5
73
330
17
100
AcDbEntity
  8
BOUNDARY
370
50
100
AcDbLine
 10
-100.0
 20
-15.0
 30
0.0
 11
-15.0
 21
-10.0
 31
0.0
  0
LINE
  5
74
330
17
100
AcDbEntity
  8
BOUNDARY
370
50
100
AcDbLine
 10
-15.0
 20
-10.0
 30
0.0
 11
60.0
 21
-5.0
 31
0.0
  0
LINE
  5
75
330
17
100
AcDbEntity
  8
BOUNDARY
370
50
100
AcDbLine
 10
60.0
 20
-5.0
 30
0.0
 11
110.0
 21
-10.0
 31
0.0
  0
LINE
  5
76
330
17
100
AcDbEntity
  8
BOUNDARY
370
50
100
AcDbLine
 10
110.0
 20
-10.0
 30
0.0
 11
160.0
 21
-5.0
 31
0.0
  0
LINE
  5
77
330
17
100
AcDbEntity
  8
BOUNDARY
370
50
100
AcDbLine
 10
160.0
 20
-5.0
 30
0.0
 11
210.0
 21
0.0
 31
0.0
  0
LINE
  5
78
330
17
100
AcDbEntity
  8
BOUNDARY
370
50
100
AcDbLine
 10
210.0
 20
0.0
 30
0.0
 11
235.0
 21
10.0
 31
0.0
  0
LINE
  5
79
330
17
100
AcDbEntity
  8
BOUNDARY
370
50
100
AcDbLine
 10
235.0
 20
10.0
 30
0.0
 11
240.0
 21
50.0
 31
0.0
  0
LINE
  5
7A
330
17
100
AcDbEntity
  8
BOUNDARY
370
50
100
AcDbLine
 10
240.0
 20
50.0
 30
0.0
 11
240.0
 21
160.0
 31
0.0
  0
LINE
  5
7B
330
17
100
AcDbEntity
  8
BOUNDARY
370
50
100
AcDbLine
 10
240.0
 20
160.0
 30
0.0
 11
240.0
 21
235.0
 31
0.0
  0
LINE
  5
7C
330
17
100
AcDbEntity
  8
BOUNDARY
370
50
100
AcDbLine
 10
240.0
 20
235.0
 30
0.0
 11
235.0
 21
320.0
 31
0.0
  0
LINE
  5
7D
330
17
100
AcDbEntity
  8
BOUNDARY
370
50
100
AcDbLine
 10
235.0
 20
320.0
 30
0.0
 11
220.0
 21
340.0
 31
0.0
  0
LINE
  5
7E
330
17
100
AcDbEntity
  8
BOUNDARY
370
50
100
AcDbLine
 10
220.0
 20
340.0
 30
0.0
 11
150.0
 21
345.0
 31
0.0
  0
LINE
  5
7F
330
17
100
AcDbEntity
  8
BOUNDARY
370
50
100
AcDbLine
 10
150.0
 20
345.0
 30
0.0
 11
60.0
 21
340.0
 31
0.0
  0
LINE
  5
80
330
17
100
AcDbEntity
  8
BOUNDARY
370
50
100
AcDbLine
 10
60.0
 20
340.0
 30
0.0
 11
-40.0
 21
340.0
 31
0.0
  0
LINE
  5
81
330
17
100
AcDbEntity
  8
BOUNDARY
370
50
100
AcDbLine
 10
-40.0
 20
340.0
 30
0.0
 11
-115.0
 21
340.0
 31
0.0
  0
LINE
  5
82
330
17
100
AcDbEntity
  8
BOUNDARY
370
50
100
AcDbLine
 10
-115.0
 20
340.0
 30
0.0
 11
-165.0
 21
340.0
 31
0.0
  0
LINE
  5
83
330
17
100
AcDbEntity
  8
BOUNDARY
370
50
100
AcDbLine
 10
-165.0
 20
340.0
 30
0.0
 11
-200.0
 21
340.0
 31
0.0
  0
LINE
  5
84
330
17
100
AcDbEntity
  8
BOUNDARY
370
50
100
AcDbLine
 10
-200.0
 20
340.0
 30
0.0
 11
-200.0
 21
340.0
 31
0.0
  0
LWPOLYLINE
  5
85
330
17
100
AcDbEntity
  8
ROADS
100
AcDbPolyline
 90
5
 70
0
 10
-210.0
 20
271.5
 10
260.0
 20
271.5
 10
260.0
 20
278.5
 10
-210.0
 20
278.5
 10
-210.0
 20
271.5
  0
LINE
  5
86
330
17
100
AcDbEntity
  8
ROADS
  6
DASHED
100
AcDbLine
 10
-210.0
 20
275.0
 30
0.0
 11
260.0
 21
275.0
 31
0.0
  0
LWPOLYLINE
  5
87
330
17
100
AcDbEntity
  8
ROADS
100
AcDbPolyline
 90
5
 70
0
 10
-210.0
 20
171.5
 10
260.0
 20
171.5
 10
260.0
 20
178.5
 10
-210.0
 20
178.5
 10
-210.0
 20
171.5
  0
LINE
  5
88
330
17
100
AcDbEntity
  8
ROADS
  6
DASHED
100
AcDbLine
 10
-210.0
 20
175.0
 30
0.0
 11
260.0
 21
175.0
 31
0.0
  0
LWPOLYLINE
  5
89
330
17
100
AcDbEntity
  8
ROADS
100
AcDbPolyline
 90
5
 70
0
 10
-210.0
 20
66.5
 10
260.0
 20
66.5
 10
260.0
 20
73.5
 10
-210.0
 20
73.5
 10
-210.0
 20
66.5
  0
LINE
  5
8A
330
17
100
AcDbEntity
  8
ROADS
  6
DASHED
100
AcDbLine
 10
-210.0
 20
70.0
 30
0.0
 11
260.0
 21
70.0
 31
0.0
  0
LWPOLYLINE
  5
8B
330
17
100
AcDbEntity
  8
ROADS
100
AcDbPolyline
 90
5
 70
0
 10
-178.0
 20
360.0
 10
-172.0
 20
360.0
 10
-172.0
 20
-30.0
 10
-178.0
 20
-30.0
 10
-178.0
 20
360.0
  0
LINE
  5
8C
330
17
100
AcDbEntity
  8
ROADS
  6
DASHED
100
AcDbLine
 10
-175.0
 20
360.0
 30
0.0
 11
-175.0
 21
-30.0
 31
0.0
  0
LWPOLYLINE
  5
8D
330
17
100
AcDbEntity
  8
ROADS
100
AcDbPolyline
 90
5
 70
0
 10
-43.0
 20
360.0
 10
-37.0
 20
360.0
 10
-37.0
 20
-30.0
 10
-43.0
 20
-30.0
 10
-43.0
 20
360.0
  0
LINE
  5
8E
330
17
100
AcDbEntity
  8
ROADS
  6
DASHED
100
AcDbLine
 10
-40.0
 20
360.0
 30
0.0
 11
-40.0
 21
-30.0
 31
0.0
  0
LWPOLYLINE
  5
8F
330
17
100
AcDbEntity
  8
ROADS
100
AcDbPolyline
 90
5
 70
0
 10
97.0
 20
360.0
 10
103.0
 20
360.0
 10
103.0
 20
-30.0
 10
97.0
 20
-30.0
 10
97.0
 20
360.0
  0
LINE
  5
90
330
17
100
AcDbEntity
  8
ROADS
  6
DASHED
100
AcDbLine
 10
100.0
 20
360.0
 30
0.0
 11
100.0
 21
-30.0
 31
0.0
  0
LWPOLYLINE
  5
91
330
17
100
AcDbEntity
  8
ROADS
100
AcDbPolyline
 90
5
 70
0
 10
247.0
 20
360.0
 10
253.0
 20
360.0
 10
253.0
 20
-30.0
 10
247.0
 20
-30.0
 10
247.0
 20
360.0
  0
LINE
  5
92
330
17
100
AcDbEntity
  8
ROADS
  6
DASHED
100
AcDbLine
 10
250.0
 20
360.0
 30
0.0
 11
250.0
 21
-30.0
 31
0.0
  0
LWPOLYLINE
  5
93
330
17
100
AcDbEntity
  8
ROADS
100
AcDbPolyline
 90
5
 70
0
 10
-210.0
 20
357.5
 10
260.0
 20
357.5
 10
260.0
 20
362.5
 10
-210.0
 20
362.5
 10
-210.0
 20
357.5
  0
LINE
  5
94
330
17
100
AcDbEntity
  8
ROADS
  6
DASHED
100
AcDbLine
 10
-210.0
 20
360.0
 30
0.0
 11
260.0
 21
360.0
 31
0.0
  0
LWPOLYLINE
  5
95
330
17
100
AcDbEntity
  8
ROADS
100
AcDbPolyline
 90
5
 70
0
 10
-210.0
 20
-32.5
 10
260.0
 20
-32.5
 10
260.0
 20
-27.5
 10
-210.0
 20
-27.5
 10
-210.0
 20
-32.5
  0
LINE
  5
96
330
17
100
AcDbEntity
  8
ROADS
  6
DASHED
100
AcDbLine
 10
-210.0
 20
-30.0
 30
0.0
 11
260.0
 21
-30.0
 31
0.0
  0
LWPOLYLINE
  5
97
330
17
100
AcDbEntity
  8
ROADS
100
AcDbPolyline
 90
5
 70
0
 10
-212.5
 20
360.0
 10
-207.5
 20
360.0
 10
-207.5
 20
-30.0
 10
-212.5
 20
-30.0
 10
-212.5
 20
360.0
  0
LINE
  5
98
330
17
100
AcDbEntity
  8
ROADS
  6
DASHED
100
AcDbLine
 10
-210.0
 20
360.0
 30
0.0
 11
-210.0
 21
-30.0
 31
0.0
  0
LWPOLYLINE
  5
99
330
17
100
AcDbEntity
  8
ROADS
100
AcDbPolyline
 90
5
 70
0
 10
257.5
 20
360.0
 10
262.5
 20
360.0
 10
262.5
 20
-30.0
 10
257.5
 20
-30.0
 10
257.5
 20
360.0
  0
LINE
  5
9A
330
17
100
AcDbEntity
  8
ROADS
  6
DASHED
100
AcDbLine
 10
260.0
 20
360.0
 30
0.0
 11
260.0
 21
-30.0
 31
0.0
  0
LWPOLYLINE
  5
9B
330
17
100
AcDbEntity
  8
BUILDINGS_FAB
370
35
100
AcDbPolyline
 90
5
 70
0
 10
-165.0
 20
190.0
 10
-60.0
 20
190.0
 10
-60.0
 20
270.0
 10
-165.0
 20
270.0
 10
-165.0
 20
190.0
  0
HATCH
  5
9C
330
17
100
AcDbEntity
  8
BUILDINGS_FAB
 62
7
100
AcDbHatch
 10
0.0
 20
0.0
 30
0.0
210
0.0
220
0.0
230
1.0
  2
ANSI31
 70
0
 71
0
 91
1
 92
3
 72
0
 73
1
 93
4
 10
-165.0
 20
190.0
 10
-60.0
 20
190.0
 10
-60.0
 20
270.0
 10
-165.0
 20
270.0
 97
0
 75
1
 76
1
 52
0.0
 41
2.0
 77
0
 78
1
 53
45.0
 43
0.0
 44
0.0
 45
-4.4901280606
 46
4.4901280606
 79
0
 98
0
  0
TEXT
  5
9D
330
17
100
AcDbEntity
  8
TEXT_MAIN
100
AcDbText
 10
-112.5
 20
232.0
 30
0.0
 40
6.0
  1
M14A/B
 72
1
 11
-112.5
 21
232.0
 31
0.0
100
AcDbText
 73
2
  0
TEXT
  5
9E
330
17
100
AcDbEntity
  8
TEXT_SUB
100
AcDbText
 10
-112.5
 20
227.0
 30
0.0
 40
2.5
  1
DRAM FAB 8F
 72
1
 11
-112.5
 21
227.0
 31
0.0
100
AcDbText
 73
2
  0
DIMENSION
  5
9F
330
17
100
AcDbEntity
  8
DIMENSIONS
100
AcDbDimension
280
0
  2
*D1
  3
Standard
 10
-165.0
 20
182.0
 30
0.0
 11
-112.5
 21
182.0
 31
0.0
 70
32
 71
5
  1
<>
100
AcDbAlignedDimension
 13
-165.0
 23
190.0
 33
0.0
 14
-60.0
 24
190.0
 34
0.0
 50
0.0
100
AcDbRotatedDimension
  0
DIMENSION
  5
B3
330
17
100
AcDbEntity
  8
DIMENSIONS
100
AcDbDimension
280
0
  2
*D2
  3
Standard
 10
-52.0
 20
190.0
 30
0.0
 11
-52.0
 21
230.0
 31
0.0
 70
32
 71
5
  1
<>
100
AcDbAlignedDimension
 13
-60.0
 23
190.0
 33
0.0
 14
-60.0
 24
270.0
 34
0.0
 50
90.0
100
AcDbRotatedDimension
  0
LWPOLYLINE
  5
C3
330
17
100
AcDbEntity
  8
BUILDINGS_FAB
370
35
100
AcDbPolyline
 90
5
 70
0
 10
-160.0
 20
90.0
 10
-60.0
 20
90.0
 10
-60.0
 20
150.0
 10
-160.0
 20
150.0
 10
-160.0
 20
90.0
  0
HATCH
  5
C4
330
17
100
AcDbEntity
  8
BUILDINGS_FAB
 62
7
100
AcDbHatch
 10
0.0
 20
0.0
 30
0.0
210
0.0
220
0.0
230
1.0
  2
ANSI31
 70
0
 71
0
 91
1
 92
3
 72
0
 73
1
 93
4
 10
-160.0
 20
90.0
 10
-60.0
 20
90.0
 10
-60.0
 20
150.0
 10
-160.0
 20
150.0
 97
0
 75
1
 76
1
 52
0.0
 41
2.0
 77
0
 78
1
 53
45.0
 43
0.0
 44
0.0
 45
-4.4901280606
 46
4.4901280606
 79
0
 98
0
  0
TEXT
  5
C5
330
17
100
AcDbEntity
  8
TEXT_MAIN
100
AcDbText
 10
-110.0
 20
122.0
 30
0.0
 40
6.0
  1
M10A
 72
1
 11
-110.0
 21
122.0
 31
0.0
100
AcDbText
 73
2
  0
TEXT
  5
C6
330
17
100
AcDbEntity
  8
TEXT_SUB
100
AcDbText
 10
-110.0
 20
117.0
 30
0.0
 40
2.5
  1
FAB 5F
 72
1
 11
-110.0
 21
117.0
 31
0.0
100
AcDbText
 73
2
  0
DIMENSION
  5
C7
330
17
100
AcDbEntity
  8
DIMENSIONS
100
AcDbDimension
280
0
  2
*D3
  3
Standard
 10
-160.0
 20
82.0
 30
0.0
 11
-110.0
 21
82.0
 31
0.0
 70
32
 71
5
  1
<>
100
AcDbAlignedDimension
 13
-160.0
 23
90.0
 33
0.0
 14
-60.0
 24
90.0
 34
0.0
 50
0.0
100
AcDbRotatedDimension
  0
DIMENSION
  5
D7
330
17
100
AcDbEntity
  8
DIMENSIONS
100
AcDbDimension
280
0
  2
*D4
  3
Standard
 10
-52.0
 20
90.0
 30
0.0
 11
-52.0
 21
120.0
 31
0.0
 70
32
 71
5
  1
<>
100
AcDbAlignedDimension
 13
-60.0
 23
90.0
 33
0.0
 14
-60.0
 24
150.0
 34
0.0
 50
90.0
100
AcDbRotatedDimension
  0
LWPOLYLINE
  5
E7
330
17
100
AcDbEntity
  8
BUILDINGS_FAB
370
35
100
AcDbPolyline
 90
5
 70
0
 10
10.0
 20
210.0
 10
80.0
 20
210.0
 10
80.0
 20
260.0
 10
10.0
 20
260.0
 10
10.0
 20
210.0
  0
HATCH
  5
E8
330
17
100
AcDbEntity
  8
BUILDINGS_FAB
 62
7
100
AcDbHatch
 10
0.0
 20
0.0
 30
0.0
210
0.0
220
0.0
230
1.0
  2
ANSI31
 70
0
 71
0
 91
1
 92
3
 72
0
 73
1
 93
4
 10
10.0
 20
210.0
 10
80.0
 20
210.0
 10
80.0
 20
260.0
 10
10.0
 20
260.0
 97
0
 75
1
 76
1
 52
0.0
 41
2.0
 77
0
 78
1
 53
45.0
 43
0.0
 44
0.0
 45
-4.4901280606
 46
4.4901280606
 79
0
 98
0
  0
TEXT
  5
E9
330
17
100
AcDbEntity
  8
TEXT_MAIN
100
AcDbText
 10
45.0
 20
237.0
 30
0.0
 40
4.2
  1
M10B/R3
 72
1
 11
45.0
 21
237.0
 31
0.0
100
AcDbText
 73
2
  0
TEXT
  5
EA
330
17
100
AcDbEntity
  8
TEXT_SUB
100
AcDbText
 10
45.0
 20
232.0
 30
0.0
 40
2.5
  1
FAB 5F
 72
1
 11
45.0
 21
232.0
 31
0.0
100
AcDbText
 73
2
  0
DIMENSION
  5
EB
330
17
100
AcDbEntity
  8
DIMENSIONS
100
AcDbDimension
280
0
  2
*D5
  3
Standard
 10
10.0
 20
202.0
 30
0.0
 11
45.0
 21
202.0
 31
0.0
 70
32
 71
5
  1
<>
100
AcDbAlignedDimension
 13
10.0
 23
210.0
 33
0.0
 14
80.0
 24
210.0
 34
0.0
 50
0.0
100
AcDbRotatedDimension
  0
DIMENSION
  5
FB
330
17
100
AcDbEntity
  8
DIMENSIONS
100
AcDbDimension
280
0
  2
*D6
  3
Standard
 10
88.0
 20
210.0
 30
0.0
 11
88.0
 21
235.0
 31
0.0
 70
32
 71
5
  1
<>
100
AcDbAlignedDimension
 13
80.0
 23
210.0
 33
0.0
 14
80.0
 24
260.0
 34
0.0
 50
90.0
100
AcDbRotatedDimension
  0
LWPOLYLINE
  5
10B
330
17
100
AcDbEntity
  8
BUILDINGS_FAB
370
35
100
AcDbPolyline
 90
5
 70
0
 10
110.0
 20
260.0
 10
190.0
 20
260.0
 10
190.0
 20
310.0
 10
110.0
 20
310.0
 10
110.0
 20
260.0
  0
HATCH
  5
10C
330
17
100
AcDbEntity
  8
BUILDINGS_FAB
 62
7
100
AcDbHatch
 10
0.0
 20
0.0
 30
0.0
210
0.0
220
0.0
230
1.0
  2
ANSI31
 70
0
 71
0
 91
1
 92
3
 72
0
 73
1
 93
4
 10
110.0
 20
260.0
 10
190.0
 20
260.0
 10
190.0
 20
310.0
 10
110.0
 20
310.0
 97
0
 75
1
 76
1
 52
0.0
 41
2.0
 77
0
 78
1
 53
45.0
 43
0.0
 44
0.0
 45
-4.4901280606
 46
4.4901280606
 79
0
 98
0
  0
TEXT
  5
10D
330
17
100
AcDbEntity
  8
TEXT_MAIN
100
AcDbText
 10
150.0
 20
287.0
 30
0.0
 40
4.8
  1
M10C
 72
1
 11
150.0
 21
287.0
 31
0.0
100
AcDbText
 73
2
  0
TEXT
  5
10E
330
17
100
AcDbEntity
  8
TEXT_SUB
100
AcDbText
 10
150.0
 20
282.0
 30
0.0
 40
2.5
  1
FAB 5F
 72
1
 11
150.0
 21
282.0
 31
0.0
100
AcDbText
 73
2
  0
DIMENSION
  5
10F
330
17
100
AcDbEntity
  8
DIMENSIONS
100
AcDbDimension
280
0
  2
*D7
  3
Standard
 10
110.0
 20
252.0
 30
0.0
 11
150.0
 21
252.0
 31
0.0
 70
32
 71
5
  1
<>
100
AcDbAlignedDimension
 13
110.0
 23
260.0
 33
0.0
 14
190.0
 24
260.0
 34
0.0
 50
0.0
100
AcDbRotatedDimension
  0
DIMENSION
  5
11F
330
17
100
AcDbEntity
  8
DIMENSIONS
100
AcDbDimension
280
0
  2
*D8
  3
Standard
 10
198.0
 20
260.0
 30
0.0
 11
198.0
 21
285.0
 31
0.0
 70
32
 71
5
  1
<>
100
AcDbAlignedDimension
 13
190.0
 23
260.0
 33
0.0
 14
190.0
 24
310.0
 34
0.0
 50
90.0
100
AcDbRotatedDimension
  0
LWPOLYLINE
  5
12F
330
17
100
AcDbEntity
  8
BUILDINGS_FAB
370
35
100
AcDbPolyline
 90
5
 70
0
 10
25.0
 20
90.0
 10
140.0
 20
90.0
 10
140.0
 20
150.0
 10
25.0
 20
150.0
 10
25.0
 20
90.0
  0
HATCH
  5
130
330
17
100
AcDbEntity
  8
BUILDINGS_FAB
 62
7
100
AcDbHatch
 10
0.0
 20
0.0
 30
0.0
210
0.0
220
0.0
230
1.0
  2
ANSI31
 70
0
 71
0
 91
1
 92
3
 72
0
 73
1
 93
4
 10
25.0
 20
90.0
 10
140.0
 20
90.0
 10
140.0
 20
150.0
 10
25.0
 20
150.0
 97
0
 75
1
 76
1
 52
0.0
 41
2.0
 77
0
 78
1
 53
45.0
 43
0.0
 44
0.0
 45
-4.4901280606
 46
4.4901280606
 79
0
 98
0
  0
TEXT
  5
131
330
17
100
AcDbEntity
  8
TEXT_MAIN
100
AcDbText
 10
82.5
 20
122.0
 30
0.0
 40
6.0
  1
M16A/B
 72
1
 11
82.5
 21
122.0
 31
0.0
100
AcDbText
 73
2
  0
TEXT
  5
132
330
17
100
AcDbEntity
  8
TEXT_SUB
100
AcDbText
 10
82.5
 20
117.0
 30
0.0
 40
2.5
  1
DRAM FAB 11F
 72
1
 11
82.5
 21
117.0
 31
0.0
100
AcDbText
 73
2
  0
DIMENSION
  5
133
330
17
100
AcDbEntity
  8
DIMENSIONS
100
AcDbDimension
280
0
  2
*D9
  3
Standard
 10
25.0
 20
82.0
 30
0.0
 11
82.5
 21
82.0
 31
0.0
 70
32
 71
5
  1
<>
100
AcDbAlignedDimension
 13
25.0
 23
90.0
 33
0.0
 14
140.0
 24
90.0
 34
0.0
 50
0.0
100
AcDbRotatedDimension
  0
DIMENSION
  5
143
330
17
100
AcDbEntity
  8
DIMENSIONS
100
AcDbDimension
280
0
  2
*D10
  3
Standard
 10
148.0
 20
90.0
 30
0.0
 11
148.0
 21
120.0
 31
0.0
 70
32
 71
5
  1
<>
100
AcDbAlignedDimension
 13
140.0
 23
90.0
 33
0.0
 14
140.0
 24
150.0
 34
0.0
 50
90.0
100
AcDbRotatedDimension
  0
LWPOLYLINE
  5
153
330
17
100
AcDbEntity
  8
BUILDINGS_WT
370
35
100
AcDbPolyline
 90
5
 70
0
 10
-30.0
 20
10.0
 10
45.0
 20
10.0
 10
45.0
 20
45.0
 10
-30.0
 20
45.0
 10
-30.0
 20
10.0
  0
HATCH
  5
154
330
17
100
AcDbEntity
  8
BUILDINGS_WT
 62
7
100
AcDbHatch
 10
0.0
 20
0.0
 30
0.0
210
0.0
220
0.0
230
1.0
  2
ANSI31
 70
0
 71
0
 91
1
 92
3
 72
0
 73
1
 93
4
 10
-30.0
 20
10.0
 10
45.0
 20
10.0
 10
45.0
 20
45.0
 10
-30.0
 20
45.0
 97
0
 75
1
 76
1
 52
0.0
 41
2.0
 77
0
 78
1
 53
45.0
 43
0.0
 44
0.0
 45
-4.4901280606
 46
4.4901280606
 79
0
 98
0
  0
TEXT
  5
155
330
17
100
AcDbEntity
  8
TEXT_MAIN
100
AcDbText
 10
7.5
 20
29.5
 30
0.0
 40
4.5
  1
DRAM_WT
 72
1
 11
7.5
 21
29.5
 31
0.0
100
AcDbText
 73
2
  0
TEXT
  5
156
330
17
100
AcDbEntity
  8
TEXT_SUB
100
AcDbText
 10
7.5
 20
24.5
 30
0.0
 40
2.5
  1
WT  4F
 72
1
 11
7.5
 21
24.5
 31
0.0
100
AcDbText
 73
2
  0
DIMENSION
  5
157
330
17
100
AcDbEntity
  8
DIMENSIONS
100
AcDbDimension
280
0
  2
*D11
  3
Standard
 10
-30.0
 20
2.0
 30
0.0
 11
7.5
 21
2.0
 31
0.0
 70
32
 71
5
  1
<>
100
AcDbAlignedDimension
 13
-30.0
 23
10.0
 33
0.0
 14
45.0
 24
10.0
 34
0.0
 50
0.0
100
AcDbRotatedDimension
  0
DIMENSION
  5
167
330
17
100
AcDbEntity
  8
DIMENSIONS
100
AcDbDimension
280
0
  2
*D12
  3
Standard
 10
53.0
 20
10.0
 30
0.0
 11
53.0
 21
27.5
 31
0.0
 70
32
 71
5
  1
<>
100
AcDbAlignedDimension
 13
45.0
 23
10.0
 33
0.0
 14
45.0
 24
45.0
 34
0.0
 50
90.0
100
AcDbRotatedDimension
  0
LWPOLYLINE
  5
177
330
17
100
AcDbEntity
  8
BUILDINGS_PT
370
35
100
AcDbPolyline
 90
5
 70
0
 10
-30.0
 20
300.0
 10
25.0
 20
300.0
 10
25.0
 20
340.0
 10
-30.0
 20
340.0
 10
-30.0
 20
300.0
  0
HATCH
  5
178
330
17
100
AcDbEntity
  8
BUILDINGS_PT
 62
7
100
AcDbHatch
 10
0.0
 20
0.0
 30
0.0
210
0.0
220
0.0
230
1.0
  2
ANSI31
 70
0
 71
0
 91
1
 92
3
 72
0
 73
1
 93
4
 10
-30.0
 20
300.0
 10
25.0
 20
300.0
 10
25.0
 20
340.0
 10
-30.0
 20
340.0
 97
0
 75
1
 76
1
 52
0.0
 41
2.0
 77
0
 78
1
 53
45.0
 43
0.0
 44
0.0
 45
-4.4901280606
 46
4.4901280606
 79
0
 98
0
  0
TEXT
  5
179
330
17
100
AcDbEntity
  8
TEXT_MAIN
100
AcDbText
 10
-2.5
 20
322.0
 30
0.0
 40
3.3
  1
P&T1
 72
1
 11
-2.5
 21
322.0
 31
0.0
100
AcDbText
 73
2
  0
TEXT
  5
17A
330
17
100
AcDbEntity
  8
TEXT_SUB
100
AcDbText
 10
-2.5
 20
317.0
 30
0.0
 40
2.5
  1
P&T 3F
 72
1
 11
-2.5
 21
317.0
 31
0.0
100
AcDbText
 73
2
  0
DIMENSION
  5
17B
330
17
100
AcDbEntity
  8
DIMENSIONS
100
AcDbDimension
280
0
  2
*D13
  3
Standard
 10
-30.0
 20
292.0
 30
0.0
 11
-2.5
 21
292.0
 31
0.0
 70
32
 71
5
  1
<>
100
AcDbAlignedDimension
 13
-30.0
 23
300.0
 33
0.0
 14
25.0
 24
300.0
 34
0.0
 50
0.0
100
AcDbRotatedDimension
  0
DIMENSION
  5
18B
330
17
100
AcDbEntity
  8
DIMENSIONS
100
AcDbDimension
280
0
  2
*D14
  3
Standard
 10
33.0
 20
300.0
 30
0.0
 11
33.0
 21
320.0
 31
0.0
 70
32
 71
5
  1
<>
100
AcDbAlignedDimension
 13
25.0
 23
300.0
 33
0.0
 14
25.0
 24
340.0
 34
0.0
 50
90.0
100
AcDbRotatedDimension
  0
LWPOLYLINE
  5
19B
330
17
100
AcDbEntity
  8
BUILDINGS_PT
370
35
100
AcDbPolyline
 90
5
 70
0
 10
175.0
 20
190.0
 10
245.0
 20
190.0
 10
245.0
 20
250.0
 10
175.0
 20
250.0
 10
175.0
 20
190.0
  0
HATCH
  5
19C
330
17
100
AcDbEntity
  8
BUILDINGS_PT
 62
7
100
AcDbHatch
 10
0.0
 20
0.0
 30
0.0
210
0.0
220
0.0
230
1.0
  2
ANSI31
 70
0
 71
0
 91
1
 92
3
 72
0
 73
1
 93
4
 10
175.0
 20
190.0
 10
245.0
 20
190.0
 10
245.0
 20
250.0
 10
175.0
 20
250.0
 97
0
 75
1
 76
1
 52
0.0
 41
2.0
 77
0
 78
1
 53
45.0
 43
0.0
 44
0.0
 45
-4.4901280606
 46
4.4901280606
 79
0
 98
0
  0
TEXT
  5
19D
330
17
100
AcDbEntity
  8
TEXT_MAIN
100
AcDbText
 10
210.0
 20
222.0
 30
0.0
 40
4.2
  1
P&T4
 72
1
 11
210.0
 21
222.0
 31
0.0
100
AcDbText
 73
2
  0
TEXT
  5
19E
330
17
100
AcDbEntity
  8
TEXT_SUB
100
AcDbText
 10
210.0
 20
217.0
 30
0.0
 40
2.5
  1
P&T 8F
 72
1
 11
210.0
 21
217.0
 31
0.0
100
AcDbText
 73
2
  0
DIMENSION
  5
19F
330
17
100
AcDbEntity
  8
DIMENSIONS
100
AcDbDimension
280
0
  2
*D15
  3
Standard
 10
175.0
 20
182.0
 30
0.0
 11
210.0
 21
182.0
 31
0.0
 70
32
 71
5
  1
<>
100
AcDbAlignedDimension
 13
175.0
 23
190.0
 33
0.0
 14
245.0
 24
190.0
 34
0.0
 50
0.0
100
AcDbRotatedDimension
  0
DIMENSION
  5
1AF
330
17
100
AcDbEntity
  8
DIMENSIONS
100
AcDbDimension
280
0
  2
*D16
  3
Standard
 10
253.0
 20
190.0
 30
0.0
 11
253.0
 21
220.0
 31
0.0
 70
32
 71
5
  1
<>
100
AcDbAlignedDimension
 13
245.0
 23
190.0
 33
0.0
 14
245.0
 24
250.0
 34
0.0
 50
90.0
100
AcDbRotatedDimension
  0
LWPOLYLINE
  5
1BF
330
17
100
AcDbEntity
  8
BUILDINGS_PT
370
35
100
AcDbPolyline
 90
5
 70
0
 10
150.0
 20
35.0
 10
215.0
 20
35.0
 10
215.0
 20
80.0
 10
150.0
 20
80.0
 10
150.0
 20
35.0
  0
HATCH
  5
1C0
330
17
100
AcDbEntity
  8
BUILDINGS_PT
 62
7
100
AcDbHatch
 10
0.0
 20
0.0
 30
0.0
210
0.0
220
0.0
230
1.0
  2
ANSI31
 70
0
 71
0
 91
1
 92
3
 72
0
 73
1
 93
4
 10
150.0
 20
35.0
 10
215.0
 20
35.0
 10
215.0
 20
80.0
 10
150.0
 20
80.0
 97
0
 75
1
 76
1
 52
0.0
 41
2.0
 77
0
 78
1
 53
45.0
 43
0.0
 44
0.0
 45
-4.4901280606
 46
4.4901280606
 79
0
 98
0
  0
TEXT
  5
1C1
330
17
100
AcDbEntity
  8
TEXT_MAIN
100
AcDbText
 10
182.5
 20
59.5
 30
0.0
 40
3.9
  1
P&T5
 72
1
 11
182.5
 21
59.5
 31
0.0
100
AcDbText
 73
2
  0
TEXT
  5
1C2
330
17
100
AcDbEntity
  8
TEXT_SUB
100
AcDbText
 10
182.5
 20
54.5
 30
0.0
 40
2.5
  1
P&T 4F
 72
1
 11
182.5
 21
54.5
 31
0.0
100
AcDbText
 73
2
  0
DIMENSION
  5
1C3
330
17
100
AcDbEntity
  8
DIMENSIONS
100
AcDbDimension
280
0
  2
*D17
  3
Standard
 10
150.0
 20
27.0
 30
0.0
 11
182.5
 21
27.0
 31
0.0
 70
32
 71
5
  1
<>
100
AcDbAlignedDimension
 13
150.0
 23
35.0
 33
0.0
 14
215.0
 24
35.0
 34
0.0
 50
0.0
100
AcDbRotatedDimension
  0
DIMENSION
  5
1D3
330
17
100
AcDbEntity
  8
DIMENSIONS
100
AcDbDimension
280
0
  2
*D18
  3
Standard
 10
223.0
 20
35.0
 30
0.0
 11
223.0
 21
57.5
 31
0.0
 70
32
 71
5
  1
<>
100
AcDbAlignedDimension
 13
215.0
 23
35.0
 33
0.0
 14
215.0
 24
80.0
 34
0.0
 50
90.0
100
AcDbRotatedDimension
  0
LWPOLYLINE
  5
1E3
330
17
100
AcDbEntity
  8
BUILDINGS_AUX
370
25
100
AcDbPolyline
 90
5
 70
0
 10
-375.0
 20
321.0
 10
-325.0
 20
321.0
 10
-325.0
 20
359.0
 10
-375.0
 20
359.0
 10
-375.0
 20
321.0
  0
TEXT
  5
1E4
330
17
100
AcDbEntity
  8
TEXT_SUB
100
AcDbText
 10
-350.0
 20
340.0
 30
0.0
 40
2.2
  1

 72
1
 11
-350.0
 21
340.0
 31
0.0
100
AcDbText
 73
2
  0
LWPOLYLINE
  5
1E5
330
17
100
AcDbEntity
  8
BUILDINGS_AUX
370
25
100
AcDbPolyline
 90
5
 70
0
 10
-382.5
 20
-131.0
 10
-327.5
 20
-131.0
 10
-327.5
 20
-89.0
 10
-382.5
 20
-89.0
 10
-382.5
 20
-131.0
  0
TEXT
  5
1E6
330
17
100
AcDbEntity
  8
TEXT_SUB
100
AcDbText
 10
-355.0
 20
-110.0
 30
0.0
 40
2.2
  1

 72
1
 11
-355.0
 21
-110.0
 31
0.0
100
AcDbText
 73
2
  0
LWPOLYLINE
  5
1E7
330
17
100
AcDbEntity
  8
BUILDINGS_AUX
370
25
100
AcDbPolyline
 90
5
 70
0
 10
377.5
 20
342.5
 10
422.5
 20
342.5
 10
422.5
 20
377.5
 10
377.5
 20
377.5
 10
377.5
 20
342.5
  0
TEXT
  5
1E8
330
17
100
AcDbEntity
  8
TEXT_SUB
100
AcDbText
 10
400.0
 20
360.0
 30
0.0
 40
2.2
  1

 72
1
 11
400.0
 21
360.0
 31
0.0
100
AcDbText
 73
2
  0
LWPOLYLINE
  5
1E9
330
17
100
AcDbEntity
  8
BUILDINGS_AUX
370
25
100
AcDbPolyline
 90
5
 70
0
 10
371.0
 20
-50.0
 10
419.0
 20
-50.0
 10
419.0
 20
-10.0
 10
371.0
 20
-10.0
 10
371.0
 20
-50.0
  0
TEXT
  5
1EA
330
17
100
AcDbEntity
  8
TEXT_SUB
100
AcDbText
 10
395.0
 20
-30.0
 30
0.0
 40
2.2
  1

 72
1
 11
395.0
 21
-30.0
 31
0.0
100
AcDbText
 73
2
  0
LWPOLYLINE
  5
1EB
330
17
100
AcDbEntity
  8
BUILDINGS_AUX
370
25
100
AcDbPolyline
 90
5
 70
0
 10
-251.0
 20
449.0
 10
-209.0
 20
449.0
 10
-209.0
 20
481.0
 10
-251.0
 20
481.0
 10
-251.0
 20
449.0
  0
TEXT
  5
1EC
330
17
100
AcDbEntity
  8
TEXT_SUB
100
AcDbText
 10
-230.0
 20
465.0
 30
0.0
 40
2.2
  1

 72
1
 11
-230.0
 21
465.0
 31
0.0
100
AcDbText
 73
2
  0
LWPOLYLINE
  5
1ED
330
17
100
AcDbEntity
  8
BUILDINGS_AUX
370
25
100
AcDbPolyline
 90
5
 70
0
 10
267.5
 20
448.0
 10
312.5
 20
448.0
 10
312.5
 20
482.0
 10
267.5
 20
482.0
 10
267.5
 20
448.0
  0
TEXT
  5
1EE
330
17
100
AcDbEntity
  8
TEXT_SUB
100
AcDbText
 10
290.0
 20
465.0
 30
0.0
 40
2.2
  1

 72
1
 11
290.0
 21
465.0
 31
0.0
100
AcDbText
 73
2
  0
LWPOLYLINE
  5
1EF
330
17
100
AcDbEntity
  8
BUILDINGS_AUX
370
25
100
AcDbPolyline
 90
5
 70
0
 10
-370.5
 20
152.5
 10
-325.5
 20
152.5
 10
-325.5
 20
187.5
 10
-370.5
 20
187.5
 10
-370.5
 20
152.5
  0
TEXT
  5
1F0
330
17
100
AcDbEntity
  8
TEXT_SUB
100
AcDbText
 10
-348.0
 20
170.0
 30
0.0
 40
2.2
  1

 72
1
 11
-348.0
 21
170.0
 31
0.0
100
AcDbText
 73
2
  0
LWPOLYLINE
  5
1F1
330
17
100
AcDbEntity
  8
BUILDINGS_AUX
370
25
100
AcDbPolyline
 90
5
 70
0
 10
-369.0
 20
31.0
 10
-321.0
 20
31.0
 10
-321.0
 20
69.0
 10
-369.0
 20
69.0
 10
-369.0
 20
31.0
  0
TEXT
  5
1F2
330
17
100
AcDbEntity
  8
TEXT_SUB
100
AcDbText
 10
-345.0
 20
50.0
 30
0.0
 40
2.2
  1

 72
1
 11
-345.0
 21
50.0
 31
0.0
100
AcDbText
 73
2
  0
LWPOLYLINE
  5
1F3
330
17
100
AcDbEntity
  8
BUILDINGS_AUX
370
25
100
AcDbPolyline
 90
5
 70
0
 10
384.0
 20
138.0
 10
426.0
 20
138.0
 10
426.0
 20
172.0
 10
384.0
 20
172.0
 10
384.0
 20
138.0
  0
TEXT
  5
1F4
330
17
100
AcDbEntity
  8
TEXT_SUB
100
AcDbText
 10
405.0
 20
155.0
 30
0.0
 40
2.2
  1

 72
1
 11
405.0
 21
155.0
 31
0.0
100
AcDbText
 73
2
  0
LWPOLYLINE
  5
1F5
330
17
100
AcDbEntity
  8
BUILDINGS_AUX
370
25
100
AcDbPolyline
 90
5
 70
0
 10
373.0
 20
40.0
 10
423.0
 20
40.0
 10
423.0
 20
80.0
 10
373.0
 20
80.0
 10
373.0
 20
40.0
  0
TEXT
  5
1F6
330
17
100
AcDbEntity
  8
TEXT_SUB
100
AcDbText
 10
398.0
 20
60.0
 30
0.0
 40
2.2
  1
2
 72
1
 11
398.0
 21
60.0
 31
0.0
100
AcDbText
 73
2
  0
LWPOLYLINE
  5
1F7
330
17
100
AcDbEntity
  8
BUILDINGS_AUX
370
25
100
AcDbPolyline
 90
5
 70
0
 10
-262.5
 20
-137.5
 10
-217.5
 20
-137.5
 10
-217.5
 20
-102.5
 10
-262.5
 20
-102.5
 10
-262.5
 20
-137.5
  0
TEXT
  5
1F8
330
17
100
AcDbEntity
  8
TEXT_SUB
100
AcDbText
 10
-240.0
 20
-120.0
 30
0.0
 40
2.2
  1

 72
1
 11
-240.0
 21
-120.0
 31
0.0
100
AcDbText
 73
2
  0
LWPOLYLINE
  5
1F9
330
17
100
AcDbEntity
  8
BUILDINGS_AUX
370
25
100
AcDbPolyline
 90
5
 70
0
 10
134.0
 20
-137.0
 10
176.0
 20
-137.0
 10
176.0
 20
-103.0
 10
134.0
 20
-103.0
 10
134.0
 20
-137.0
  0
TEXT
  5
1FA
330
17
100
AcDbEntity
  8
TEXT_SUB
100
AcDbText
 10
155.0
 20
-120.0
 30
0.0
 40
2.2
  1

 72
1
 11
155.0
 21
-120.0
 31
0.0
100
AcDbText
 73
2
  0
LWPOLYLINE
  5
1FB
330
17
100
AcDbEntity
  8
BUILDINGS_OUTER
370
13
100
AcDbPolyline
 90
5
 70
0
 10
-317.5
 20
280.0
 10
-262.5
 20
280.0
 10
-262.5
 20
320.0
 10
-317.5
 20
320.0
 10
-317.5
 20
280.0
  0
LWPOLYLINE
  5
1FC
330
17
100
AcDbEntity
  8
BUILDINGS_OUTER
370
13
100
AcDbPolyline
 90
5
 70
0
 10
-324.0
 20
201.0
 10
-276.0
 20
201.0
 10
-276.0
 20
239.0
 10
-324.0
 20
239.0
 10
-324.0
 20
201.0
  0
LWPOLYLINE
  5
1FD
330
17
100
AcDbEntity
  8
BUILDINGS_OUTER
370
13
100
AcDbPolyline
 90
5
 70
0
 10
-315.0
 20
117.5
 10
-255.0
 20
117.5
 10
-255.0
 20
162.5
 10
-315.0
 20
162.5
 10
-315.0
 20
117.5
  0
LWPOLYLINE
  5
1FE
330
17
100
AcDbEntity
  8
BUILDINGS_OUTER
370
13
100
AcDbPolyline
 90
5
 70
0
 10
-320.0
 20
35.0
 10
-270.0
 20
35.0
 10
-270.0
 20
75.0
 10
-320.0
 20
75.0
 10
-320.0
 20
35.0
  0
LWPOLYLINE
  5
1FF
330
17
100
AcDbEntity
  8
BUILDINGS_OUTER
370
13
100
AcDbPolyline
 90
5
 70
0
 10
-315.5
 20
-41.0
 10
-260.5
 20
-41.0
 10
-260.5
 20
1.0
 10
-315.5
 20
1.0
 10
-315.5
 20
-41.0
  0
LWPOLYLINE
  5
200
330
17
100
AcDbEntity
  8
BUILDINGS_OUTER
370
13
100
AcDbPolyline
 90
5
 70
0
 10
-322.5
 20
-102.5
 10
-277.5
 20
-102.5
 10
-277.5
 20
-67.5
 10
-322.5
 20
-67.5
 10
-322.5
 20
-102.5
  0
LWPOLYLINE
  5
201
330
17
100
AcDbEntity
  8
BUILDINGS_OUTER
370
13
100
AcDbPolyline
 90
5
 70
0
 10
315.0
 20
280.0
 10
365.0
 20
280.0
 10
365.0
 20
320.0
 10
315.0
 20
320.0
 10
315.0
 20
280.0
  0
LWPOLYLINE
  5
202
330
17
100
AcDbEntity
  8
BUILDINGS_OUTER
370
13
100
AcDbPolyline
 90
5
 70
0
 10
322.5
 20
194.0
 10
377.5
 20
194.0
 10
377.5
 20
236.0
 10
322.5
 20
236.0
 10
322.5
 20
194.0
  0
LWPOLYLINE
  5
203
330
17
100
AcDbEntity
  8
BUILDINGS_OUTER
370
13
100
AcDbPolyline
 90
5
 70
0
 10
311.0
 20
110.0
 10
359.0
 20
110.0
 10
359.0
 20
150.0
 10
311.0
 20
150.0
 10
311.0
 20
110.0
  0
LWPOLYLINE
  5
204
330
17
100
AcDbEntity
  8
BUILDINGS_OUTER
370
13
100
AcDbPolyline
 90
5
 70
0
 10
325.5
 20
26.0
 10
370.5
 20
26.0
 10
370.5
 20
64.0
 10
325.5
 20
64.0
 10
325.5
 20
26.0
  0
LWPOLYLINE
  5
205
330
17
100
AcDbEntity
  8
BUILDINGS_OUTER
370
13
100
AcDbPolyline
 90
5
 70
0
 10
314.0
 20
-50.0
 10
366.0
 20
-50.0
 10
366.0
 20
-10.0
 10
314.0
 20
-10.0
 10
314.0
 20
-50.0
  0
LWPOLYLINE
  5
206
330
17
100
AcDbEntity
  8
BUILDINGS_OUTER
370
13
100
AcDbPolyline
 90
5
 70
0
 10
321.0
 20
-113.0
 10
369.0
 20
-113.0
 10
369.0
 20
-77.0
 10
321.0
 20
-77.0
 10
321.0
 20
-113.0
  0
LWPOLYLINE
  5
207
330
17
100
AcDbEntity
  8
BUILDINGS_OUTER
370
13
100
AcDbPolyline
 90
5
 70
0
 10
-181.0
 20
-120.0
 10
-129.0
 20
-120.0
 10
-129.0
 20
-80.0
 10
-181.0
 20
-80.0
 10
-181.0
 20
-120.0
  0
LWPOLYLINE
  5
208
330
17
100
AcDbEntity
  8
BUILDINGS_OUTER
370
13
100
AcDbPolyline
 90
5
 70
0
 10
-89.0
 20
-126.0
 10
-41.0
 20
-126.0
 10
-41.0
 20
-90.0
 10
-89.0
 20
-90.0
 10
-89.0
 20
-126.0
  0
LWPOLYLINE
  5
209
330
17
100
AcDbEntity
  8
BUILDINGS_OUTER
370
13
100
AcDbPolyline
 90
5
 70
0
 10
12.5
 20
-118.0
 10
57.5
 20
-118.0
 10
57.5
 20
-78.0
 10
12.5
 20
-78.0
 10
12.5
 20
-118.0
  0
LWPOLYLINE
  5
20A
330
17
100
AcDbEntity
  8
BUILDINGS_OUTER
370
13
100
AcDbPolyline
 90
5
 70
0
 10
92.5
 20
-124.0
 10
147.5
 20
-124.0
 10
147.5
 20
-86.0
 10
92.5
 20
-86.0
 10
92.5
 20
-124.0
  0
LWPOLYLINE
  5
20B
330
17
100
AcDbEntity
  8
BUILDINGS_OUTER
370
13
100
AcDbPolyline
 90
5
 70
0
 10
186.0
 20
-118.0
 10
234.0
 20
-118.0
 10
234.0
 20
-82.0
 10
186.0
 20
-82.0
 10
186.0
 20
-118.0
  0
LWPOLYLINE
  5
20C
330
17
100
AcDbEntity
  8
APARTMENTS
370
18
100
AcDbPolyline
 90
5
 70
0
 10
394.0
 20
-64.0
 10
406.0
 20
-64.0
 10
406.0
 20
-36.0
 10
394.0
 20
-36.0
 10
394.0
 20
-64.0
  0
TEXT
  5
20D
330
17
100
AcDbEntity
  8
TEXT_SUB
100
AcDbText
 10
400.0
 20
-50.0
 30
0.0
 40
1.8
  1
101
 72
1
 11
400.0
 21
-50.0
 31
0.0
100
AcDbText
 73
2
  0
LWPOLYLINE
  5
20E
330
17
100
AcDbEntity
  8
APARTMENTS
370
18
100
AcDbPolyline
 90
5
 70
0
 10
419.0
 20
-64.0
 10
431.0
 20
-64.0
 10
431.0
 20
-36.0
 10
419.0
 20
-36.0
 10
419.0
 20
-64.0
  0
TEXT
  5
20F
330
17
100
AcDbEntity
  8
TEXT_SUB
100
AcDbText
 10
425.0
 20
-50.0
 30
0.0
 40
1.8
  1
102
 72
1
 11
425.0
 21
-50.0
 31
0.0
100
AcDbText
 73
2
  0
LWPOLYLINE
  5
210
330
17
100
AcDbEntity
  8
APARTMENTS
370
18
100
AcDbPolyline
 90
5
 70
0
 10
394.0
 20
-114.0
 10
406.0
 20
-114.0
 10
406.0
 20
-86.0
 10
394.0
 20
-86.0
 10
394.0
 20
-114.0
  0
TEXT
  5
211
330
17
100
AcDbEntity
  8
TEXT_SUB
100
AcDbText
 10
400.0
 20
-100.0
 30
0.0
 40
1.8
  1
103
 72
1
 11
400.0
 21
-100.0
 31
0.0
100
AcDbText
 73
2
  0
LWPOLYLINE
  5
212
330
17
100
AcDbEntity
  8
APARTMENTS
370
18
100
AcDbPolyline
 90
5
 70
0
 10
419.0
 20
-114.0
 10
431.0
 20
-114.0
 10
431.0
 20
-86.0
 10
419.0
 20
-86.0
 10
419.0
 20
-114.0
  0
TEXT
  5
213
330
17
100
AcDbEntity
  8
TEXT_SUB
100
AcDbText
 10
425.0
 20
-100.0
 30
0.0
 40
1.8
  1
201
 72
1
 11
425.0
 21
-100.0
 31
0.0
100
AcDbText
 73
2
  0
LWPOLYLINE
  5
214
330
17
100
AcDbEntity
  8
APARTMENTS
370
18
100
AcDbPolyline
 90
5
 70
0
 10
444.0
 20
-64.0
 10
456.0
 20
-64.0
 10
456.0
 20
-36.0
 10
444.0
 20
-36.0
 10
444.0
 20
-64.0
  0
TEXT
  5
215
330
17
100
AcDbEntity
  8
TEXT_SUB
100
AcDbText
 10
450.0
 20
-50.0
 30
0.0
 40
1.8
  1
202
 72
1
 11
450.0
 21
-50.0
 31
0.0
100
AcDbText
 73
2
  0
LWPOLYLINE
  5
216
330
17
100
AcDbEntity
  8
APARTMENTS
370
18
100
AcDbPolyline
 90
5
 70
0
 10
444.0
 20
-114.0
 10
456.0
 20
-114.0
 10
456.0
 20
-86.0
 10
444.0
 20
-86.0
 10
444.0
 20
-114.0
  0
TEXT
  5
217
330
17
100
AcDbEntity
  8
TEXT_SUB
100
AcDbText
 10
450.0
 20
-100.0
 30
0.0
 40
1.8
  1
203
 72
1
 11
450.0
 21
-100.0
 31
0.0
100
AcDbText
 73
2
  0
CIRCLE
  5
218
330
17
100
AcDbEntity
  8
TANKS
370
18
100
AcDbCircle
 10
-330.0
 20
250.0
 30
0.0
 40
10.0
  0
LINE
  5
219
330
17
100
AcDbEntity
  8
TANKS
100
AcDbLine
 10
-335.0
 20
250.0
 30
0.0
 11
-325.0
 21
250.0
 31
0.0
  0
LINE
  5
21A
330
17
100
AcDbEntity
  8
TANKS
100
AcDbLine
 10
-330.0
 20
245.0
 30
0.0
 11
-330.0
 21
255.0
 31
0.0
  0
TEXT
  5
21B
330
17
100
AcDbEntity
  8
TEXT_SUB
100
AcDbText
 10
-330.0
 20
237.0
 30
0.0
 40
1.8
  1
LPG 1
 72
1
 11
-330.0
 21
237.0
 31
0.0
100
AcDbText
 73
2
  0
CIRCLE
  5
21C
330
17
100
AcDbEntity
  8
TANKS
370
18
100
AcDbCircle
 10
-330.0
 20
200.0
 30
0.0
 40
8.0
  0
LINE
  5
21D
330
17
100
AcDbEntity
  8
TANKS
100
AcDbLine
 10
-334.0
 20
200.0
 30
0.0
 11
-326.0
 21
200.0
 31
0.0
  0
LINE
  5
21E
330
17
100
AcDbEntity
  8
TANKS
100
AcDbLine
 10
-330.0
 20
196.0
 30
0.0
 11
-330.0
 21
204.0
 31
0.0
  0
TEXT
  5
21F
330
17
100
AcDbEntity
  8
TEXT_SUB
100
AcDbText
 10
-330.0
 20
189.0
 30
0.0
 40
1.8
  1
LPG 2
 72
1
 11
-330.0
 21
189.0
 31
0.0
100
AcDbText
 73
2
  0
CIRCLE
  5
220
330
17
100
AcDbEntity
  8
TANKS
370
18
100
AcDbCircle
 10
-330.0
 20
110.0
 30
0.0
 40
12.0
  0
LINE
  5
221
330
17
100
AcDbEntity
  8
TANKS
100
AcDbLine
 10
-336.0
 20
110.0
 30
0.0
 11
-324.0
 21
110.0
 31
0.0
  0
LINE
  5
222
330
17
100
AcDbEntity
  8
TANKS
100
AcDbLine
 10
-330.0
 20
104.0
 30
0.0
 11
-330.0
 21
116.0
 31
0.0
  0
TEXT
  5
223
330
17
100
AcDbEntity
  8
TEXT_SUB
100
AcDbText
 10
-330.0
 20
95.0
 30
0.0
 40
1.8
  1

 72
1
 11
-330.0
 21
95.0
 31
0.0
100
AcDbText
 73
2
  0
CIRCLE
  5
224
330
17
100
AcDbEntity
  8
TANKS
370
18
100
AcDbCircle
 10
-330.0
 20
40.0
 30
0.0
 40
10.0
  0
LINE
  5
225
330
17
100
AcDbEntity
  8
TANKS
100
AcDbLine
 10
-335.0
 20
40.0
 30
0.0
 11
-325.0
 21
40.0
 31
0.0
  0
LINE
  5
226
330
17
100
AcDbEntity
  8
TANKS
100
AcDbLine
 10
-330.0
 20
35.0
 30
0.0
 11
-330.0
 21
45.0
 31
0.0
  0
TEXT
  5
227
330
17
100
AcDbEntity
  8
TEXT_SUB
100
AcDbText
 10
-330.0
 20
27.0
 30
0.0
 40
1.8
  1

 72
1
 11
-330.0
 21
27.0
 31
0.0
100
AcDbText
 73
2
  0
CIRCLE
  5
228
330
17
100
AcDbEntity
  8
TANKS
370
18
100
AcDbCircle
 10
-295.0
 20
-20.0
 30
0.0
 40
8.0
  0
LINE
  5
229
330
17
100
AcDbEntity
  8
TANKS
100
AcDbLine
 10
-299.0
 20
-20.0
 30
0.0
 11
-291.0
 21
-20.0
 31
0.0
  0
LINE
  5
22A
330
17
100
AcDbEntity
  8
TANKS
100
AcDbLine
 10
-295.0
 20
-24.0
 30
0.0
 11
-295.0
 21
-16.0
 31
0.0
  0
TEXT
  5
22B
330
17
100
AcDbEntity
  8
TEXT_SUB
100
AcDbText
 10
-295.0
 20
-31.0
 30
0.0
 40
1.8
  1

 72
1
 11
-295.0
 21
-31.0
 31
0.0
100
AcDbText
 73
2
  0
CIRCLE
  5
22C
330
17
100
AcDbEntity
  8
TANKS
370
18
100
AcDbCircle
 10
-295.0
 20
40.0
 30
0.0
 40
9.0
  0
LINE
  5
22D
330
17
100
AcDbEntity
  8
TANKS
100
AcDbLine
 10
-299.5
 20
40.0
 30
0.0
 11
-290.5
 21
40.0
 31
0.0
  0
LINE
  5
22E
330
17
100
AcDbEntity
  8
TANKS
100
AcDbLine
 10
-295.0
 20
35.5
 30
0.0
 11
-295.0
 21
44.5
 31
0.0
  0
TEXT
  5
22F
330
17
100
AcDbEntity
  8
TEXT_SUB
100
AcDbText
 10
-295.0
 20
28.0
 30
0.0
 40
1.8
  1

 72
1
 11
-295.0
 21
28.0
 31
0.0
100
AcDbText
 73
2
  0
LWPOLYLINE
  5
230
330
17
100
AcDbEntity
  8
OHT
  6
DASHED
370
25
100
AcDbPolyline
 90
4
 70
0
 10
-85.0
 20
230.0
 10
-15.0
 20
230.0
 10
-15.0
 20
130.0
 10
25.0
 20
130.0
  0
CIRCLE
  5
231
330
17
100
AcDbEntity
  8
OHT
100
AcDbCircle
 10
-85.0
 20
230.0
 30
0.0
 40
1.5
  0
CIRCLE
  5
232
330
17
100
AcDbEntity
  8
OHT
100
AcDbCircle
 10
-15.0
 20
230.0
 30
0.0
 40
1.5
  0
CIRCLE
  5
233
330
17
100
AcDbEntity
  8
OHT
100
AcDbCircle
 10
-15.0
 20
130.0
 30
0.0
 40
1.5
  0
CIRCLE
  5
234
330
17
100
AcDbEntity
  8
OHT
100
AcDbCircle
 10
25.0
 20
130.0
 30
0.0
 40
1.5
  0
TEXT
  5
235
330
17
100
AcDbEntity
  8
TEXT_SUB
 62
4
100
AcDbText
 10
-15.0
 20
135.0
 30
0.0
 40
2.0
  1
M14M16 OHT
 72
1
 11
-15.0
 21
135.0
 31
0.0
100
AcDbText
 73
2
  0
LWPOLYLINE
  5
236
330
17
100
AcDbEntity
  8
OHT
  6
DASHED
370
25
100
AcDbPolyline
 90
3
 70
0
 10
110.0
 20
120.0
 10
180.0
 20
120.0
 10
180.0
 20
230.0
  0
CIRCLE
  5
237
330
17
100
AcDbEntity
  8
OHT
100
AcDbCircle
 10
110.0
 20
120.0
 30
0.0
 40
1.5
  0
CIRCLE
  5
238
330
17
100
AcDbEntity
  8
OHT
100
AcDbCircle
 10
180.0
 20
120.0
 30
0.0
 40
1.5
  0
CIRCLE
  5
239
330
17
100
AcDbEntity
  8
OHT
100
AcDbCircle
 10
180.0
 20
230.0
 30
0.0
 40
1.5
  0
TEXT
  5
23A
330
17
100
AcDbEntity
  8
TEXT_SUB
 62
4
100
AcDbText
 10
180.0
 20
125.0
 30
0.0
 40
2.0
  1
M16P&T4 OHT
 72
1
 11
180.0
 21
125.0
 31
0.0
100
AcDbText
 73
2
  0
LWPOLYLINE
  5
23B
330
17
100
AcDbEntity
  8
OHT
  6
DASHED
370
25
100
AcDbPolyline
 90
4
 70
0
 10
110.0
 20
105.0
 10
220.0
 20
105.0
 10
220.0
 20
47.5
 10
212.5
 20
47.5
  0
CIRCLE
  5
23C
330
17
100
AcDbEntity
  8
OHT
100
AcDbCircle
 10
110.0
 20
105.0
 30
0.0
 40
1.5
  0
CIRCLE
  5
23D
330
17
100
AcDbEntity
  8
OHT
100
AcDbCircle
 10
220.0
 20
105.0
 30
0.0
 40
1.5
  0
CIRCLE
  5
23E
330
17
100
AcDbEntity
  8
OHT
100
AcDbCircle
 10
220.0
 20
47.5
 30
0.0
 40
1.5
  0
CIRCLE
  5
23F
330
17
100
AcDbEntity
  8
OHT
100
AcDbCircle
 10
212.5
 20
47.5
 30
0.0
 40
1.5
  0
TEXT
  5
240
330
17
100
AcDbEntity
  8
TEXT_SUB
 62
4
100
AcDbText
 10
220.0
 20
52.5
 30
0.0
 40
2.0
  1
M16P&T5 OHT
 72
1
 11
220.0
 21
52.5
 31
0.0
100
AcDbText
 73
2
  0
LWPOLYLINE
  5
241
330
17
100
AcDbEntity
  8
HIGHWAY
370
25
100
AcDbPolyline
 90
5
 70
0
 10
509.0
 20
-180.0
 10
531.0
 20
-180.0
 10
531.0
 20
520.0
 10
509.0
 20
520.0
 10
509.0
 20
-180.0
  0
LINE
  5
242
330
17
100
AcDbEntity
  8
HIGHWAY
370
35
100
AcDbLine
 10
520.0
 20
-180.0
 30
0.0
 11
520.0
 21
520.0
 31
0.0
  0
TEXT
  5
243
330
17
100
AcDbEntity
  8
TEXT_MAIN
100
AcDbText
 10
536.0
 20
170.0
 30
0.0
 40
4.0
  1

 50
90.0
 72
1
 11
536.0
 21
170.0
 31
0.0
100
AcDbText
 73
2
  0
LWPOLYLINE
  5
244
330
17
100
AcDbEntity
  8
GATE
370
35
100
AcDbPolyline
 90
5
 70
0
 10
5.0
 20
373.5
 10
8.0
 20
373.5
 10
8.0
 20
376.5
 10
5.0
 20
376.5
 10
5.0
 20
373.5
  0
LWPOLYLINE
  5
245
330
17
100
AcDbEntity
  8
GATE
370
35
100
AcDbPolyline
 90
5
 70
0
 10
32.0
 20
373.5
 10
35.0
 20
373.5
 10
35.0
 20
376.5
 10
32.0
 20
376.5
 10
32.0
 20
373.5
  0
LINE
  5
246
330
17
100
AcDbEntity
  8
GATE
370
50
100
AcDbLine
 10
5.0
 20
376.5
 30
0.0
 11
35.0
 21
376.5
 31
0.0
  0
LINE
  5
247
330
17
100
AcDbEntity
  8
GATE
 62
1
370
18
100
AcDbLine
 10
8.0
 20
379.0
 30
0.0
 11
32.0
 21
379.0
 31
0.0
  0
TEXT
  5
248
330
17
100
AcDbEntity
  8
TEXT_MAIN
 62
1
100
AcDbText
 10
20.0
 20
385.0
 30
0.0
 40
3.0
  1
 (MAIN GATE)
 72
1
 11
20.0
 21
385.0
 31
0.0
100
AcDbText
 73
2
  0
TEXT
  5
249
330
17
100
AcDbEntity
  8
TEXT_MAIN
100
AcDbText
 10
20.0
 20
381.0
 30
0.0
 40
2.5
  1
SK hynix 
 72
1
 11
20.0
 21
381.0
 31
0.0
100
AcDbText
 73
2
  0
LINE
  5
24A
330
17
100
AcDbEntity
  8
NORTH_ARROW
370
35
100
AcDbLine
 10
-450.0
 20
450.0
 30
0.0
 11
-450.0
 21
470.0
 31
0.0
  0
LINE
  5
24B
330
17
100
AcDbEntity
  8
NORTH_ARROW
370
35
100
AcDbLine
 10
-450.0
 20
470.0
 30
0.0
 11
-454.0
 21
464.0
 31
0.0
  0
LINE
  5
24C
330
17
100
AcDbEntity
  8
NORTH_ARROW
370
35
100
AcDbLine
 10
-450.0
 20
470.0
 30
0.0
 11
-446.0
 21
464.0
 31
0.0
  0
TEXT
  5
24D
330
17
100
AcDbEntity
  8
NORTH_ARROW
100
AcDbText
 10
-450.0
 20
473.0
 30
0.0
 40
6.0
  1
N
 72
1
 11
-450.0
 21
473.0
 31
0.0
100
AcDbText
 73
2
  0
LWPOLYLINE
  5
24E
330
17
100
AcDbEntity
  8
TITLEBLOCK
370
50
100
AcDbPolyline
 90
5
 70
0
 10
350.0
 20
-280.0
 10
550.0
 20
-280.0
 10
550.0
 20
-220.0
 10
350.0
 20
-220.0
 10
350.0
 20
-280.0
  0
LINE
  5
24F
330
17
100
AcDbEntity
  8
TITLEBLOCK
100
AcDbLine
 10
350.0
 20
-240.0
 30
0.0
 11
550.0
 21
-240.0
 31
0.0
  0
LINE
  5
250
330
17
100
AcDbEntity
  8
TITLEBLOCK
100
AcDbLine
 10
350.0
 20
-260.0
 30
0.0
 11
550.0
 21
-260.0
 31
0.0
  0
LINE
  5
251
330
17
100
AcDbEntity
  8
TITLEBLOCK
100
AcDbLine
 10
410.0
 20
-280.0
 30
0.0
 11
410.0
 21
-240.0
 31
0.0
  0
TEXT
  5
252
330
17
100
AcDbEntity
  8
TITLEBLOCK
100
AcDbText
 10
450.0
 20
-232.0
 30
0.0
 40
5.0
  1
SK hynix   
 72
1
 11
450.0
 21
-232.0
 31
0.0
100
AcDbText
 73
2
  0
TEXT
  5
253
330
17
100
AcDbEntity
  8
TITLEBLOCK
100
AcDbText
 10
355.0
 20
-248.0
 30
0.0
 40
2.5
  1

 11
355.0
 21
-248.0
 31
0.0
100
AcDbText
  0
TEXT
  5
254
330
17
100
AcDbEntity
  8
TITLEBLOCK
100
AcDbText
 10
415.0
 20
-248.0
 30
0.0
 40
3.0
  1
IC-CAMPUS-001
 11
415.0
 21
-248.0
 31
0.0
100
AcDbText
  0
TEXT
  5
255
330
17
100
AcDbEntity
  8
TITLEBLOCK
100
AcDbText
 10
355.0
 20
-268.0
 30
0.0
 40
2.5
  1

 11
355.0
 21
-268.0
 31
0.0
100
AcDbText
  0
TEXT
  5
256
330
17
100
AcDbEntity
  8
TITLEBLOCK
100
AcDbText
 10
415.0
 20
-268.0
 30
0.0
 40
3.0
  1
1 : 500
 11
415.0
 21
-268.0
 31
0.0
100
AcDbText
  0
TEXT
  5
257
330
17
100
AcDbEntity
  8
TITLEBLOCK
100
AcDbText
 10
355.0
 20
-275.0
 30
0.0
 40
2.5
  1

 11
355.0
 21
-275.0
 31
0.0
100
AcDbText
  0
TEXT
  5
258
330
17
100
AcDbEntity
  8
TITLEBLOCK
100
AcDbText
 10
415.0
 20
-275.0
 30
0.0
 40
3.0
  1
2026-02-10
 11
415.0
 21
-275.0
 31
0.0
100
AcDbText
  0
LINE
  5
259
330
17
100
AcDbEntity
  8
TITLEBLOCK
370
35
100
AcDbLine
 10
350.0
 20
-240.0
 30
0.0
 11
450.0
 21
-240.0
 31
0.0
  0
LINE
  5
25A
330
17
100
AcDbEntity
  8
TITLEBLOCK
370
25
100
AcDbLine
 10
350.0
 20
-242.0
 30
0.0
 11
350.0
 21
-238.0
 31
0.0
  0
LINE
  5
25B
330
17
100
AcDbEntity
  8
TITLEBLOCK
370
25
100
AcDbLine
 10
400.0
 20
-242.0
 30
0.0
 11
400.0
 21
-238.0
 31
0.0
  0
LINE
  5
25C
330
17
100
AcDbEntity
  8
TITLEBLOCK
370
25
100
AcDbLine
 10
450.0
 20
-242.0
 30
0.0
 11
450.0
 21
-238.0
 31
0.0
  0
TEXT
  5
25D
330
17
100
AcDbEntity
  8
TITLEBLOCK
100
AcDbText
 10
350.0
 20
-245.0
 30
0.0
 40
2.0
  1
0
 72
1
 11
350.0
 21
-245.0
 31
0.0
100
AcDbText
 73
2
  0
TEXT
  5
25E
330
17
100
AcDbEntity
  8
TITLEBLOCK
100
AcDbText
 10
400.0
 20
-245.0
 30
0.0
 40
2.0
  1
50m
 72
1
 11
400.0
 21
-245.0
 31
0.0
100
AcDbText
 73
2
  0
TEXT
  5
25F
330
17
100
AcDbEntity
  8
TITLEBLOCK
100
AcDbText
 10
450.0
 20
-245.0
 30
0.0
 40
2.0
  1
100m
 72
1
 11
450.0
 21
-245.0
 31
0.0
100
AcDbText
 73
2
  0
TEXT
  5
260
330
17
100
AcDbEntity
  8
TITLEBLOCK
100
AcDbText
 10
-480.0
 20
-150.0
 30
0.0
 40
4.0
  1
[   ]
 11
-480.0
 21
-150.0
 31
0.0
100
AcDbText
  0
LWPOLYLINE
  5
261
330
17
100
AcDbEntity
  8
TITLEBLOCK
 62
2
100
AcDbPolyline
 90
5
 70
0
 10
-480.0
 20
-160.0
 10
-470.0
 20
-160.0
 10
-470.0
 20
-155.0
 10
-480.0
 20
-155.0
 10
-480.0
 20
-160.0
  0
TEXT
  5
262
330
17
100
AcDbEntity
  8
TITLEBLOCK
100
AcDbText
 10
-466.0
 20
-157.5
 30
0.0
 40
2.5
  1
M14 DRAM FAB
 11
-466.0
 21
-157.5
 31
0.0
100
AcDbText
  0
LWPOLYLINE
  5
263
330
17
100
AcDbEntity
  8
TITLEBLOCK
 62
3
100
AcDbPolyline
 90
5
 70
0
 10
-480.0
 20
-168.0
 10
-470.0
 20
-168.0
 10
-470.0
 20
-163.0
 10
-480.0
 20
-163.0
 10
-480.0
 20
-168.0
  0
TEXT
  5
264
330
17
100
AcDbEntity
  8
TITLEBLOCK
100
AcDbText
 10
-466.0
 20
-165.5
 30
0.0
 40
2.5
  1
M16 DRAM FAB
 11
-466.0
 21
-165.5
 31
0.0
100
AcDbText
  0
LWPOLYLINE
  5
265
330
17
100
AcDbEntity
  8
TITLEBLOCK
 62
4
100
AcDbPolyline
 90
5
 70
0
 10
-480.0
 20
-176.0
 10
-470.0
 20
-176.0
 10
-470.0
 20
-171.0
 10
-480.0
 20
-171.0
 10
-480.0
 20
-176.0
  0
TEXT
  5
266
330
17
100
AcDbEntity
  8
TITLEBLOCK
100
AcDbText
 10
-466.0
 20
-173.5
 30
0.0
 40
2.5
  1
M10 FAB
 11
-466.0
 21
-173.5
 31
0.0
100
AcDbText
  0
LWPOLYLINE
  5
267
330
17
100
AcDbEntity
  8
TITLEBLOCK
 62
6
100
AcDbPolyline
 90
5
 70
0
 10
-480.0
 20
-184.0
 10
-470.0
 20
-184.0
 10
-470.0
 20
-179.0
 10
-480.0
 20
-179.0
 10
-480.0
 20
-184.0
  0
TEXT
  5
268
330
17
100
AcDbEntity
  8
TITLEBLOCK
100
AcDbText
 10
-466.0
 20
-181.5
 30
0.0
 40
2.5
  1
DRAM WT ()
 11
-466.0
 21
-181.5
 31
0.0
100
AcDbText
  0
LWPOLYLINE
  5
269
330
17
100
AcDbEntity
  8
TITLEBLOCK
 62
30
100
AcDbPolyline
 90
5
 70
0
 10
-480.0
 20
-192.0
 10
-470.0
 20
-192.0
 10
-470.0
 20
-187.0
 10
-480.0
 20
-187.0
 10
-480.0
 20
-192.0
  0
TEXT
  5
26A
330
17
100
AcDbEntity
  8
TITLEBLOCK
100
AcDbText
 10
-466.0
 20
-189.5
 30
0.0
 40
2.5
  1
P&T ()
 11
-466.0
 21
-189.5
 31
0.0
100
AcDbText
  0
LWPOLYLINE
  5
26B
330
17
100
AcDbEntity
  8
TITLEBLOCK
 62
4
100
AcDbPolyline
 90
5
 70
0
 10
-480.0
 20
-200.0
 10
-470.0
 20
-200.0
 10
-470.0
 20
-195.0
 10
-480.0
 20
-195.0
 10
-480.0
 20
-200.0
  0
TEXT
  5
26C
330
17
100
AcDbEntity
  8
TITLEBLOCK
100
AcDbText
 10
-466.0
 20
-197.5
 30
0.0
 40
2.5
  1
OHT 
 11
-466.0
 21
-197.5
 31
0.0
100
AcDbText
  0
LWPOLYLINE
  5
26D
330
17
100
AcDbEntity
  8
TITLEBLOCK
 62
8
100
AcDbPolyline
 90
5
 70
0
 10
-480.0
 20
-208.0
 10
-470.0
 20
-208.0
 10
-470.0
 20
-203.0
 10
-480.0
 20
-203.0
 10
-480.0
 20
-208.0
  0
TEXT
  5
26E
330
17
100
AcDbEntity
  8
TITLEBLOCK
100
AcDbText
 10
-466.0
 20
-205.5
 30
0.0
 40
2.5
  1

 11
-466.0
 21
-205.5
 31
0.0
100
AcDbText
  0
LWPOLYLINE
  5
26F
330
17
100
AcDbEntity
  8
TITLEBLOCK
 62
9
100
AcDbPolyline
 90
5
 70
0
 10
-480.0
 20
-216.0
 10
-470.0
 20
-216.0
 10
-470.0
 20
-211.0
 10
-480.0
 20
-211.0
 10
-480.0
 20
-216.0
  0
TEXT
  5
270
330
17
100
AcDbEntity
  8
TITLEBLOCK
100
AcDbText
 10
-466.0
 20
-213.5
 30
0.0
 40
2.5
  1

 11
-466.0
 21
-213.5
 31
0.0
100
AcDbText
  0
ENDSEC
  0
SECTION
  2
OBJECTS
  0
DICTIONARY
  5
A
330
0
100
AcDbDictionary
281
1
  3
ACAD_COLOR
350
B
  3
ACAD_GROUP
350
C
  3
ACAD_LAYOUT
350
D
  3
ACAD_MATERIAL
350
E
  3
ACAD_MLEADERSTYLE
350
F
  3
ACAD_MLINESTYLE
350
10
  3
ACAD_PLOTSETTINGS
350
11
  3
ACAD_PLOTSTYLENAME
350
12
  3
ACAD_SCALELIST
350
14
  3
ACAD_TABLESTYLE
350
15
  3
ACAD_VISUALSTYLE
350
16
  3
EZDXF_META
350
2D
  0
DICTIONARY
  5
B
330
A
100
AcDbDictionary
281
1
  0
DICTIONARY
  5
C
330
A
100
AcDbDictionary
281
1
  0
DICTIONARY
  5
D
330
A
100
AcDbDictionary
281
1
  3
Model
350
1A
  3
Layout1
350
1E
  0
DICTIONARY
  5
E
330
A
100
AcDbDictionary
281
1
  3
ByBlock
350
1F
  3
ByLayer
350
20
  3
Global
350
21
  0
DICTIONARY
  5
F
330
A
100
AcDbDictionary
281
1
  3
Standard
350
2C
  0
DICTIONARY
  5
10
330
A
100
AcDbDictionary
281
1
  3
Standard
350
22
  0
DICTIONARY
  5
11
330
A
100
AcDbDictionary
281
1
  0
ACDBDICTIONARYWDFLT
  5
12
330
A
100
AcDbDictionary
281
1
  3
Normal
350
13
100
AcDbDictionaryWithDefault
340
13
  0
ACDBPLACEHOLDER
  5
13
330
12
  0
DICTIONARY
  5
14
330
A
100
AcDbDictionary
281
1
  0
DICTIONARY
  5
15
330
A
100
AcDbDictionary
281
1
  0
DICTIONARY
  5
16
330
A
100
AcDbDictionary
281
1
  0
LAYOUT
  5
1A
330
D
100
AcDbPlotSettings
  1

  4
A3
  6

 40
7.5
 41
20.0
 42
7.5
 43
20.0
 44
420.0
 45
297.0
 46
0.0
 47
0.0
 48
0.0
 49
0.0
140
0.0
141
0.0
142
1.0
143
1.0
 70
1024
 72
1
 73
0
 74
5
  7

 75
16
 76
0
 77
2
 78
300
147
1.0
148
0.0
149
0.0
100
AcDbLayout
  1
Model
 70
1
 71
0
 10
0.0
 20
0.0
 11
420.0
 21
297.0
 12
0.0
 22
0.0
 32
0.0
 14
1e+20
 24
1e+20
 34
1e+20
 15
-1e+20
 25
-1e+20
 35
-1e+20
146
0.0
 13
0.0
 23
0.0
 33
0.0
 16
1.0
 26
0.0
 36
0.0
 17
0.0
 27
1.0
 37
0.0
 76
1
330
17
  0
LAYOUT
  5
1E
330
D
100
AcDbPlotSettings
  1

  4
A3
  6

 40
7.5
 41
20.0
 42
7.5
 43
20.0
 44
420.0
 45
297.0
 46
0.0
 47
0.0
 48
0.0
 49
0.0
140
0.0
141
0.0
142
1.0
143
1.0
 70
0
 72
1
 73
0
 74
5
  7

 75
16
 76
0
 77
2
 78
300
147
1.0
148
0.0
149
0.0
100
AcDbLayout
  1
Layout1
 70
1
 71
1
 10
0.0
 20
0.0
 11
420.0
 21
297.0
 12
0.0
 22
0.0
 32
0.0
 14
1e+20
 24
1e+20
 34
1e+20
 15
-1e+20
 25
-1e+20
 35
-1e+20
146
0.0
 13
0.0
 23
0.0
 33
0.0
 16
1.0
 26
0.0
 36
0.0
 17
0.0
 27
1.0
 37
0.0
 76
1
330
1B
  0
MATERIAL
  5
1F
102
{ACAD_REACTORS
330
E
102
}
330
E
100
AcDbMaterial
  1
ByBlock
  2

 70
0
 40
1.0
 71
1
 41
1.0
 91
-1023410177
 42
1.0
 72
1
  3

 73
1
 74
1
 75
1
 44
0.5
 73
0
 45
1.0
 46
1.0
 77
1
  4

 78
1
 79
1
170
1
 48
1.0
171
1
  6

172
1
173
1
174
1
140
1.0
141
1.0
175
1
  7

176
1
177
1
178
1
143
1.0
179
1
  8

270
1
271
1
272
1
145
1.0
146
1.0
273
1
  9

274
1
275
1
276
1
 42
1.0
 72
1
  3

 73
1
 74
1
 75
1
 94
63
  0
MATERIAL
  5
20
102
{ACAD_REACTORS
330
E
102
}
330
E
100
AcDbMaterial
  1
ByLayer
  2

 70
0
 40
1.0
 71
1
 41
1.0
 91
-1023410177
 42
1.0
 72
1
  3

 73
1
 74
1
 75
1
 44
0.5
 73
0
 45
1.0
 46
1.0
 77
1
  4

 78
1
 79
1
170
1
 48
1.0
171
1
  6

172
1
173
1
174
1
140
1.0
141
1.0
175
1
  7

176
1
177
1
178
1
143
1.0
179
1
  8

270
1
271
1
272
1
145
1.0
146
1.0
273
1
  9

274
1
275
1
276
1
 42
1.0
 72
1
  3

 73
1
 74
1
 75
1
 94
63
  0
MATERIAL
  5
21
102
{ACAD_REACTORS
330
E
102
}
330
E
100
AcDbMaterial
  1
Global
  2

 70
0
 40
1.0
 71
1
 41
1.0
 91
-1023410177
 42
1.0
 72
1
  3

 73
1
 74
1
 75
1
 44
0.5
 73
0
 45
1.0
 46
1.0
 77
1
  4

 78
1
 79
1
170
1
 48
1.0
171
1
  6

172
1
173
1
174
1
140
1.0
141
1.0
175
1
  7

176
1
177
1
178
1
143
1.0
179
1
  8

270
1
271
1
272
1
145
1.0
146
1.0
273
1
  9

274
1
275
1
276
1
 42
1.0
 72
1
  3

 73
1
 74
1
 75
1
 94
63
  0
MLINESTYLE
  5
22
102
{ACAD_REACTORS
330
10
102
}
330
10
100
AcDbMlineStyle
  2
Standard
 70
0
  3

 62
256
 51
90.0
 52
90.0
 71
2
 49
0.5
 62
256
  6
BYLAYER
 49
-0.5
 62
256
  6
BYLAYER
  0
MLEADERSTYLE
  5
2C
102
{ACAD_REACTORS
330
F
102
}
330
F
100
AcDbMLeaderStyle
179
2
170
2
171
1
172
0
 90
2
 40
0.0
 41
0.0
173
1
 91
-1056964608
 92
-2
290
1
 42
2.0
291
1
 43
8.0
  3
Standard
 44
4.0
300

342
29
174
1
175
1
176
0
178
1
 93
-1056964608
 45
4.0
292
0
297
0
 46
4.0
 94
-1056964608
 47
1.0
 49
1.0
140
1.0
294
1
141
0.0
177
0
142
1.0
295
0
296
0
143
3.75
271
0
272
9
273
9
  0
DICTIONARY
  5
2D
330
A
100
AcDbDictionary
280
1
281
1
  3
CREATED_BY_EZDXF
350
2E
  3
WRITTEN_BY_EZDXF
350
273
  0
DICTIONARYVAR
  5
2E
330
2D
100
DictionaryVariables
280
0
  1
1.4.3 @ 2026-02-10T12:17:15.701337+00:00
  0
DICTIONARYVAR
  5
273
330
2D
100
DictionaryVariables
280
0
  1
1.4.3 @ 2026-02-10T12:17:15.717454+00:00
  0
ENDSEC
  0
EOF
