<svg xmlns="http://www.w3.org/2000/svg" width="250" height="250" fill="none" viewBox="0 0 250 250">
<!-- SVG created with Arrow, by QuiverAI (https://quiver.ai) -->
  <path d="m249.2 0.81h-248.5v248.4h248.5v-248.4z" fill="#FEFFFE"/>
  <path d="m214.8 3.31h-185.7v215.9h185.7v-215.9z" fill="#D6DBDD" stroke="#5A6872" stroke-miterlimit="10" stroke-width=".5"/>
  <path d="m214.6 225.1 1.35-0.62-2.3-3.32h-183.8l-0.79 3.75 1.06 0.19h184.4z" fill="#798086" stroke="#5A6872" stroke-miterlimit="10" stroke-width=".5"/>
  <path d="m32.08 222.3 1.06-1.45h178.9l0.98 1.45h-181z" fill="#5A6872" stroke="#5A6872" stroke-miterlimit="10" stroke-width=".5"/>
  <path d="m33.36 224.3v-1.66l0.72-0.29h2.04l0.59 0.29v1.66h-3.35z" fill="#5A6872" stroke="#5A6872" stroke-miterlimit="10" stroke-width=".5"/>
  <path d="m41.86 224.3v-1.66l0.72-0.29h2.04l0.59 0.29v1.66h-3.35z" fill="#5A6872" stroke="#5A6872" stroke-miterlimit="10" stroke-width=".5"/>
  <path d="m76.78 224.3v-1.66l0.72-0.29h2.04l0.59 0.29v1.66h-3.35z" fill="#5A6872" stroke="#5A6872" stroke-miterlimit="10" stroke-width=".5"/>
  <path d="m85.28 224.3v-1.66l0.72-0.29h2.04l0.6 0.29v1.66h-3.36z" fill="#5A6872" stroke="#5A6872" stroke-miterlimit="10" stroke-width=".5"/>
  <path d="m93.79 224.3v-1.66l0.72-0.29h2.04l0.59 0.29v1.66h-3.35z" fill="#5A6872" stroke="#5A6872" stroke-miterlimit="10" stroke-width=".5"/>
  <path d="m102.3 224.3v-1.66l0.72-0.29h2.04l0.59 0.29v1.66h-3.35z" fill="#5A6872" stroke="#5A6872" stroke-miterlimit="10" stroke-width=".5"/>
  <path d="m110.8 224.3v-1.66l0.72-0.29h2.04l0.59 0.29v1.66h-3.35z" fill="#5A6872" stroke="#5A6872" stroke-miterlimit="10" stroke-width=".5"/>
  <path d="m119.3 224.3v-1.66l0.72-0.29h2.04l0.59 0.29v1.66h-3.35z" fill="#5A6872" stroke="#5A6872" stroke-miterlimit="10" stroke-width=".5"/>
  <path d="m133 224.3v-1.66l0.72-0.29h2.04l0.59 0.29v1.66h-3.35z" fill="#5A6872" stroke="#5A6872" stroke-miterlimit="10" stroke-width=".5"/>
  <path d="m148.2 224.3v-1.66l0.72-0.29h2.04l0.6 0.29v1.66h-3.36z" fill="#5A6872" stroke="#5A6872" stroke-miterlimit="10" stroke-width=".5"/>
  <path d="m156.7 224.3v-1.66l0.72-0.29h2.04l0.59 0.29v1.66h-3.35z" fill="#5A6872" stroke="#5A6872" stroke-miterlimit="10" stroke-width=".5"/>
  <path d="m168.2 224.3v-1.66l0.72-0.29h2.04l0.59 0.29v1.66h-3.35z" fill="#5A6872" stroke="#5A6872" stroke-miterlimit="10" stroke-width=".5"/>
  <path d="m195.1 226.1v-1.66l0.72-0.29h2.98l0.6 0.29v1.66h-4.3z" fill="#5A6872" stroke="#5A6872" stroke-miterlimit="10" stroke-width=".5"/>
  <path d="m46.15 226.6v-1.66l0.72-0.29h2.98l0.59 0.29v1.66h-4.29z" fill="#5A6872" stroke="#5A6872" stroke-miterlimit="10" stroke-width=".5"/>
  <path d="m68.77 226.1v-1.66l0.72-0.29h2.98l0.6 0.29v1.66h-4.3z" fill="#5A6872" stroke="#5A6872" stroke-miterlimit="10" stroke-width=".5"/>
  <path d="m214 5.01h-11.1v27.9h11.1v-27.9z" fill="#F4F7F9" stroke="#969EA3" stroke-miterlimit="10" stroke-width=".5"/>
  <path d="m214 33.68h-11.1v22.3h11.1v-22.3z" fill="#F4F7F9" stroke="#969EA3" stroke-miterlimit="10" stroke-width=".5"/>
  <path d="m214 56.23h-11.1v22.78h11.1v-22.78z" fill="#F4F7F9" stroke="#969EA3" stroke-miterlimit="10" stroke-width=".5"/>
  <path d="m214 102.5h-11.1v72.46h11.1v-72.46z" fill="#F4F7F9" stroke="#969EA3" stroke-miterlimit="10" stroke-width=".5"/>
  <path d="m214 175.3h-11.1v21.51h11.1v-21.51z" fill="#E6E9EB" stroke="#969EA3" stroke-miterlimit="10" stroke-width=".5"/>
  <path d="m214 197.3h-11.1v21.52h11.1v-21.52z" fill="#D9DEE1" stroke="#969EA3" stroke-miterlimit="10" stroke-width=".5"/>
  <path d="m29.92 5.01h11.1v27.9h-11.1v-27.9z" fill="#F4F7F9" stroke="#969EA3" stroke-miterlimit="10" stroke-width=".5"/>
  <path d="m29.92 33.68h11.1v21.93h-11.1v-21.93z" fill="#F4F7F9" stroke="#969EA3" stroke-miterlimit="10" stroke-width=".5"/>
  <path d="m29.92 56.11h11.1v22.79h-11.1v-22.79z" fill="#F4F7F9" stroke="#969EA3" stroke-miterlimit="10" stroke-width=".5"/>
  <path d="m29.92 102h11.1v72.46h-11.1v-72.46z" fill="#F4F7F9" stroke="#969EA3" stroke-miterlimit="10" stroke-width=".5"/>
  <path d="m29.92 196.4h11.1v21.92h-11.1v-21.92z" fill="#E6E9EB" stroke="#969EA3" stroke-miterlimit="10" stroke-width=".5"/>
  <path d="m29.92 174.6h11.1v21.51h-11.1v-21.51z" fill="#F4F7F9" stroke="#969EA3" stroke-miterlimit="10" stroke-width=".5"/>
  <path d="m44.17 5.01 0.21 213.8h156.9l-0.21-213.8h-156.9z" fill="#F4F7F9" stroke="#969EA3" stroke-miterlimit="10" stroke-width=".5"/>
  <path d="m45.17 6.95v2.56l2.92 3.92v0.83h2.49v-1.36h14.33v1.01h1.6v-1.36h7.3v1.36h1.36v1.01h2.04v-1.01h19.78v0.83h2.04v-1.21h2.19v1.01h2.04v-1.01h10.85v0.83h2.04v-1.01h6.27v1.01h2.04v-1.25h5.85v1.01h2.04v-1.01h11.47v1.2h2.04v-1.01h4.5v1.21h2.04v-1.01h18.49v1.21h2.04v-1.21h4.29v1.01h2.04v-1.61h4.87v0.83h2.04v-0.83h8.71v1.36h2.87v-1.36l2.36-3.23v-2.72h-154.9z" fill="#B5BABF" stroke="#5A6872" stroke-miterlimit="10" stroke-width=".5"/>
  <path d="m45.61 7.24 2.61 5.12h2.04l-0.53-2.18h15.51l0.83 2.04h1.61l-1.17-2.84h7.57l2.04 3.52h1.36l-0.83-2.72h20.56l0.83 2.56h1.83l-0.64-3.07h2.49l0.53 2.04h11.97l0.53-2.04h1.51l0.43 2.04h6.16l-0.1-2.3h1.45l0.21 2.3h5.69l0.53-2.04h1.46l0.26 2.04h11.68l0.21-2.3h1.56l-0.11 2.81h4.46l0.21-2.04h1.93l-0.21 2.4h18.03l1.7-3.48h1.6l-0.48 2.98h4.08l0.93-2.04h1.84l-0.63 2.04h6.06l0.53-1.61h1.83l-0.43 1.86h7.95l1.36-3.07 1.83 0.83v2.52l1.71-1.36v-4.01h-154.4z" fill="#D6DBDD" stroke="#5A6872" stroke-miterlimit="10" stroke-width=".5"/>
  <path d="m45.45 16.01 0.93 1.45h1.45l0.93-1.94h1.28l0.64 1.7h25.55l0.72-1.7h1.17l0.43 1.94h18.6l0.83-1.94h1.1l0.53 1.94h2.15l0.43-1.26h1.18l0.43 1.26h11.01l0.83-1.55h1.02l0.43 1.55h5.33l0.22-1.55h1.06l0.43 1.55h5.97l0.53-1.35h1.06l0.43 1.35h12.33l0.43-1.75h1.18l0.43 1.75h4.7l0.43-1.35h1.17l-0.21 1.35h17.74l0.83-1.75h1.26l0.43 1.51h4.59l0.72-1.31h1.36l-0.43 1.31h7.41l0.62-1.11h1.27l0.32 1.11h7.53l0.93-1.75h1.33l1.29 1.75 0.53-1.21h-0.26v1.01l-2.78 3.13-0.16 1.56h-148l-0.93-1.94-2.78-2.55v-1.21h0.03z" fill="#969EA3" stroke="#5A6872" stroke-miterlimit="10" stroke-width=".5"/>
  <path d="m45.42 17.22 2.41 2.93h1.03l0.27-3.24h0.69l-0.11 3.24h26.94l0.53-3.52h1.05l0.43 3.52h18.65l0.53-3.52h0.87l0.63 3.52h2.59l0.53-3.03h0.86l0.37 3.03h11.52l0.63-3.13h0.86l0.63 3.13h5.36l0.11-3.34h0.78l0.43 3.34h6.3l1.06-3.13h0.78l0.63 3.13h11.78l0.73-3.34h0.78l-0.11 3.34h5.23l0.43-2.36h0.78l0.21 2.36h17.92l1.17-3.13h0.87l0.37 3.13h4.69l1.06-2.26h0.72l-0.43 2.26h7.73l0.73-2.15h0.73l0.32 2.15h7.85l1.94-3.34h0.77l0.83 3.34 0.21-2.93" stroke="#5A6872" stroke-miterlimit="10" stroke-width=".5"/>
  <path d="m45.53 19.16 2.67 2.35h149.4l2.46-2.35" stroke="#5A6872" stroke-miterlimit="10" stroke-width=".5"/>
  <path d="m45.61 22.09h154.1" stroke="#5A6872" stroke-miterlimit="10" stroke-width=".5"/>
  <path d="m45.42 30.52 1.46 1.45v1.56l-1.35 1.35" stroke="#5A6872" stroke-miterlimit="10" stroke-width=".5"/>
  <path d="m200 30.73-1.27 1.45v1.66l1.16 1.35" stroke="#5A6872" stroke-miterlimit="10" stroke-width=".5"/>
  <path d="m45.42 46.01 1.46 1.45v1.56l-1.35 1.35" stroke="#5A6872" stroke-miterlimit="10" stroke-width=".5"/>
  <path d="m200 46.22-1.27 1.45v1.66l1.16 1.35" stroke="#5A6872" stroke-miterlimit="10" stroke-width=".5"/>
  <path d="m45.42 78.76 1.46 1.45v1.55l-1.35 1.36" stroke="#5A6872" stroke-miterlimit="10" stroke-width=".5"/>
  <path d="m200 78.97-1.27 1.45v1.65l1.16 1.36" stroke="#5A6872" stroke-miterlimit="10" stroke-width=".5"/>
  <path d="m45.42 118.6h154.7" stroke="#969EA3" stroke-miterlimit="10" stroke-width=".75"/>
  <path d="m45.42 152.4h154.7" stroke="#969EA3" stroke-miterlimit="10" stroke-width=".75"/>
  <path d="m45.42 174.2h154.7" stroke="#969EA3" stroke-miterlimit="10" stroke-width=".75"/>
  <path d="m45.42 212.2h154.7" stroke="#969EA3" stroke-miterlimit="10" stroke-width=".75"/>
  <path d="m122.2 15.71v202.3" stroke="#969EA3" stroke-miterlimit="10" stroke-width=".5"/>
  <path d="m45.17 17.12v200.9" stroke="#969EA3" stroke-miterlimit="10" stroke-width=".5"/>
  <path d="m200 17.12v200.9" stroke="#969EA3" stroke-miterlimit="10" stroke-width=".5"/>
  <path d="m45.42 203.2h154.2" stroke="#969EA3" stroke-miterlimit="10" stroke-width=".75"/>
  <path d="m45.42 194.2h154.2" stroke="#969EA3" stroke-miterlimit="10" stroke-width=".75"/>
  <path d="m45.42 185.2h154.2" stroke="#969EA3" stroke-miterlimit="10" stroke-width=".75"/>
  <path d="m45.42 180.3h154.2" stroke="#969EA3" stroke-miterlimit="10" stroke-width=".75"/>
  <path d="m49.13 16.63v201.2" stroke="#969EA3" stroke-miterlimit="10" stroke-width=".5"/>
  <path d="m53.02 16.63v201.2" stroke="#969EA3" stroke-miterlimit="10" stroke-width=".5"/>
  <path d="m57.11 16.63v201.2" stroke="#969EA3" stroke-miterlimit="10" stroke-width=".5"/>
  <path d="m61.41 16.63v201.2" stroke="#969EA3" stroke-miterlimit="10" stroke-width=".5"/>
  <path d="m66.18 16.63v201.2" stroke="#969EA3" stroke-miterlimit="10" stroke-width=".5"/>
  <path d="m71.82 16.63v201.2" stroke="#969EA3" stroke-miterlimit="10" stroke-width=".5"/>
  <path d="m77.7 16.63v201.2" stroke="#969EA3" stroke-miterlimit="10" stroke-width=".5"/>
  <path d="m83.76 16.63v201.2" stroke="#969EA3" stroke-miterlimit="10" stroke-width=".5"/>
  <path d="m90.69 16.63v201.2" stroke="#969EA3" stroke-miterlimit="10" stroke-width=".5"/>
  <path d="m97.93 16.63v201.2" stroke="#969EA3" stroke-miterlimit="10" stroke-width=".5"/>
  <path d="m104.8 16.63v201.2" stroke="#969EA3" stroke-miterlimit="10" stroke-width=".5"/>
  <path d="m112 16.63v201.2" stroke="#969EA3" stroke-miterlimit="10" stroke-width=".5"/>
  <path d="m120.2 16.63v201.2" stroke="#969EA3" stroke-miterlimit="10" stroke-width=".5"/>
  <path d="m127.6 16.63v201.2" stroke="#969EA3" stroke-miterlimit="10" stroke-width=".5"/>
  <path d="m134.7 16.63v201.2" stroke="#969EA3" stroke-miterlimit="10" stroke-width=".5"/>
  <path d="m141.8 16.63v201.2" stroke="#969EA3" stroke-miterlimit="10" stroke-width=".5"/>
  <path d="m148.6 16.63v201.2" stroke="#969EA3" stroke-miterlimit="10" stroke-width=".5"/>
  <path d="m158.2 16.63v201.2" stroke="#969EA3" stroke-miterlimit="10" stroke-width=".5"/>
  <path d="m164.1 16.63v201.2" stroke="#969EA3" stroke-miterlimit="10" stroke-width=".5"/>
  <path d="m170.9 16.63v201.2" stroke="#969EA3" stroke-miterlimit="10" stroke-width=".5"/>
  <path d="m177.2 16.63v201.2" stroke="#969EA3" stroke-miterlimit="10" stroke-width=".5"/>
  <path d="m183.4 16.63v201.2" stroke="#969EA3" stroke-miterlimit="10" stroke-width=".5"/>
  <path d="m188.9 16.63v201.2" stroke="#969EA3" stroke-miterlimit="10" stroke-width=".5"/>
  <path d="m193.6 16.63v201.2" stroke="#969EA3" stroke-miterlimit="10" stroke-width=".5"/>
  <path d="m197.5 16.63v201.2" stroke="#969EA3" stroke-miterlimit="10" stroke-width=".5"/>
  <path d="m118.2 22.71h6.71v125.5h-6.71v-125.5z" fill="#FEFFFE" fill-opacity=".75" stroke="#D6DBDD" stroke-miterlimit="10" stroke-width=".5"/>
  <path d="m120.5 155.5h4.3v13.22h-4.3v-13.22z" fill="#FEFFFE" fill-opacity=".75" stroke="#D6DBDD" stroke-miterlimit="10" stroke-width=".5"/>
  <path d="m31.89 124.3v14.59l1.17 0.83v-0.63h4.08l0.21 0.63 0.43-0.83v-14.59h-5.89z" fill="#E6E9EB" stroke="#969EA3" stroke-miterlimit="10" stroke-width=".5"/>
  <path d="m35.01 126.1-0.52 2.36 0.63 1.65h1.27l0.72-1.65-0.62-2.36h-1.48z" fill="#F8D740" stroke="#5A6872" stroke-miterlimit="10" stroke-width=".5"/>
  <path d="m33.85 136.2 0.95-1.01h2.98l0.62 1.01v3.34l-0.62 0.43h-3.19l-0.73-0.84-0.01-2.93z" fill="#B9BFC5" stroke="#969EA3" stroke-miterlimit="10" stroke-width=".5"/>
  <path d="m207.4 124.3v14.59l1.16 0.83v-0.63h2.78l0.72 0.63 0.43-0.83v-14.59h-5.09z" fill="#E6E9EB" stroke="#969EA3" stroke-miterlimit="10" stroke-width=".5"/>
  <path d="m209.1 126.1-0.21 2.36 0.43 1.07h1.45l0.73-1.07-0.21-2.36h-2.19z" fill="#F8D740" stroke="#5A6872" stroke-miterlimit="10" stroke-width=".5"/>
  <path d="m208.3 135.4 0.63-0.63h2.25l0.63 0.63v3.68l-0.63 0.62h-2.25l-0.63-0.62v-3.68z" fill="#B9BFC5" stroke="#969EA3" stroke-miterlimit="10" stroke-width=".5"/>
  <path d="m41.23 178.1 2.67-3.13h34.92l1.6 1.66v46.29l-4.08 2.2h-32.92l-2.19-1.21v-45.81z" fill="#F0ECD2" stroke="#B9B19C" stroke-miterlimit="10" stroke-width=".5"/>
  <path d="m45.94 189.4h25.17v20.77h-25.17v-20.77z" fill="#333" stroke="#5A6872" stroke-miterlimit="10" stroke-width=".5"/>
  <path d="m54.06 192.4 0.72-0.72h13.95l0.72 0.72v11.78l-0.72 0.62h-13.95l-0.72-0.62v-11.78z" fill="#515151" stroke="#333" stroke-miterlimit="10" stroke-width=".5"/>
  <path d="m58.03 195 0.53-0.53h7.46l0.53 0.53v7.07l-0.53 0.53h-7.46l-0.53-0.53v-7.07z" fill="#FEFFFE" opacity=".25" stroke="#FEFFFE" stroke-miterlimit="10" stroke-width=".5"/>
  <path d="m46.05 209.7 7.67-4.57 14.48 0.3 2.92 3.71-0.31 0.73-24.76-0.17z" fill="#6F6259" stroke="#5A6872" stroke-miterlimit="10" stroke-width=".5"/>
  <path d="m55.91 207.4 0.53-0.53h0.96l0.32 0.53v0.43l-0.43 0.32h-0.96l-0.42-0.32v-0.43z" fill="#F8D740" stroke="#5A6872" stroke-miterlimit="10" stroke-width=".5"/>
  <path d="m61.75 207.4 0.53-0.53h0.96l0.32 0.53v0.43l-0.43 0.32h-0.96l-0.42-0.32v-0.43z" fill="#F8D740" stroke="#5A6872" stroke-miterlimit="10" stroke-width=".5"/>
  <path d="m50.83 183.5 0.53-0.53h8.93l0.53 0.53v1.55l-0.53 0.53h-8.93l-0.53-0.53v-1.55z" stroke="#B9B19C" stroke-miterlimit="10" stroke-width=".5"/>
  <path d="m48.15 183.3 0.73-0.43 0.83 0.43v1.76l-0.83 0.43-0.73-0.43v-1.76z" fill="#F8D740" stroke="#5A6872" stroke-miterlimit="10" stroke-width=".5"/>
  <path d="m65.76 183.3 0.42-0.43h3.13l0.43 0.43v1.45l-0.43 0.43h-3.13l-0.42-0.43v-1.45z" fill="#333" stroke="#5A6872" stroke-miterlimit="10" stroke-width=".5"/>
  <path d="m66.71 183.9 0.43-0.43 0.53 0.43v0.43l-0.53 0.43-0.43-0.43v-0.43z" fill="#FEFFFE" stroke="#5A6872" stroke-miterlimit="10" stroke-width=".5"/>
  <path d="m165.7 177.6 1.94-2.83h33.36l2.92 3.72v45.82l-2.92 0.83h-31.9l-3.3-1.85-0.1-45.69z" fill="#F0ECD2" stroke="#B9B19C" stroke-miterlimit="10" stroke-width=".5"/>
  <path d="m173.4 189.9h25.06v20.13h-25.06v-20.13z" fill="#333" stroke="#5A6872" stroke-miterlimit="10" stroke-width=".5"/>
  <path d="m176.2 193.3 0.72-0.72h11.47l0.73 0.72v9.53l-0.73 0.62h-11.47l-0.72-0.62v-9.53z" fill="#515151" stroke="#333" stroke-miterlimit="10" stroke-width=".5"/>
  <path d="m173.4 208.5 7.46-3.13h11.26l5.22 3.13v1.11l-23.94-0.21v-0.9z" fill="#6F6259" stroke="#5A6872" stroke-miterlimit="10" stroke-width=".5"/>
  <path d="m175.1 183.9 0.63-0.63 1.05 0.63v1.01l-1.05 0.53-0.63-0.53v-1.01z" fill="#F8D740" stroke="#5A6872" stroke-miterlimit="10" stroke-width=".5"/>
  <path d="m180.1 183.9 0.42-0.43h9.3l0.43 0.43v0.73l-0.43 0.43h-9.3l-0.42-0.43v-0.73z" stroke="#B9B19C" stroke-miterlimit="10" stroke-width=".5"/>
  <path d="m193.4 183.6 0.53-0.53 2.04 0.53v1.01l-2.04 0.43-0.53-0.43v-1.01z" fill="#333" stroke="#5A6872" stroke-miterlimit="10" stroke-width=".5"/>
  <path d="m182.7 195.9h3.13l0.32 0.43v0.43l-0.43 0.32h-3.02l-0.43-0.32v-0.43l0.43-0.43z" fill="#515151" stroke="#333" stroke-miterlimit="10" stroke-width=".5"/>
  <path d="m182.7 198.8h3.13l0.32 0.43v0.43l-0.43 0.32h-3.02l-0.43-0.32v-0.43l0.43-0.43z" fill="#515151" stroke="#333" stroke-miterlimit="10" stroke-width=".5"/>
  <path d="m87.25 147.6v5.69h71.19v-5.69h-71.19z" fill="#ECECEC" stroke="#B9B19C" stroke-miterlimit="10" stroke-width=".5"/>
  <path d="m89.08 154.5h4.29v48.63h-4.29v-48.63z" fill="#ECECEC" stroke="#B9B19C" stroke-miterlimit="10" stroke-width=".5"/>
  <path d="m151.4 154.5h5.43v48.63h-5.43v-48.63z" fill="#ECECEC" stroke="#B9B19C" stroke-miterlimit="10" stroke-width=".5"/>
  <path d="m94.1 181h57.02v2.72h-57.02v-2.72z" fill="#B9B19C" stroke="#969EA3" stroke-miterlimit="10" stroke-width=".5"/>
  <path d="m93.79 195.4h57.45v2.83h-57.45v-2.83z" fill="#ECECEC" stroke="#B9B19C" stroke-miterlimit="10" stroke-width=".5"/>
  <path d="m60.01 122.6 12.8-2.46h0.21v-9.95h9.4v9.64l13.74-1.65v2.17l-14.9 0.52v1.36h13.85v2.66h-13.95v2.14l-2.78-0.42v-2.56h-2.88l-4.49 3.52h-7.46v-2.26l7.14-0.31 3.12-2.56v-0.56l-12.8 2.71-1-1.99z" fill="#333" stroke="#5A6872" stroke-miterlimit="10" stroke-width=".5"/>
  <path d="m72.7 120.7h9.93v1.01h-9.93v-1.01z" fill="#B9B19C" stroke="#969EA3" stroke-miterlimit="10" stroke-width=".5"/>
  <path d="m147.8 118.7 13.85-0.63v-8.19h9.93v9.23l13.12 3.23-0.63 1.65-11.96-3.43v1.65l9.39 4.49-0.21 2.36-7.14-1.65-5.34-3.72h-2.24v3.13l-2.68-0.53v-2.83l-13.84-0.21v-2.16l11.06-0.11v-1.21l-13.31-0.1v-0.97z" fill="#333" stroke="#5A6872" stroke-miterlimit="10" stroke-width=".5"/>
  <path d="m161.2 120.2h10.58v1.01h-10.58v-1.01z" fill="#B9B19C" stroke="#969EA3" stroke-miterlimit="10" stroke-width=".5"/>
  <path d="m72.7 45.73v1.94h13.01v-1.94h-13.01z" fill="#B9B19C" stroke="#969EA3" stroke-miterlimit="10" stroke-width=".5"/>
  <path d="m73.43 31.86v13.15h12.28v-13.15h-1.17l-0.72 1.66h-8.76l-0.63-1.66h-1z" fill="#333" stroke="#5A6872" stroke-miterlimit="10" stroke-width=".5"/>
  <path d="m158.9 45.41v1.94h13.6v-1.94h-13.6z" fill="#B9B19C" stroke="#969EA3" stroke-miterlimit="10" stroke-width=".5"/>
  <path d="m159.9 31.14v13.15h11.67v-13.15h-1.16l-0.63 1.36h-8.5l-0.83-1.36h-0.55z" fill="#333" stroke="#5A6872" stroke-miterlimit="10" stroke-width=".5"/>
</svg>