<svg xmlns="http://www.w3.org/2000/svg" width="250" height="250" fill="none" viewBox="0 0 250 250">
<!-- SVG created with Arrow, by QuiverAI (https://quiver.ai) -->
  <path d="m214.4 241.8-5.14-1.74 1.92-1.2 2.99 0.93 0.23 2.01z" fill="#999" opacity=".25"/>
  <path d="m34.98 241.4 2.05-3.51 1.88-0.08 0.79 1.41-1.29 1.91-3.43 0.27z" fill="#999" opacity=".25"/>
  <path d="m42.02 242.7 2.51-2.98 159.4-0.16 3.87 2.76-1.69 1.31-164.1-0.93z" fill="#999" opacity=".25"/>
  <path d="m213.7 3.11h-179.7v232.8h179.7v-232.8z" stroke="#CED4DA" stroke-miterlimit="10" stroke-width="1.2"/>
  <path d="m44.49 4.12v50.58" stroke="#CED4DA" stroke-miterlimit="10" stroke-width="1.2"/>
  <path d="m204.2 4.12v50.58" stroke="#CED4DA" stroke-miterlimit="10" stroke-width="1.2"/>
  <path d="m213.1 54.62h-177.7" stroke="#CED4DA" stroke-miterlimit="10" stroke-width="1.2"/>
  <path d="m213.1 107.1h-177.7" stroke="#CED4DA" stroke-miterlimit="10" stroke-width=".5"/>
  <path d="m212.9 130.5h-177.4" stroke="#CED4DA" stroke-miterlimit="10" stroke-width=".5"/>
  <path d="m212.9 157.7h-177.4" stroke="#CED4DA" stroke-miterlimit="10" stroke-width="1.2"/>
  <path d="m212.9 192.9h-177.4" stroke="#CED4DA" stroke-miterlimit="10" stroke-width=".5"/>
  <path d="m212.5 214.3h-176.5" stroke="#CED4DA" stroke-miterlimit="10" stroke-width="1.2"/>
  <path d="m212.5 234.8h-176.5" stroke="#CED4DA" stroke-miterlimit="10" stroke-width=".7"/>
  <path d="m212.5 192.7v42.7" stroke="#CED4DA" stroke-miterlimit="10" stroke-width=".7"/>
  <path d="m212.5 158v34.28" stroke="#CED4DA" stroke-miterlimit="10" stroke-width="1.2"/>
  <path d="m212.5 130.4v26.96" stroke="#CED4DA" stroke-miterlimit="10" stroke-width=".7"/>
  <path d="m212.5 107.1v22.96" stroke="#CED4DA" stroke-miterlimit="10" stroke-width=".7"/>
  <path d="m212.5 54.77v51.51" stroke="#CED4DA" stroke-miterlimit="10" stroke-width="1.2"/>
  <path d="m44.49 214.3v20.57" stroke="#CED4DA" stroke-miterlimit="10" stroke-width="1.2"/>
  <path d="m44.49 192.7v21.14" stroke="#CED4DA" stroke-miterlimit="10" stroke-width=".7"/>
  <path d="m44.49 158v34.28" stroke="#CED4DA" stroke-miterlimit="10" stroke-width="1.2"/>
  <path d="m44.49 137.8v19.68" stroke="#CED4DA" stroke-miterlimit="10" stroke-width=".7"/>
  <path d="m44.49 108.9v20" stroke="#CED4DA" stroke-miterlimit="10" stroke-width=".7"/>
  <path d="m124.2 3.73v14.18" stroke="#CED4DA" stroke-miterlimit="10" stroke-width="1.2"/>
  <path d="m124.2 17.91h-77.95v88.1h77.95v-88.1z" stroke="#828282" stroke-miterlimit="10" stroke-width=".5"/>
  <path d="m202.7 17.91h-76.8v88.1h76.8v-88.1z" stroke="#828282" stroke-miterlimit="10" stroke-width=".5"/>
  <path d="m69.39 18.15h-22.66v22.81h22.66v-22.81z" fill="#828282" fill-opacity=".75"/>
  <path d="m97.71 18.15h-25.2v22.81h25.2v-22.81z" fill="#828282" fill-opacity=".75"/>
  <path d="m123.6 18.15h-24.96v22.81h24.96v-22.81z" fill="#828282" fill-opacity=".75"/>
  <path d="m150.4 18.15h-24.27v22.81h24.27v-22.81z" fill="#828282" fill-opacity=".75"/>
  <path d="m176.4 18.15h-24.43v22.81h24.43v-22.81z" fill="#828282" fill-opacity=".75"/>
  <path d="m202.2 18.15h-23.22v22.81h23.22v-22.81z" fill="#828282" fill-opacity=".75"/>
  <path d="m69.39 43.41h-22.66v11.35h22.66v-11.35z" fill="#828282" fill-opacity=".75"/>
  <path d="m69.39 56.09h-22.66v8.04h22.66v-8.04z" fill="#828282" fill-opacity=".75"/>
  <path d="m69.39 65.22h-22.66v19.28h22.66v-19.28z" fill="#828282" fill-opacity=".75"/>
  <path d="m69.39 86.81h-22.66v18.27h22.66v-18.27z" fill="#828282" fill-opacity=".75"/>
  <path d="m97.59 43.41h-25.2v11.35h25.2v-11.35z" fill="#828282" fill-opacity=".75"/>
  <path d="m97.59 56.09h-25.2v8.04h25.2v-8.04z" fill="#828282" fill-opacity=".75"/>
  <path d="m97.59 65.22h-25.2v19.28h25.2v-19.28z" fill="#828282" fill-opacity=".75"/>
  <path d="m97.59 86.81h-25.2v18.27h25.2v-18.27z" fill="#828282" fill-opacity=".75"/>
  <path d="m123.4 43.41h-24.96v11.35h24.96v-11.35z" fill="#828282" fill-opacity=".75"/>
  <path d="m123.4 56.09h-24.96v8.04h24.96v-8.04z" fill="#828282" fill-opacity=".75"/>
  <path d="m123.4 65.22h-24.96v19.28h24.96v-19.28z" fill="#828282" fill-opacity=".75"/>
  <path d="m123.4 86.81h-24.96v18.27h24.96v-18.27z" fill="#828282" fill-opacity=".75"/>
  <path d="m150.2 43.41h-24.43v11.35h24.43v-11.35z" fill="#828282" fill-opacity=".75"/>
  <path d="m150.2 56.09h-24.43v8.04h24.43v-8.04z" fill="#828282" fill-opacity=".75"/>
  <path d="m150.2 65.22h-24.43v19.28h24.43v-19.28z" fill="#828282" fill-opacity=".75"/>
  <path d="m150.2 86.81h-24.43v18.27h24.43v-18.27z" fill="#828282" fill-opacity=".75"/>
  <path d="m176.3 43.41h-24.43v11.35h24.43v-11.35z" fill="#828282" fill-opacity=".75"/>
  <path d="m176.3 56.09h-24.43v8.04h24.43v-8.04z" fill="#828282" fill-opacity=".75"/>
  <path d="m176.3 65.22h-24.43v19.28h24.43v-19.28z" fill="#828282" fill-opacity=".75"/>
  <path d="m176.3 86.81h-24.43v18.27h24.43v-18.27z" fill="#828282" fill-opacity=".75"/>
  <path d="m202.4 43.41h-23.22v11.35h23.22v-11.35z" fill="#828282" fill-opacity=".75"/>
  <path d="m202.4 56.09h-23.22v8.04h23.22v-8.04z" fill="#828282" fill-opacity=".75"/>
  <path d="m202.4 65.22h-23.22v19.28h23.22v-19.28z" fill="#828282" fill-opacity=".75"/>
  <path d="m202.4 86.81h-23.22v18.27h23.22v-18.27z" fill="#828282" fill-opacity=".75"/>
  <path d="m91.47 109.1v19.35h66.57v-19.35" stroke="#CED4DA" stroke-miterlimit="10" stroke-width=".5"/>
  <path d="m45.01 17.91v88.2" stroke="#828282" stroke-miterlimit="10" stroke-width=".5"/>
  <path d="m71.61 17.91v88.2" stroke="#828282" stroke-miterlimit="10" stroke-width=".5"/>
  <path d="m98.17 17.91v88.2" stroke="#828282" stroke-miterlimit="10" stroke-width=".5"/>
  <path d="m124.8 17.91v88.2" stroke="#828282" stroke-miterlimit="10" stroke-width=".5"/>
  <path d="m151.4 17.91v88.2" stroke="#828282" stroke-miterlimit="10" stroke-width=".5"/>
  <path d="m178 17.91v88.2" stroke="#828282" stroke-miterlimit="10" stroke-width=".5"/>
  <path d="m202.9 17.91v88.2" stroke="#828282" stroke-miterlimit="10" stroke-width=".5"/>
  <path d="m45.91 137.5h161.2v21.67h-164.3v-20.52l1.15-1.15h1.95z" fill="#F4F7F9" stroke="#B8BFC4" stroke-miterlimit="10" stroke-width=".7"/>
  <path d="m204.7 160.9h-159.5v30.19h159.5v-30.19z" fill="#CED7DF" stroke="#202223" stroke-miterlimit="10" stroke-width=".7"/>
  <path d="m203.9 162h-157.6v27.66h157.6v-27.66z" fill="#202223" stroke="#CED7DF" stroke-miterlimit="10" stroke-width=".5"/>
  <path d="m204.6 194.2h-160.3v42.39h160.3v-42.39z" fill="#D9DCE1" stroke="#6C757D" stroke-miterlimit="10" stroke-width=".5"/>
  <path d="m84.41 194.2v42.08" stroke="#6C757D" stroke-miterlimit="10" stroke-width=".5"/>
  <path d="m124.9 194.2v42.08" stroke="#6C757D" stroke-miterlimit="10" stroke-width=".5"/>
  <path d="m165.4 194.2v42.08" stroke="#6C757D" stroke-miterlimit="10" stroke-width=".5"/>
  <path d="m58.34 204.4h-6.98v2.43h6.98v-2.43z" fill="#828A8F"/>
  <path d="m76.9 204.4h-7.44v2.2h7.44v-2.2z" fill="#828A8F"/>
  <path d="m97.47 204.4h-7.44v2.2h7.44v-2.2z" fill="#828A8F"/>
  <path d="m117.3 204.4h-7.9v2.2h7.9v-2.2z" fill="#828A8F"/>
  <path d="m139.8 204.3h-7.9v2.2h7.9v-2.2z" fill="#828A8F"/>
  <path d="m158.7 204.3h-7.9v2.2h7.9v-2.2z" fill="#828A8F"/>
  <path d="m178.9 204.4h-7.44v2.2h7.44v-2.2z" fill="#828A8F"/>
  <path d="m197.4 204.4h-7.06v2.2h7.06v-2.2z" fill="#828A8F"/>
  <path d="m78.61 140v18.49" stroke="#B8BFC4" stroke-miterlimit="10" stroke-width=".5"/>
  <path d="m170.1 139.9v18.8" stroke="#B8BFC4" stroke-miterlimit="10" stroke-width=".5"/>
  <path d="m110.6 140.9h22.61v16.62h-22.61v-16.62z" fill="#525D69" stroke="#060606" stroke-miterlimit="10" stroke-width=".2"/>
  <path d="m136.4 143.8h3.45v3.45h-3.45v-3.45z" fill="url(#paint0_linear_2017_21491)"/>
  <path d="m141.8 143.8h1.66v1.92h-1.66v-1.92z" fill="#595959"/>
  <path d="m160.6 145.4h1.84v0.31h-1.84v-0.31z" fill="#595959"/>
  <path d="m45.95 144.7h6.06v2.08h-6.06v-2.08z" fill="#B8BFC4"/>
  <path d="m81.73 144.7h4.18v1.77h-4.18v-1.77z" fill="#B8BFC4"/>
  <path d="m105.1 144.7h2.08v1.77h-2.08v-1.77z" fill="#B8BFC4"/>
  <path d="m157.5 152.4h3.13v2.83h-3.13v-2.83z" fill="url(#paint1_linear_2017_21491)"/>
  <path d="m142.6 152.4h2.67v2.91h-2.67v-2.91z" fill="url(#paint2_linear_2017_21491)"/>
  <path d="m147.8 152.4h1.85v2.52h-1.85v-2.52z" fill="#B8BFC4"/>
  <path d="m150.5 152.4h1.85v2.52h-1.85v-2.52z" fill="#B8BFC4"/>
  <path d="m153.3 152.4h1.4v2.52h-1.4v-2.52z" fill="#B8BFC4"/>
  <path d="m197.1 144.7h5.66v1.92h-5.66v-1.92z" fill="#B8BFC4"/>
  <path d="m85.39 152.4h2.28v2.68h-2.28v-2.68z" fill="#B8BFC4"/>
  <path d="m90.03 152.3h2.98v2.83h-2.98v-2.83z" fill="url(#paint3_linear_2017_21491)"/>
  <path d="m95.08 152.4h1.66v2.68h-1.66v-2.68z" fill="#B8BFC4"/>
  <path d="m97.43 152.4h1.5v2.68h-1.5v-2.68z" fill="#768188"/>
  <path d="m102 152.4h1.2v2.59h-1.2v-2.59z" fill="url(#paint4_linear_2017_21491)"/>
  <path d="m37.26 240.5 1.15-2.48 1.92-0.23 0.93 1.33-0.93 1.54-3.07-0.16z" fill="#202223" opacity=".25"/>
  <path d="m210 242.3 1.31-3.37 1.54-0.24 2.2 1.46v1.23l-2 0.31-3.05 0.61z" fill="#202223" opacity=".25"/>
  <path d="m42.02 243.6 1.86-3.91 1.54-0.16 2.01 2.76-0.39 1.07-5.02 0.24z" fill="#202223" opacity=".25"/>
  <path d="m121.9 243.6 1.15-3.83 1.39-0.24 1.69 3.14-0.39 1.08-3.84-0.15z" fill="#202223" opacity=".25"/>
  <path d="m202 243.4 1.08-3.67 1.39-0.23 2.16 2.52-0.31 1.38h-4.32z" fill="#202223" opacity=".25"/>
  <path d="m37.42 240.3c0-0.85 1.2-2.14 2.12-2.14 0.93 0 1.4 0.44 1.64 1.02 0.2 0.51 0 0.91 0 0.91l-3.76 0.21z" fill="#202223"/>
  <path d="m42.26 242.8c0.35-1.18 1.25-2.48 2.27-2.48s2.2 0.79 2.75 1.79c0.39 0.69-0.55 1-0.55 1l-3.92 0.3-0.55-0.61z" fill="#202223"/>
  <path d="m122.2 243.1c0-1 0.76-2.45 1.78-2.45 1.03 0 1.74 1.21 1.82 2.29 0.06 0.62-0.47 0.62-0.47 0.62l-2.82-0.16s-0.31 0-0.31-0.3z" fill="#202223"/>
  <path d="m202.1 242.6c0.39-1.18 1-2.45 2.1-2.32 1.29 0.16 2.14 1.41 2.45 2.32 0.16 0.47-0.66 0.62-0.66 0.62l-3.58-0.15s-0.47 0-0.31-0.47z" fill="#202223"/>
  <path d="m210 239.5c0.49-0.7 1-1.17 1.7-1.09 1 0.16 2 1.09 2.31 1.69 0.24 0.47-0.31 0.7-0.31 0.7l-3.31-0.7s-0.78-0.08-0.39-0.6z" fill="#202223"/>
  <path d="m37.42 113.7 0.31 13.32 0.23 0.93 0.95 0.44h1.8l1.08-0.75 0.63-1.39v-12.86l-0.71 0.31h-4.29z" fill="#94A6AB" opacity=".7"/>
  <path d="m37.57 113.9 0.24-0.62 1.02-0.24 2.82 0.16 0.93 0.23v1.02l-0.85 0.39-3.45-0.16-0.71-0.78z" fill="url(#paint5_linear_2017_21491)"/>
  <path d="m211.4 113.6-3.86 0.15v0.94l0.61 0.39-0.15 12.07 0.71 0.93 1.46 0.08 1.23-1.01 0.47-1.16v-11.3l-0.47-1.09z" fill="url(#paint6_linear_2017_21491)"/>
  <path d="m207.6 113.8 0.39-0.62 0.78-0.16h2.1l0.94 0.39 0.15 0.86-0.78 0.55-2.66-0.16-0.92-0.86z" fill="url(#paint7_linear_2017_21491)"/>
  <path d="m38.75 116.6 2.43 0.16v0.85l-2.43-0.15v-0.86z" fill="#FEFFFE" opacity=".5"/>
  <path d="m208.9 117.3h1.53v1.02h-1.53v-1.02z" fill="#FEFFFE" opacity=".5"/>
  <path d="m208.9 119.4h1.3v0.79h-1.3v-0.79z" fill="#FEFFFE" opacity=".5"/>
  <path d="m208.9 121.7 1.3-0.08v0.85h-1.38l0.08-0.77z" fill="#FEFFFE" opacity=".5"/>
  <path d="m51.44 22.06 3.37-1.92h9.21l2 1.92v17.67h0.68l0.39 1.38h-15.81v-1.38h0.85v-15.32l-0.69-2.35z" fill="#999" opacity=".2"/>
  <path d="m74.66 22.06 1.92-0.39 1.01 1.54 0.78-1.54 1.09 1.54 0.94-1.54 0.86 0.39v2.35l1.08 1.7 1.02 0.7v11.3h15.26v1.62h-17.36v-12.06l-2-1.56-1.08-1.7h-1.6v-1.2l-1.92-1.15z" fill="#999" opacity=".2"/>
  <path d="m99.58 19.3 1.54 0.84 0.78 3.38 1.15-0.31 0.62 1.2v14.25h0.78v1.07h-3.33v-17.67l-1.54-0.84v-1.92z" fill="#999" opacity=".2"/>
  <path d="m126.8 22.06 2.43-1.45h8.62l3.29 2.01v15.49h1.16v1.62h-15.26v-1.62h-0.24v-16.05z" fill="#999" opacity=".2"/>
  <path d="m168.1 21.22 1.15 1.4 0.71 1.79 0.93-1.2 0.78 1.2 1.02-1.2 1.08 1.2v1.7l0.79 0.7v11.3h1.23v1.62h-9.21v-12.92l1.52-1.54v-4.05z" fill="#999" opacity=".2"/>
  <path d="m183.7 22.62 3.13-2.01 6.06 0.61 3.21 3.19v13.7h1.84v1.62h-14.63v-1.62h0.39v-15.49z" fill="#999" opacity=".2"/>
  <path d="m48.09 162v27.43l2.52-0.79v-26.64h-2.52z" fill="#FEFFFE" opacity=".3"/>
  <path d="m58.73 162v17.59l2-1.23v-6.37l2.43-0.71-2.08-1.31v-4h-2.35v-3.97z" fill="#FEFFFE" opacity=".3"/>
  <path d="m83.78 162v16.76l1.4-0.4v-16.36h-1.4z" fill="#FEFFFE" opacity=".3"/>
  <path d="m127.3 162v11.69h2.52v-11.69h-2.52z" fill="#FEFFFE" opacity=".3"/>
  <path d="m165 162v12.4l2.2-0.71v-6.52h2.78v-5.17h-4.98z" fill="#FEFFFE" opacity=".3"/>
  <path d="m195.9 162v13.01h2.22v-13.01h-2.22z" fill="#FEFFFE" opacity=".3"/>
  <path d="m187.2 162v11.07l3.11-1.08v-6.02h-1.23v-3.97h-1.88z" fill="#FEFFFE" opacity=".3"/>
  <path d="m119.1 162v11.77l-2.52-0.31v-3.88h-2.82v-7.58h5.34z" fill="#FEFFFE" opacity=".3"/>
  <path d="m159.1 162v7.58h-3.05v1.31h-3.13v-1.78l-4.4-0.55v-6.56h10.58z" fill="#FEFFFE" opacity=".3"/>
  <path d="m90.03 166.3v22.35l1.23-0.63v-17.12l2.66-0.92v-1.41l-3.89-0.79v-1.48z" fill="#FEFFFE" opacity=".3"/>
  <path d="m159.3 185.9v2.83l1.32-0.63v-2.04l-1.32-0.16z" fill="#FEFFFE" opacity=".3"/>
  <path d="m195.8 186.9 1.56 0.55v1.23l-3.13-0.63 1.57-1.15z" fill="#FEFFFE" opacity=".3"/>
  <path d="m51.28 188.1-2.16 0.63v1.02l4.1-1.02-1.94-0.63z" fill="#FEFFFE" opacity=".3"/>
  <path d="m52.05 26.11 3.06-2.9h6.75l2.9 2.06v11.54h-12.71v-10.7z" fill="#495149"/>
  <path d="m108.1 26.11 3.06-2.9h6.37l3.53 2.44v11.16h-12.96v-10.7z" fill="#495149"/>
  <path d="m127.7 25.27 2.35-2.65h7.9l2.98 2.65v10.14h-13.23v-10.14z" fill="#495149"/>
  <path d="m183.7 26.11 3.21-2.9h5.36l3.44 2.9v9.3h-12.01v-9.3z" fill="#495149"/>
  <path d="m53.97 26.11 2.08-1.7h4.87l2 1.7v8.99h-8.95v-8.99z" stroke="#656B5E" stroke-miterlimit="10" stroke-width=".5"/>
  <path d="m110 26.11 1.7-1.7h5.36l2.18 1.7v8.99h-9.24v-8.99z" stroke="#656B5E" stroke-miterlimit="10" stroke-width=".5"/>
  <path d="m129.4 25.27 1.54-1.44h6.29l2.1 1.44v9.67h-9.93v-9.67z" stroke="#656B5E" stroke-miterlimit="10" stroke-width=".5"/>
  <path d="m185.7 26.11 1.92-1.7h4.88l1.92 1.7v8.6h-8.72v-8.6z" stroke="#656B5E" stroke-miterlimit="10" stroke-width=".5"/>
  <path d="m56.05 24.64v10.3" stroke="#656B5E" stroke-miterlimit="10" stroke-width=".5"/>
  <path d="m60.61 24.64v10.3" stroke="#656B5E" stroke-miterlimit="10" stroke-width=".5"/>
  <path d="m111.7 24.8v10.14" stroke="#656B5E" stroke-miterlimit="10" stroke-width=".5"/>
  <path d="m116.7 24.8v10.14" stroke="#656B5E" stroke-miterlimit="10" stroke-width=".5"/>
  <path d="m131.3 24.18v10.76" stroke="#656B5E" stroke-miterlimit="10" stroke-width=".5"/>
  <path d="m136.4 24.18v10.76" stroke="#656B5E" stroke-miterlimit="10" stroke-width=".5"/>
  <path d="m187.7 24.64v10.07" stroke="#656B5E" stroke-miterlimit="10" stroke-width=".5"/>
  <path d="m192.4 24.64v10.07" stroke="#656B5E" stroke-miterlimit="10" stroke-width=".5"/>
  <path d="m52.13 31.24h10.87" stroke="#656B5E" stroke-miterlimit="10" stroke-width=".5"/>
  <path d="m108.3 31.08h12.79" stroke="#656B5E" stroke-miterlimit="10" stroke-width=".5"/>
  <path d="m127.7 31.08h12.46" stroke="#656B5E" stroke-miterlimit="10" stroke-width=".5"/>
  <path d="m183.8 30.77h11.86" stroke="#656B5E" stroke-miterlimit="10" stroke-width=".5"/>
  <path d="m66.94 52.24h1.02c1.39 0 2.17 0.93 2.17 2.1s-1.02 2.02-2.17 2.02h-1.34l-0.39-0.39v-3.11l0.71-0.62z" fill="#CED7DF"/>
  <path d="m89.04 52.24h1.39c1.25 0 2.03 1.01 2.03 2.02 0 1.17-1.08 2.03-2.18 2.03h-1.16l-1.16-1.02v-2.02l1.08-1.01z" fill="#CED7DF"/>
  <path d="m104.8 52.24h1.31c1.25 0 2.11 1.01 2.11 2.02 0 1.17-1.02 2.03-2.11 2.03h-0.92l-1.31-1.02v-1.94l0.92-1.09z" fill="#CED7DF"/>
  <path d="m142.6 52.16h1.02c1.15 0 2.08 1.02 2.08 2.1 0 1.17-1.02 2.03-2.19 2.03h-1.02l-1.17-1.02v-2.02l1.28-1.09z" fill="#CED7DF"/>
  <path d="m159.2 52.16h0.93c1.17 0 2.1 1.02 2.1 2.1 0 1.17-1.02 2.03-2.18 2.03h-0.85l-1.39-1.02v-1.94l1.39-1.17z" fill="#CED7DF"/>
  <path d="m181.2 52.16h0.93c1.17 0 2.1 1.02 2.1 2.1 0 1.17-1.02 2.03-2.18 2.03h-1.02l-1.24-1.02v-1.94l1.41-1.17z" fill="#CED7DF"/>
  <path d="m48.32 69.22 2.9-0.78 1.31 0.78v1.09l-1.31 0.61h-2.9v-1.7z" fill="#CED7DF"/>
  <path d="m66.31 68.44 1.23-0.62 1.69 0.62 0.62 1.17-0.62 1.01-1.38 0.39-1.54-0.7v-1.87z" fill="#CED7DF"/>
  <path d="m87.88 68.83 1.31-0.78 1.54 0.47 0.71 1.09-0.71 1.17-1.54 0.23-1.31-0.93v-1.25z" fill="#CED7DF"/>
  <path d="m104.5 68.13 1.54-0.47 1.39 0.78 0.64 1.17-0.85 1.17-1.62 0.23-1.39-0.93 0.29-1.95z" fill="#CED7DF"/>
  <path d="m142 68.83 1.24-0.78 1.66 0.55 0.71 1.01-0.71 1.09-1.46 0.31-1.54-0.7 0.1-1.48z" fill="#CED7DF"/>
  <path d="m157.8 68.21 1.23-0.55 1.46 0.7 0.55 1.25-0.86 0.93-1.46 0.16-1.31-0.93 0.39-1.56z" fill="#CED7DF"/>
  <path d="m180.5 68.6 1.31-0.78 1.39 0.62 0.86 1.17-0.93 1.09-1.54 0.31-1.39-0.93 0.3-1.48z" fill="#CED7DF"/>
  <path d="m52.13 90.26 2.74-2.6h7.66l2.9 1.7v11.54h-13.3v-10.64z" fill="#495149"/>
  <path d="m54.05 89.95 1.77-1.38h5.65l1.93 1.38v9.51h-9.35v-9.51z" stroke="#656B5E" stroke-miterlimit="10" stroke-width=".5"/>
  <path d="m107.6 89.95 2.35-2.29h8.54l3.37 2.01v10.37h-14.26v-10.09z" fill="#495149"/>
  <path d="m109.7 89.67 1.4-1.41h6.52l2 1.41v9.25h-9.92v-9.25z" stroke="#656B5E" stroke-miterlimit="10" stroke-width=".5"/>
  <path d="m126.8 89.21 2.16-1.86h9.39l2.75 1.86v10.44h-14.3v-10.44z" fill="#495149"/>
  <path d="m129.1 89.21 1.31-1.34h6.6l1.92 1.34v9.55h-9.83v-9.55z" stroke="#656B5E" stroke-miterlimit="10" stroke-width=".5"/>
  <path d="m184.4 89.52 2.59-2.17h6.68l2.21 1.86v10.13h-11.48v-9.82z" fill="#495149"/>
  <path d="m186.6 89.21 1.54-1.31h5.34l1.77 1.31v9.32h-8.65v-9.32z" stroke="#656B5E" stroke-miterlimit="10" stroke-width=".5"/>
  <path d="m61.86 162.7 1.62 0.54 1.39 0.62h7.21l1.38-1.16v1.16l-1.07 1.38v2.91l1.07 0.63v0.86l-2.35 0.39-2.9-0.39-1.84-0.86v-1.17l0.78-0.93v-2.02l-1.39-1.42-2.05-0.54h-1.85z" fill="#202223" opacity=".5"/>
  <path d="m101.1 162.7 1.25 0.54 0.47 1.42v1.7l-0.94 0.71v1.08l1.54 0.63 1.32-0.32 2.08 0.32 1.02-1.09v-1.33l-0.78-1.12 0.63-2 1.02-0.54h-7.61z" fill="#202223" opacity=".5"/>
  <path d="m140.3 162.4 0.86 1.16v2.38l-0.86 0.75v1.16l1.39 0.62 1.16-0.31 1.92 0.63 0.93-0.94v-1.48l-0.93-1.12v-1.69l0.93-1.16h-5.4z" fill="#202223" opacity=".5"/>
  <path d="m173.4 162.4 1.16 0.85v2.45l1.02 0.67v1.48l-1.02 0.62 1.16 0.72 2.26-0.4 1.7 0.4 1.92-0.72-0.71-0.93v-1.84l1.16-1.03 0.7-1.58 0.86-0.69h-10.21z" fill="#202223" opacity=".5"/>
  <path d="m61.16 185.9 1.93 1.17 1.84 0.6v1.33l1.09 1.09h5.09l0.93-1.44v-1.23l1.92-0.35 2.66-0.47 2.53-0.62v1.09l-0.78 1.58h-16.51l-0.7-1.58v-1.17z" fill="#202223" opacity=".5"/>
  <path d="m96.28 186 2.66 1.09 2.02 0.6v1.41l1.67 0.59h5.47l1.66-1.02v-1.23l2.08-0.35 2.43-1.09-1.23-0.75-2.43 0.59h-11.2l-3.13 0.16z" fill="#202223" opacity=".5"/>
  <path d="m133.1 185.4 3.3 1.21 3.37 0.47v2.37l1.67 0.23h4.87l1.74-1.02v-1.58l2.6-1.09-1.54-0.75-2.45 0.59h-9.46l-4.1-0.43z" fill="#202223" opacity=".5"/>
  <path d="m169 185.4 2.74 1.21 2.25 0.47v1.58l1.78 0.79h6.9l1.92-1.42v-0.95l2.76-1.09-1.46-0.86-2.18 0.86h-9.79l-4.92-0.59z" fill="#202223" opacity=".5"/>
  <defs>
    <linearGradient id="paint0_linear_2017_21491" x1="138.1" x2="138.1" y1="143.8" y2="147.2" gradientUnits="userSpaceOnUse">
      <stop stop-color="#E36800" offset="0"/>
      <stop stop-color="#944200" offset="1"/>
    </linearGradient>
    <linearGradient id="paint1_linear_2017_21491" x1="159.1" x2="159.1" y1="152.4" y2="155.3" gradientUnits="userSpaceOnUse">
      <stop stop-color="#E36800" offset="0"/>
      <stop stop-color="#944200" offset="1"/>
    </linearGradient>
    <linearGradient id="paint2_linear_2017_21491" x1="143.9" x2="143.9" y1="152.4" y2="155.3" gradientUnits="userSpaceOnUse">
      <stop stop-color="#00A0C8" offset="0"/>
      <stop stop-color="#005465" offset="1"/>
    </linearGradient>
    <linearGradient id="paint3_linear_2017_21491" x1="91.52" x2="91.52" y1="152.3" y2="155.1" gradientUnits="userSpaceOnUse">
      <stop stop-color="#E36800" offset="0"/>
      <stop stop-color="#944200" offset="1"/>
    </linearGradient>
    <linearGradient id="paint4_linear_2017_21491" x1="102.6" x2="102.6" y1="152.3" y2="154.9" gradientUnits="userSpaceOnUse">
      <stop stop-color="#007863" offset="0"/>
      <stop stop-color="#00473D" offset="1"/>
    </linearGradient>
    <linearGradient id="paint5_linear_2017_21491" x1="39.98" x2="39.98" y1="113" y2="114.8" gradientUnits="userSpaceOnUse">
      <stop stop-color="#D39B31" offset="0"/>
      <stop stop-color="#94611C" offset="1"/>
    </linearGradient>
    <linearGradient id="paint6_linear_2017_21491" x1="209.8" x2="209.8" y1="113.6" y2="128.1" gradientUnits="userSpaceOnUse">
      <stop stop-color="#D9DDE1" offset="0"/>
      <stop stop-color="#94A6AB" offset="1"/>
    </linearGradient>
    <linearGradient id="paint7_linear_2017_21491" x1="209.7" x2="209.7" y1="113" y2="114.8" gradientUnits="userSpaceOnUse">
      <stop stop-color="#D39B31" offset="0"/>
      <stop stop-color="#94611C" offset="1"/>
    </linearGradient>
  </defs>
</svg>